<svg width="704" height="271" viewBox="0 0 704 271" fill="none" xmlns="http://www.w3.org/2000/svg">
<path d="M519.728 40.972L520.616 43.108C522.536 42.34 528.632 39.7 532.592 39.7C535.832 39.7 537.68 41.692 537.68 44.212C537.68 49.108 532.064 51.028 525.8 51.196L526.664 53.188C534.056 52.756 539.768 49.996 539.768 44.236C539.768 40.228 536.6 37.924 532.64 37.924C529.136 37.924 524.408 39.652 522.392 40.3C521.48 40.564 520.616 40.828 519.728 40.972ZM560.264 34.804H558.008C558.104 35.164 558.2 35.692 558.248 36.22C558.32 37.228 558.416 40.948 558.416 42.484C558.416 47.092 558.296 49.828 555.728 52.06C555.128 52.66 554.144 53.26 553.4 53.572L555.152 54.916C560.24 51.94 560.24 48.004 560.24 42.508C560.24 41.164 560.144 37.108 560.168 36.22C560.168 35.668 560.192 35.188 560.264 34.804ZM551.48 39.772V41.668C552.536 41.764 554.216 41.836 555.392 41.836C558.44 41.836 561.8 41.62 564.128 41.236V39.292C561.728 39.844 558.32 40.036 555.368 40.036C554.048 40.036 552.536 39.94 551.48 39.772ZM548.12 35.164L545.888 34.924C545.864 35.356 545.84 36.004 545.768 36.532C545.48 38.548 544.856 42.22 544.856 46.132C544.856 49.132 545.624 52.252 546.104 53.74L547.76 53.548C547.736 53.284 547.688 52.972 547.688 52.732C547.664 52.444 547.712 51.988 547.784 51.652C548.048 50.452 548.768 48.004 549.344 46.348L548.312 45.724C547.88 46.9 547.352 48.364 547.04 49.396C546.104 45.46 546.944 40.204 547.712 36.724C547.808 36.268 547.976 35.596 548.12 35.164ZM571.712 35.836L571.76 37.804C572.288 37.732 572.816 37.708 573.368 37.66C574.616 37.588 579.416 37.396 580.688 37.324C579.488 38.404 576.464 40.924 575.12 42.028C573.752 43.204 570.656 45.796 568.664 47.428L570.056 48.82C573.08 45.724 575.24 44.044 579.224 44.044C582.368 44.044 584.624 45.796 584.624 48.172C584.624 51.172 582.056 52.852 577.976 52.852C576.08 52.852 574.76 52.156 574.76 50.98C574.76 50.14 575.6 49.468 576.704 49.468C578.624 49.468 579.8 50.932 579.944 52.972L581.672 52.684C581.504 50.26 579.896 48.004 576.704 48.004C574.496 48.004 573.008 49.492 573.008 51.124C573.008 53.14 575 54.556 578.264 54.556C583.352 54.556 586.544 52.036 586.544 48.172C586.544 44.932 583.688 42.556 579.704 42.556C578.624 42.556 577.472 42.676 576.368 43.036C578.24 41.5 581.504 38.692 582.68 37.78C583.136 37.42 583.616 37.108 584.048 36.82L582.944 35.404C582.68 35.5 582.344 35.548 581.624 35.62C580.352 35.74 574.664 35.908 573.392 35.908C572.912 35.908 572.24 35.884 571.712 35.836Z" fill="black"/>
<path d="M84.8295 58.5455V36.7273H89.875V38.3977H86.7386V56.875H89.875V58.5455H84.8295ZM102.593 59.6023C100.854 59.6023 99.3175 59.3636 97.9822 58.8864C96.647 58.4148 95.5249 57.7188 94.6158 56.7983C93.7067 55.8778 93.0192 54.75 92.5533 53.4148C92.0874 52.0795 91.8544 50.5511 91.8544 48.8295C91.8544 47.1648 92.0902 45.6761 92.5618 44.3636C93.0391 43.0511 93.7294 41.9375 94.6328 41.0227C95.5419 40.1023 96.6442 39.4006 97.9396 38.9176C99.2408 38.4347 100.712 38.1932 102.354 38.1932C103.951 38.1932 105.349 38.4545 106.548 38.9773C107.752 39.4943 108.758 40.196 109.565 41.0824C110.377 41.9631 110.985 42.9545 111.388 44.0568C111.798 45.1591 112.002 46.2955 112.002 47.4659C112.002 48.2898 111.962 49.125 111.883 49.9716C111.803 50.8182 111.636 51.5966 111.38 52.3068C111.124 53.0114 110.729 53.5795 110.195 54.0114C109.667 54.4432 108.951 54.6591 108.048 54.6591C107.65 54.6591 107.212 54.5966 106.735 54.4716C106.258 54.3466 105.835 54.1392 105.465 53.8494C105.096 53.5597 104.877 53.1705 104.809 52.6818H104.707C104.57 53.0114 104.36 53.3239 104.076 53.6193C103.798 53.9148 103.431 54.1506 102.977 54.3267C102.528 54.5028 101.979 54.5795 101.332 54.5568C100.593 54.5284 99.9425 54.3636 99.38 54.0625C98.8175 53.7557 98.3459 53.3409 97.9652 52.8182C97.5902 52.2898 97.3061 51.679 97.1129 50.9858C96.9254 50.2869 96.8317 49.5341 96.8317 48.7273C96.8317 47.9602 96.9453 47.2585 97.1726 46.6222C97.3999 45.9858 97.7152 45.429 98.1186 44.9517C98.5277 44.4744 99.005 44.0937 99.5504 43.8097C100.102 43.5199 100.695 43.3409 101.332 43.2727C101.9 43.2159 102.417 43.2415 102.883 43.3494C103.349 43.4517 103.732 43.608 104.033 43.8182C104.335 44.0227 104.525 44.25 104.604 44.5H104.707V43.5455H106.513V51.25C106.513 51.7273 106.647 52.1477 106.914 52.5114C107.181 52.875 107.57 53.0568 108.082 53.0568C108.661 53.0568 109.104 52.858 109.411 52.4602C109.724 52.0625 109.937 51.4489 110.05 50.6193C110.17 49.7898 110.229 48.7273 110.229 47.4318C110.229 46.6705 110.124 45.9205 109.914 45.1818C109.71 44.4375 109.397 43.7415 108.977 43.0938C108.562 42.446 108.036 41.875 107.4 41.3807C106.763 40.8864 106.016 40.5 105.158 40.2216C104.306 39.9375 103.337 39.7955 102.252 39.7955C100.917 39.7955 99.7209 40.0028 98.6641 40.4176C97.6129 40.8267 96.718 41.4261 95.9794 42.2159C95.2464 43 94.6868 43.9545 94.3004 45.0795C93.9197 46.1989 93.7294 47.4716 93.7294 48.8977C93.7294 50.3466 93.9197 51.6335 94.3004 52.7585C94.6868 53.8835 95.255 54.8324 96.005 55.6051C96.7607 56.3778 97.6953 56.9631 98.8089 57.3608C99.9226 57.7642 101.207 57.9659 102.661 57.9659C103.286 57.9659 103.903 57.9063 104.511 57.7869C105.119 57.6676 105.656 57.5369 106.121 57.3949C106.587 57.2528 106.923 57.1477 107.127 57.0795L107.604 58.6477C107.252 58.7955 106.792 58.9432 106.224 59.0909C105.661 59.2386 105.059 59.3608 104.417 59.4574C103.781 59.554 103.173 59.6023 102.593 59.6023ZM101.604 52.8182C102.366 52.8182 102.982 52.6648 103.454 52.358C103.925 52.0511 104.269 51.5881 104.485 50.9688C104.701 50.3494 104.809 49.5682 104.809 48.625C104.809 47.6705 104.69 46.9261 104.451 46.392C104.212 45.858 103.86 45.483 103.394 45.267C102.928 45.0511 102.354 44.9432 101.673 44.9432C101.025 44.9432 100.471 45.1136 100.011 45.4545C99.5561 45.7898 99.2067 46.2386 98.9624 46.8011C98.7237 47.358 98.6044 47.9659 98.6044 48.625C98.6044 49.3523 98.701 50.0369 98.8942 50.679C99.0874 51.3153 99.4027 51.8324 99.8402 52.2301C100.278 52.6222 100.866 52.8182 101.604 52.8182ZM123.348 36.376L121.116 36.136C121.116 37.984 120.804 40.144 120.348 42.064C119.7 44.992 117.78 51.4 115.044 55.072L117.012 55.84C119.724 51.472 121.428 45.496 122.244 42.112C122.58 40.624 122.892 38.656 123.06 37.792C123.156 37.336 123.252 36.808 123.348 36.376ZM131.604 39.136L129.852 39.928C131.532 41.92 133.428 46.096 134.124 48.544L135.996 47.656C135.18 45.448 133.092 41.08 131.604 39.136ZM114.708 41.632L114.9 43.72C115.524 43.624 116.508 43.504 117.06 43.432C118.524 43.288 123.036 42.736 124.644 42.736C126.18 42.736 127.188 43.144 127.188 45.352C127.188 47.944 126.804 51.064 126.036 52.696C125.556 53.728 124.836 53.92 123.948 53.92C123.276 53.92 122.004 53.752 120.996 53.44L121.332 55.432C122.076 55.624 123.228 55.792 124.14 55.792C125.7 55.792 126.9 55.384 127.644 53.776C128.652 51.784 129.036 47.968 129.036 45.112C129.036 41.872 127.284 41.056 125.148 41.056C123.516 41.056 118.644 41.584 116.844 41.632C116.076 41.656 115.452 41.68 114.708 41.632ZM131.868 35.656L130.572 36.208C131.244 37.12 132.06 38.56 132.54 39.544L133.836 38.968C133.332 37.984 132.468 36.52 131.868 35.656ZM134.508 34.696L133.236 35.248C133.932 36.136 134.724 37.504 135.228 38.56L136.548 37.984C136.068 37.096 135.156 35.584 134.508 34.696ZM143.036 36.7273V58.5455H137.99V56.875H141.126V38.3977H137.99V36.7273H143.036Z" fill="black"/>
<path d="M216 0V155.5" stroke="black"/>
<path d="M499 67L481.5 154H423" stroke="black"/>
<path d="M448.192 134.032V135.424H459.568V134.032H448.192ZM448.192 137.656V139.048H459.568V137.656H448.192ZM458.776 130.24V147.424C458.776 147.904 458.608 148.072 458.08 148.072C457.552 148.096 455.752 148.12 453.856 148.024C454.12 148.576 454.432 149.416 454.528 149.944C456.976 149.944 458.536 149.92 459.448 149.608C460.336 149.296 460.624 148.696 460.624 147.424V130.24H458.776ZM443.296 141.832L443.56 143.632C447.736 143.344 453.856 142.864 459.616 142.384L459.64 140.872C453.664 141.256 447.256 141.64 443.296 141.832ZM462.88 135.568C458.728 141.784 451.456 145.888 443.08 148.096C443.44 148.48 444.04 149.32 444.28 149.752C452.608 147.28 460.024 143.08 464.584 136.432L462.88 135.568ZM452.968 127.792C452.68 128.776 452.056 130.192 451.528 131.152L453.136 131.536C453.736 130.672 454.504 129.352 455.128 128.128L452.968 127.792ZM447.064 130.24V142.552H448.84V131.824H459.376V130.24H447.064Z" fill="black"/>
<path d="M476.92 79.8L476.944 81.744C479.56 82.032 484.216 82.032 486.784 81.744V79.8C484.408 80.16 479.536 80.256 476.92 79.8ZM477.856 89.592L476.128 89.424C475.864 90.576 475.744 91.44 475.744 92.232C475.744 94.488 477.544 95.832 481.552 95.832C484.048 95.832 486.064 95.64 487.552 95.328L487.504 93.312C485.584 93.768 483.712 93.96 481.576 93.96C478.288 93.96 477.52 92.88 477.52 91.776C477.52 91.128 477.64 90.456 477.856 89.592ZM472.36 77.952L470.224 77.784C470.2 78.312 470.128 78.912 470.056 79.464C469.768 81.456 468.976 85.56 468.976 89.088C468.976 92.352 469.384 95.112 469.864 96.816L471.568 96.696C471.544 96.432 471.52 96.096 471.496 95.856C471.496 95.568 471.544 95.112 471.616 94.776C471.832 93.624 472.72 91.104 473.32 89.4L472.312 88.608C471.904 89.592 471.352 91.032 470.944 92.112C470.8 90.936 470.728 89.928 470.728 88.776C470.728 86.064 471.472 81.792 471.928 79.56C472.024 79.128 472.216 78.36 472.36 77.952Z" fill="black"/>
<path d="M374 67L356.5 154H298" stroke="black"/>
<path d="M309.44 140.008V149.992H311.216V141.448H322.928V149.992H324.776V140.008H309.44ZM310.376 143.752V145.192H323.504V143.752H310.376ZM310.448 147.616V149.056H323.504V147.616H310.448ZM316.016 137.752C315.776 138.544 315.248 139.768 314.792 140.584L316.256 140.968C316.76 140.248 317.384 139.168 317.912 138.112L316.016 137.752ZM306.728 129.088V130.528H314.72V129.088H306.728ZM314.24 129.088V137.032C314.24 137.272 314.168 137.368 313.856 137.368C313.568 137.392 312.608 137.392 311.504 137.368C311.72 137.752 311.936 138.304 312.008 138.712C313.544 138.712 314.504 138.712 315.128 138.472C315.704 138.232 315.896 137.824 315.896 137.032V129.088H314.24ZM317.408 129.088V130.528H325.784V129.088H317.408ZM324.968 129.088V137.032C324.968 137.32 324.872 137.368 324.56 137.392C324.248 137.416 323.192 137.416 322.064 137.368C322.28 137.776 322.496 138.376 322.568 138.784C324.176 138.808 325.208 138.784 325.832 138.544C326.48 138.28 326.648 137.872 326.648 137.032V129.088H324.968ZM316.856 136.168L317.528 137.56C319.376 136.912 321.728 136 323.936 135.16L323.672 133.84C321.152 134.728 318.608 135.616 316.856 136.168ZM318.08 131.848C319.232 132.448 320.624 133.408 321.272 134.152L322.256 132.952C321.584 132.232 320.168 131.32 319.016 130.768L318.08 131.848ZM306.152 136.648L306.848 138.136C308.6 137.44 310.784 136.528 312.896 135.664L312.608 134.32C310.208 135.208 307.808 136.12 306.152 136.648ZM307.736 131.824C308.888 132.472 310.232 133.48 310.88 134.2L311.864 133.024C311.216 132.304 309.824 131.368 308.696 130.768L307.736 131.824ZM340.016 140.56H348.44V142.12H340.016V140.56ZM340.016 143.32H348.44V144.88H340.016V143.32ZM340.016 137.848H348.44V139.36H340.016V137.848ZM338.312 136.576V146.152H350.216V136.576H338.312ZM345.656 147.136C347.48 148.024 349.472 149.152 350.648 149.968L352.088 148.912C350.792 148.096 348.704 146.992 346.76 146.128L345.656 147.136ZM340.568 130H348.32L348.08 134.152H340.184L340.568 130ZM339.104 128.728L338.48 135.448H349.64L350.048 128.728H339.104ZM343.568 129.4C343.52 131.104 343.376 133.264 343.184 134.656H344.696C344.84 133.312 345.032 131.152 345.128 129.4H343.568ZM341.216 146.224C339.992 147.232 337.832 148.144 335.864 148.72C336.248 149.032 336.848 149.68 337.136 150.016C339.104 149.272 341.432 148.096 342.848 146.8L341.216 146.224ZM336.728 131.272V132.832H339.752V132.664H348.752V132.832H352.04V131.272H348.752V131.44H339.752V131.272H336.728ZM332.792 127.84V149.896H334.448V127.84H332.792ZM330.776 132.472C330.752 134.56 330.44 137.176 329.648 138.664L330.824 139.168C331.664 137.536 332 134.776 332 132.664L330.776 132.472ZM334.736 132.112C335.288 133.696 335.72 135.76 335.816 136.984L337.04 136.552C336.944 135.352 336.464 133.36 335.888 131.8L334.736 132.112Z" fill="black"/>
<path d="M352.04 77.04L350.072 76.872C350 78 349.664 79.44 349.136 80.76C348.32 82.8 346.712 85.584 343.256 88.896L344.912 90.12C345.704 89.136 346.376 88.272 347.072 87.6C348.176 86.616 349.688 85.848 351.224 85.848C352.472 85.848 353.432 86.496 353.456 87.888C353.48 89.136 353.456 91.608 353.36 92.88H355.208C355.184 91.392 355.136 88.632 355.136 87.384C355.136 85.44 353.696 84.336 351.848 84.336C350.792 84.336 349.424 84.672 348.488 85.224C349.448 83.976 350.336 82.368 350.936 80.904C351.56 79.296 351.824 77.976 352.04 77.04ZM343.808 79.632V81.432C345.152 81.528 346.736 81.576 347.768 81.576C350.816 81.576 355.28 81.36 358.64 80.856V79.08C355.256 79.68 351.104 79.872 347.864 79.872C346.76 79.872 345.104 79.8 343.808 79.632ZM362.144 85.416L361.376 83.64C360.704 83.976 360.104 84.24 359.384 84.576C357.8 85.32 355.856 86.064 353.576 87.24C350.72 88.704 347.744 90.504 347.744 93.432C347.744 96.336 350.504 97.08 353.912 97.08C356 97.08 358.664 96.888 360.488 96.672L360.56 94.728C358.448 95.112 355.856 95.328 353.984 95.328C351.512 95.328 349.664 95.04 349.664 93.168C349.664 91.512 351.344 90.216 353.72 88.968C356.048 87.768 358.328 86.856 360.032 86.184C360.68 85.944 361.544 85.608 362.144 85.416Z" fill="black"/>
<path d="M337 154L319.5 241H261" stroke="black"/>
<path d="M279.112 223.984V229.648C279.112 229.936 278.992 230.032 278.656 230.032C278.272 230.056 277 230.056 275.584 230.008C275.824 230.488 276.088 231.16 276.184 231.664C278.032 231.664 279.208 231.64 279.952 231.376C280.72 231.112 280.912 230.632 280.912 229.696V223.984H279.112ZM274.264 224.896C273.136 226.768 271.312 228.616 269.512 229.816C269.968 230.08 270.76 230.656 271.12 230.968C272.872 229.648 274.84 227.536 276.112 225.472L274.264 224.896ZM284.368 225.808C286.144 227.32 288.208 229.48 289.096 230.944L290.632 229.912C289.696 228.424 287.608 226.336 285.808 224.896L284.368 225.808ZM284.944 228.304C283.096 232.84 278.704 234.712 271.312 235.384C271.696 235.84 272.056 236.56 272.2 237.112C280 236.2 284.752 233.992 286.768 228.856L284.944 228.304ZM269.32 222.424V224.152H290.704V222.424H269.32ZM280.168 217.672V219.304H288.376V217.672H280.168ZM279.088 214.864V223.336H280.936V214.864H279.088ZM272.872 216.76V223.072H274.696V216.76H272.872ZM308.896 217.312L307.096 215.728C306.832 216.16 306.208 216.856 305.728 217.336C304.12 218.968 300.472 221.848 298.648 223.36C296.488 225.184 296.224 226.216 298.48 228.112C300.736 229.96 304.36 233.08 306.064 234.808C306.64 235.408 307.216 235.984 307.72 236.56L309.424 235C306.88 232.432 302.632 229.024 300.448 227.224C298.888 225.928 298.912 225.568 300.352 224.32C302.128 222.832 305.584 220.12 307.24 218.68C307.624 218.344 308.368 217.696 308.896 217.312Z" fill="black"/>
<path d="M0 67H704" stroke="black"/>
</svg>
