<svg width="385" height="156" viewBox="0 0 385 156" fill="none" xmlns="http://www.w3.org/2000/svg">
<path d="M268.576 38.572V40.3H281.368V38.572H268.576ZM268.072 44.548V46.252H281.968V44.548H268.072ZM275.632 45.316L274.072 45.628C275.152 50.356 277.288 53.86 281.104 55.492C281.368 55.012 281.92 54.316 282.328 53.956C278.68 52.636 276.568 49.444 275.632 45.316ZM278.728 33.34C278.224 34.708 277.288 36.652 276.544 37.876L277.984 38.452C278.776 37.324 279.784 35.548 280.6 34.012L278.728 33.34ZM269.248 34.228C270.136 35.572 271.048 37.372 271.36 38.572L272.968 37.804C272.608 36.604 271.696 34.852 270.76 33.556L269.248 34.228ZM273.712 39.124V43.948C273.712 47.068 273.208 51.244 266.128 54.004C266.56 54.364 267.112 55.012 267.352 55.396C274.72 52.3 275.536 47.668 275.536 43.972V39.124H273.712ZM261.808 35.836V37.516H265.888V47.092H261.808V48.772H267.616V35.836H261.808ZM260.776 35.836V51.028H262.456V35.836H260.776ZM287.296 37.06L287.416 38.812C290.848 39.148 294.208 39.148 296.632 38.908C298.552 38.74 300.592 38.332 302.152 37.876L301.888 36.124C300.16 36.7 298.192 37.108 296.224 37.276C293.776 37.516 290.632 37.468 287.296 37.06ZM286.816 41.98L286.936 43.78C291.064 44.092 295.504 44.02 298.456 43.636C300.472 43.396 302.296 43.036 303.616 42.676L303.304 40.9C302.032 41.284 300.088 41.764 297.808 42.004C295 42.34 290.92 42.412 286.816 41.98ZM295.024 36.748C295.36 37.948 295.72 39.22 296.32 40.876C297.016 42.82 298.024 45.124 299.344 47.188C298.6 47.092 297.04 46.924 295.744 46.804L295.6 48.268C297.256 48.436 299.488 48.676 300.832 49.012L301.84 47.548C301.48 47.236 301.192 46.9 300.928 46.516C299.68 44.668 298.624 42.364 297.976 40.492C297.376 38.788 296.632 36.364 296.392 34.348L294.352 34.612C294.616 35.308 294.832 36.052 295.024 36.748ZM290.32 47.164L288.448 46.756C287.896 47.812 287.488 48.82 287.488 50.188C287.536 53.284 290.176 54.676 294.856 54.676C296.92 54.676 298.792 54.532 300.472 54.244L300.568 52.348C298.816 52.684 297.064 52.852 294.832 52.852C291.064 52.852 289.312 51.844 289.312 49.876C289.312 48.796 289.744 47.98 290.32 47.164ZM320.728 34.468H318.688C318.76 34.78 318.784 35.5 318.784 35.908C318.784 37.588 318.784 40.108 318.784 42.268C318.784 44.38 319.024 48.988 319.024 50.836C319.024 52.516 317.848 52.924 316.456 52.924C314.08 52.924 313.144 52.108 313.144 50.98C313.144 49.876 314.368 48.988 316.672 48.988C320.944 48.988 324.496 51.388 326.656 53.38L327.76 51.676C325.912 50.164 321.952 47.428 316.888 47.428C313.432 47.428 311.344 48.892 311.344 51.076C311.344 53.404 313.24 54.628 316.696 54.628C319.816 54.628 320.92 52.924 320.92 51.244C320.92 49.636 320.56 45.436 320.56 42.268C320.56 40.252 320.56 37.036 320.608 36.076C320.632 35.356 320.68 34.876 320.728 34.468ZM311.56 37.06L311.584 38.836C313.096 39.028 316.048 39.244 317.704 39.244C320.92 39.244 324.352 38.932 327.064 38.62V36.868C323.944 37.372 320.728 37.588 317.68 37.588C316.096 37.588 313.096 37.348 311.56 37.06ZM311.44 42.172L311.464 43.972C313.168 44.164 315.808 44.284 317.464 44.284C321.064 44.284 323.992 44.116 327.256 43.708V41.908C324.136 42.364 320.944 42.604 317.464 42.604C315.88 42.604 313.144 42.436 311.44 42.172ZM346.048 34.492H343.84C343.888 34.708 343.96 35.38 344.008 36.028C344.08 37.348 344.104 42.124 344.104 43.18L345.928 44.116C345.904 42.196 345.856 37.564 345.928 36.004C345.928 35.716 346 34.78 346.048 34.492ZM333.28 37.852L333.328 39.7C336.952 39.436 342.088 39.268 346.216 39.268C349.744 39.268 351.904 39.316 353.248 39.388L353.272 37.612C352.144 37.588 349.168 37.588 346.24 37.588C342.544 37.588 336.544 37.804 333.28 37.852ZM345.88 44.812L344.56 44.14C344.944 46.708 343.984 47.956 342.496 47.956C341.176 47.956 340.048 47.092 340.048 45.58C340.048 44.02 341.224 43.036 342.496 43.036C343.792 43.036 344.848 43.948 344.848 46.108C344.848 50.068 342.304 52.204 337.936 53.236L339.544 54.796C345.112 53.14 346.696 49.54 346.696 46.276C346.696 43.516 345.28 41.452 342.496 41.452C340.216 41.452 338.248 43.228 338.248 45.604C338.248 48.22 340.192 49.636 342.208 49.636C344.392 49.636 345.88 48.028 345.88 44.812Z" fill="black"/>
<path d="M89.176 41.32C87.688 44.392 85.24 47.344 82.648 49.216C83.08 49.504 83.824 50.152 84.136 50.464C86.68 48.4 89.272 45.208 90.952 41.872L89.176 41.32ZM94.264 41.536V53.656C94.264 55.96 94.936 56.584 97.36 56.584C97.888 56.584 101.416 56.584 101.944 56.584C104.2 56.584 104.728 55.528 104.968 51.904C104.488 51.784 103.744 51.472 103.336 51.16C103.192 54.256 103 54.88 101.848 54.88C101.08 54.88 98.104 54.88 97.504 54.88C96.28 54.88 96.04 54.688 96.04 53.68V41.536H94.264ZM102.592 43.624C100.792 45.016 97.672 46.624 94.888 47.776C95.128 48.136 95.44 48.736 95.536 49.12C98.44 47.944 101.728 46.48 103.984 44.992L102.592 43.624ZM83.416 37.048V38.776H104.536V37.048H83.416ZM89.2 34.84V41.32H90.976V34.84H89.2ZM97.072 34.84V41.464H98.848V34.84H97.072ZM87.184 45.88V56.92H88.936V44.128V44.104L87.184 45.88ZM116.176 36.376L113.944 36.136C113.944 37.984 113.632 40.144 113.176 42.064C112.528 44.992 110.608 51.4 107.872 55.072L109.84 55.84C112.552 51.472 114.256 45.496 115.072 42.112C115.408 40.624 115.72 38.656 115.888 37.792C115.984 37.336 116.08 36.808 116.176 36.376ZM124.432 39.136L122.68 39.928C124.36 41.92 126.256 46.096 126.952 48.544L128.824 47.656C128.008 45.448 125.92 41.08 124.432 39.136ZM107.536 41.632L107.728 43.72C108.352 43.624 109.336 43.504 109.888 43.432C111.352 43.288 115.864 42.736 117.472 42.736C119.008 42.736 120.016 43.144 120.016 45.352C120.016 47.944 119.632 51.064 118.864 52.696C118.384 53.728 117.664 53.92 116.776 53.92C116.104 53.92 114.832 53.752 113.824 53.44L114.16 55.432C114.904 55.624 116.056 55.792 116.968 55.792C118.528 55.792 119.728 55.384 120.472 53.776C121.48 51.784 121.864 47.968 121.864 45.112C121.864 41.872 120.112 41.056 117.976 41.056C116.344 41.056 111.472 41.584 109.672 41.632C108.904 41.656 108.28 41.68 107.536 41.632ZM124.696 35.656L123.4 36.208C124.072 37.12 124.888 38.56 125.368 39.544L126.664 38.968C126.16 37.984 125.296 36.52 124.696 35.656ZM127.336 34.696L126.064 35.248C126.76 36.136 127.552 37.504 128.056 38.56L129.376 37.984C128.896 37.096 127.984 35.584 127.336 34.696Z" fill="black"/>
<path d="M0 67L385 67" stroke="black"/>
<path d="M216 0V155.5" stroke="black"/>
</svg>
