<svg width="385" height="156" viewBox="0 0 385 156" fill="none" xmlns="http://www.w3.org/2000/svg">
<path d="M289.576 38.572V40.3H302.368V38.572H289.576ZM289.072 44.548V46.252H302.968V44.548H289.072ZM296.632 45.316L295.072 45.628C296.152 50.356 298.288 53.86 302.104 55.492C302.368 55.012 302.92 54.316 303.328 53.956C299.68 52.636 297.568 49.444 296.632 45.316ZM299.728 33.34C299.224 34.708 298.288 36.652 297.544 37.876L298.984 38.452C299.776 37.324 300.784 35.548 301.6 34.012L299.728 33.34ZM290.248 34.228C291.136 35.572 292.048 37.372 292.36 38.572L293.968 37.804C293.608 36.604 292.696 34.852 291.76 33.556L290.248 34.228ZM294.712 39.124V43.948C294.712 47.068 294.208 51.244 287.128 54.004C287.56 54.364 288.112 55.012 288.352 55.396C295.72 52.3 296.536 47.668 296.536 43.972V39.124H294.712ZM282.808 35.836V37.516H286.888V47.092H282.808V48.772H288.616V35.836H282.808ZM281.776 35.836V51.028H283.456V35.836H281.776ZM320.896 35.812L319.096 34.228C318.832 34.66 318.208 35.356 317.728 35.836C316.12 37.468 312.472 40.348 310.648 41.86C308.488 43.684 308.224 44.716 310.48 46.612C312.736 48.46 316.36 51.58 318.064 53.308C318.64 53.908 319.216 54.484 319.72 55.06L321.424 53.5C318.88 50.932 314.632 47.524 312.448 45.724C310.888 44.428 310.912 44.068 312.352 42.82C314.128 41.332 317.584 38.62 319.24 37.18C319.624 36.844 320.368 36.196 320.896 35.812Z" fill="black"/>
<path d="M89.176 41.32C87.688 44.392 85.24 47.344 82.648 49.216C83.08 49.504 83.824 50.152 84.136 50.464C86.68 48.4 89.272 45.208 90.952 41.872L89.176 41.32ZM94.264 41.536V53.656C94.264 55.96 94.936 56.584 97.36 56.584C97.888 56.584 101.416 56.584 101.944 56.584C104.2 56.584 104.728 55.528 104.968 51.904C104.488 51.784 103.744 51.472 103.336 51.16C103.192 54.256 103 54.88 101.848 54.88C101.08 54.88 98.104 54.88 97.504 54.88C96.28 54.88 96.04 54.688 96.04 53.68V41.536H94.264ZM102.592 43.624C100.792 45.016 97.672 46.624 94.888 47.776C95.128 48.136 95.44 48.736 95.536 49.12C98.44 47.944 101.728 46.48 103.984 44.992L102.592 43.624ZM83.416 37.048V38.776H104.536V37.048H83.416ZM89.2 34.84V41.32H90.976V34.84H89.2ZM97.072 34.84V41.464H98.848V34.84H97.072ZM87.184 45.88V56.92H88.936V44.128V44.104L87.184 45.88ZM116.176 36.376L113.944 36.136C113.944 37.984 113.632 40.144 113.176 42.064C112.528 44.992 110.608 51.4 107.872 55.072L109.84 55.84C112.552 51.472 114.256 45.496 115.072 42.112C115.408 40.624 115.72 38.656 115.888 37.792C115.984 37.336 116.08 36.808 116.176 36.376ZM124.432 39.136L122.68 39.928C124.36 41.92 126.256 46.096 126.952 48.544L128.824 47.656C128.008 45.448 125.92 41.08 124.432 39.136ZM107.536 41.632L107.728 43.72C108.352 43.624 109.336 43.504 109.888 43.432C111.352 43.288 115.864 42.736 117.472 42.736C119.008 42.736 120.016 43.144 120.016 45.352C120.016 47.944 119.632 51.064 118.864 52.696C118.384 53.728 117.664 53.92 116.776 53.92C116.104 53.92 114.832 53.752 113.824 53.44L114.16 55.432C114.904 55.624 116.056 55.792 116.968 55.792C118.528 55.792 119.728 55.384 120.472 53.776C121.48 51.784 121.864 47.968 121.864 45.112C121.864 41.872 120.112 41.056 117.976 41.056C116.344 41.056 111.472 41.584 109.672 41.632C108.904 41.656 108.28 41.68 107.536 41.632ZM124.696 35.656L123.4 36.208C124.072 37.12 124.888 38.56 125.368 39.544L126.664 38.968C126.16 37.984 125.296 36.52 124.696 35.656ZM127.336 34.696L126.064 35.248C126.76 36.136 127.552 37.504 128.056 38.56L129.376 37.984C128.896 37.096 127.984 35.584 127.336 34.696Z" fill="black"/>
<path d="M0 67L385 67" stroke="black"/>
<path d="M216 0V155.5" stroke="black"/>
</svg>
