<svg width="452" height="252" viewBox="0 0 452 252" fill="none" xmlns="http://www.w3.org/2000/svg">
<path d="M340.248 37.528V39.112H349.632V37.528H340.248ZM351.72 36.304V37.864H360.36V36.304H351.72ZM345 34.816C343.92 37.36 342.264 40.84 341.088 42.928L342.552 43.6C343.752 41.368 345.456 37.864 346.656 35.152L345 34.816ZM341.928 42.76C344.448 43.768 347.688 45.352 349.272 46.48L350.328 45.184C348.648 44.032 345.384 42.496 342.888 41.608L341.928 42.76ZM353.976 37.984L352.464 38.368C353.952 42.904 356.832 46.168 361.176 47.632C361.416 47.2 361.896 46.528 362.256 46.192C358.128 44.992 355.272 41.968 353.976 37.984ZM341.856 48.736V50.296H358.896V48.736H341.856ZM358.224 48.736V49C357.84 53.008 357.432 54.688 356.904 55.168C356.688 55.36 356.424 55.408 355.968 55.408C355.464 55.408 354.192 55.384 352.848 55.24C353.112 55.72 353.304 56.392 353.352 56.848C354.744 56.944 356.064 56.944 356.76 56.92C357.504 56.872 358.008 56.728 358.488 56.272C359.208 55.576 359.664 53.824 360.072 49.528C360.12 49.264 360.144 48.736 360.144 48.736H358.224ZM349.848 46.72C349.32 51.376 348 54.232 340.536 55.528C340.872 55.888 341.304 56.608 341.448 57.064C349.392 55.528 351.048 52.144 351.696 46.72H349.848ZM349.248 37.528V37.792C348.24 43.168 344.592 45.616 339.936 46.456C340.248 46.792 340.56 47.464 340.728 47.896C345.84 46.744 349.68 44.08 350.856 37.744L349.872 37.48L349.56 37.528H349.248ZM359.76 36.304V36.568C358.56 41.272 355.056 44.2 351.024 45.352C351.36 45.712 351.744 46.336 351.936 46.768C356.376 45.28 360.048 42.208 361.44 36.616L360.384 36.232L360.072 36.304H359.76ZM364.968 40.096V41.92H383.592V40.096H364.968ZM382.896 40.096V40.48C382.416 50.008 381.888 53.752 380.976 54.64C380.664 54.928 380.376 55 379.848 55C379.248 55 377.712 54.976 376.08 54.832C376.416 55.36 376.656 56.152 376.68 56.68C378.168 56.776 379.704 56.824 380.544 56.728C381.456 56.656 382.032 56.464 382.608 55.768C383.664 54.568 384.168 50.992 384.72 41.056C384.744 40.768 384.768 40.096 384.768 40.096H382.896ZM372.816 34.888V39.064C372.816 44.032 372.24 50.848 364.272 55.6C364.704 55.912 365.376 56.584 365.64 57.016C374.04 51.952 374.712 44.536 374.712 39.064V34.888H372.816ZM402.048 35.992H399.84C399.888 36.208 399.96 36.88 400.008 37.528C400.08 38.848 400.104 43.624 400.104 44.68L401.928 45.616C401.904 43.696 401.856 39.064 401.928 37.504C401.928 37.216 402 36.28 402.048 35.992ZM389.28 39.352L389.328 41.2C392.952 40.936 398.088 40.768 402.216 40.768C405.744 40.768 407.904 40.816 409.248 40.888L409.272 39.112C408.144 39.088 405.168 39.088 402.24 39.088C398.544 39.088 392.544 39.304 389.28 39.352ZM401.88 46.312L400.56 45.64C400.944 48.208 399.984 49.456 398.496 49.456C397.176 49.456 396.048 48.592 396.048 47.08C396.048 45.52 397.224 44.536 398.496 44.536C399.792 44.536 400.848 45.448 400.848 47.608C400.848 51.568 398.304 53.704 393.936 54.736L395.544 56.296C401.112 54.64 402.696 51.04 402.696 47.776C402.696 45.016 401.28 42.952 398.496 42.952C396.216 42.952 394.248 44.728 394.248 47.104C394.248 49.72 396.192 51.136 398.208 51.136C400.392 51.136 401.88 49.528 401.88 46.312ZM416.712 37.336L416.76 39.304C417.288 39.232 417.816 39.208 418.368 39.16C419.616 39.088 424.416 38.896 425.688 38.824C424.488 39.904 421.464 42.424 420.12 43.528C418.752 44.704 415.656 47.296 413.664 48.928L415.056 50.32C418.08 47.224 420.24 45.544 424.224 45.544C427.368 45.544 429.624 47.296 429.624 49.672C429.624 52.672 427.056 54.352 422.976 54.352C421.08 54.352 419.76 53.656 419.76 52.48C419.76 51.64 420.6 50.968 421.704 50.968C423.624 50.968 424.8 52.432 424.944 54.472L426.672 54.184C426.504 51.76 424.896 49.504 421.704 49.504C419.496 49.504 418.008 50.992 418.008 52.624C418.008 54.64 420 56.056 423.264 56.056C428.352 56.056 431.544 53.536 431.544 49.672C431.544 46.432 428.688 44.056 424.704 44.056C423.624 44.056 422.472 44.176 421.368 44.536C423.24 43 426.504 40.192 427.68 39.28C428.136 38.92 428.616 38.608 429.048 38.32L427.944 36.904C427.68 37 427.344 37.048 426.624 37.12C425.352 37.24 419.664 37.408 418.392 37.408C417.912 37.408 417.24 37.384 416.712 37.336Z" fill="black"/>
<path d="M84.8295 58.5455V36.7273H89.875V38.3977H86.7386V56.875H89.875V58.5455H84.8295ZM102.593 59.6023C100.854 59.6023 99.3175 59.3636 97.9822 58.8864C96.647 58.4148 95.5249 57.7188 94.6158 56.7983C93.7067 55.8778 93.0192 54.75 92.5533 53.4148C92.0874 52.0795 91.8544 50.5511 91.8544 48.8295C91.8544 47.1648 92.0902 45.6761 92.5618 44.3636C93.0391 43.0511 93.7294 41.9375 94.6328 41.0227C95.5419 40.1023 96.6442 39.4006 97.9396 38.9176C99.2408 38.4347 100.712 38.1932 102.354 38.1932C103.951 38.1932 105.349 38.4545 106.548 38.9773C107.752 39.4943 108.758 40.196 109.565 41.0824C110.377 41.9631 110.985 42.9545 111.388 44.0568C111.798 45.1591 112.002 46.2955 112.002 47.4659C112.002 48.2898 111.962 49.125 111.883 49.9716C111.803 50.8182 111.636 51.5966 111.38 52.3068C111.124 53.0114 110.729 53.5795 110.195 54.0114C109.667 54.4432 108.951 54.6591 108.048 54.6591C107.65 54.6591 107.212 54.5966 106.735 54.4716C106.258 54.3466 105.835 54.1392 105.465 53.8494C105.096 53.5597 104.877 53.1705 104.809 52.6818H104.707C104.57 53.0114 104.36 53.3239 104.076 53.6193C103.798 53.9148 103.431 54.1506 102.977 54.3267C102.528 54.5028 101.979 54.5795 101.332 54.5568C100.593 54.5284 99.9425 54.3636 99.38 54.0625C98.8175 53.7557 98.3459 53.3409 97.9652 52.8182C97.5902 52.2898 97.3061 51.679 97.1129 50.9858C96.9254 50.2869 96.8317 49.5341 96.8317 48.7273C96.8317 47.9602 96.9453 47.2585 97.1726 46.6222C97.3999 45.9858 97.7152 45.429 98.1186 44.9517C98.5277 44.4744 99.005 44.0937 99.5504 43.8097C100.102 43.5199 100.695 43.3409 101.332 43.2727C101.9 43.2159 102.417 43.2415 102.883 43.3494C103.349 43.4517 103.732 43.608 104.033 43.8182C104.335 44.0227 104.525 44.25 104.604 44.5H104.707V43.5455H106.513V51.25C106.513 51.7273 106.647 52.1477 106.914 52.5114C107.181 52.875 107.57 53.0568 108.082 53.0568C108.661 53.0568 109.104 52.858 109.411 52.4602C109.724 52.0625 109.937 51.4489 110.05 50.6193C110.17 49.7898 110.229 48.7273 110.229 47.4318C110.229 46.6705 110.124 45.9205 109.914 45.1818C109.71 44.4375 109.397 43.7415 108.977 43.0938C108.562 42.446 108.036 41.875 107.4 41.3807C106.763 40.8864 106.016 40.5 105.158 40.2216C104.306 39.9375 103.337 39.7955 102.252 39.7955C100.917 39.7955 99.7209 40.0028 98.6641 40.4176C97.6129 40.8267 96.718 41.4261 95.9794 42.2159C95.2464 43 94.6868 43.9545 94.3004 45.0795C93.9197 46.1989 93.7294 47.4716 93.7294 48.8977C93.7294 50.3466 93.9197 51.6335 94.3004 52.7585C94.6868 53.8835 95.255 54.8324 96.005 55.6051C96.7607 56.3778 97.6953 56.9631 98.8089 57.3608C99.9226 57.7642 101.207 57.9659 102.661 57.9659C103.286 57.9659 103.903 57.9063 104.511 57.7869C105.119 57.6676 105.656 57.5369 106.121 57.3949C106.587 57.2528 106.923 57.1477 107.127 57.0795L107.604 58.6477C107.252 58.7955 106.792 58.9432 106.224 59.0909C105.661 59.2386 105.059 59.3608 104.417 59.4574C103.781 59.554 103.173 59.6023 102.593 59.6023ZM101.604 52.8182C102.366 52.8182 102.982 52.6648 103.454 52.358C103.925 52.0511 104.269 51.5881 104.485 50.9688C104.701 50.3494 104.809 49.5682 104.809 48.625C104.809 47.6705 104.69 46.9261 104.451 46.392C104.212 45.858 103.86 45.483 103.394 45.267C102.928 45.0511 102.354 44.9432 101.673 44.9432C101.025 44.9432 100.471 45.1136 100.011 45.4545C99.5561 45.7898 99.2067 46.2386 98.9624 46.8011C98.7237 47.358 98.6044 47.9659 98.6044 48.625C98.6044 49.3523 98.701 50.0369 98.8942 50.679C99.0874 51.3153 99.4027 51.8324 99.8402 52.2301C100.278 52.6222 100.866 52.8182 101.604 52.8182ZM123.348 36.376L121.116 36.136C121.116 37.984 120.804 40.144 120.348 42.064C119.7 44.992 117.78 51.4 115.044 55.072L117.012 55.84C119.724 51.472 121.428 45.496 122.244 42.112C122.58 40.624 122.892 38.656 123.06 37.792C123.156 37.336 123.252 36.808 123.348 36.376ZM131.604 39.136L129.852 39.928C131.532 41.92 133.428 46.096 134.124 48.544L135.996 47.656C135.18 45.448 133.092 41.08 131.604 39.136ZM114.708 41.632L114.9 43.72C115.524 43.624 116.508 43.504 117.06 43.432C118.524 43.288 123.036 42.736 124.644 42.736C126.18 42.736 127.188 43.144 127.188 45.352C127.188 47.944 126.804 51.064 126.036 52.696C125.556 53.728 124.836 53.92 123.948 53.92C123.276 53.92 122.004 53.752 120.996 53.44L121.332 55.432C122.076 55.624 123.228 55.792 124.14 55.792C125.7 55.792 126.9 55.384 127.644 53.776C128.652 51.784 129.036 47.968 129.036 45.112C129.036 41.872 127.284 41.056 125.148 41.056C123.516 41.056 118.644 41.584 116.844 41.632C116.076 41.656 115.452 41.68 114.708 41.632ZM131.868 35.656L130.572 36.208C131.244 37.12 132.06 38.56 132.54 39.544L133.836 38.968C133.332 37.984 132.468 36.52 131.868 35.656ZM134.508 34.696L133.236 35.248C133.932 36.136 134.724 37.504 135.228 38.56L136.548 37.984C136.068 37.096 135.156 35.584 134.508 34.696ZM143.036 36.7273V58.5455H137.99V56.875H141.126V38.3977H137.99V36.7273H143.036Z" fill="black"/>
<path d="M173 0V155.5" stroke="black"/>
<path d="M335 68L317.5 155H214" stroke="black"/>
<path d="M231.776 131.552V133.184H241.4V131.552H231.776ZM243.848 136.64V138.224H250.904V136.64H243.848ZM231.152 136.208V137.84H242V136.208H231.152ZM237.008 141.392V143H241.784V141.392H237.008ZM235.784 128.888V137.048H237.488V128.888H235.784ZM236.192 137.312V148.328H237.872V137.312H236.192ZM242.912 129.992V131.6H249.968V138.848H251.72V129.992H242.912ZM243.152 136.64V144.488C243.152 146.528 243.824 147.032 246.056 147.032C246.536 147.032 249.776 147.032 250.28 147.032C252.344 147.032 252.848 146.168 253.088 142.736C252.584 142.616 251.84 142.328 251.456 142.04C251.36 144.92 251.192 145.4 250.16 145.4C249.44 145.4 246.752 145.4 246.224 145.4C245.096 145.4 244.88 145.256 244.88 144.488V136.64H243.152ZM233.72 142.544L232.4 142.976C233.96 149.024 236.816 150.32 243.32 150.32H252.536C252.656 149.792 252.992 148.952 253.28 148.544C251.792 148.592 244.448 148.592 243.272 148.592C237.704 148.592 235.016 147.56 233.72 142.544ZM232.376 139.736C232.28 144.008 232.016 147.872 230.624 150.272C231.032 150.464 231.824 150.896 232.136 151.136C233.576 148.448 233.912 144.464 234.056 139.856L232.376 139.736ZM258.296 132.56L258.416 134.312C261.848 134.648 265.208 134.648 267.632 134.408C269.552 134.24 271.592 133.832 273.152 133.376L272.888 131.624C271.16 132.2 269.192 132.608 267.224 132.776C264.776 133.016 261.632 132.968 258.296 132.56ZM257.816 137.48L257.936 139.28C262.064 139.592 266.504 139.52 269.456 139.136C271.472 138.896 273.296 138.536 274.616 138.176L274.304 136.4C273.032 136.784 271.088 137.264 268.808 137.504C266 137.84 261.92 137.912 257.816 137.48ZM266.024 132.248C266.36 133.448 266.72 134.72 267.32 136.376C268.016 138.32 269.024 140.624 270.344 142.688C269.6 142.592 268.04 142.424 266.744 142.304L266.6 143.768C268.256 143.936 270.488 144.176 271.832 144.512L272.84 143.048C272.48 142.736 272.192 142.4 271.928 142.016C270.68 140.168 269.624 137.864 268.976 135.992C268.376 134.288 267.632 131.864 267.392 129.848L265.352 130.112C265.616 130.808 265.832 131.552 266.024 132.248ZM261.32 142.664L259.448 142.256C258.896 143.312 258.488 144.32 258.488 145.688C258.536 148.784 261.176 150.176 265.856 150.176C267.92 150.176 269.792 150.032 271.472 149.744L271.568 147.848C269.816 148.184 268.064 148.352 265.832 148.352C262.064 148.352 260.312 147.344 260.312 145.376C260.312 144.296 260.744 143.48 261.32 142.664ZM283.243 131.336L283.291 133.304C283.819 133.232 284.347 133.208 284.899 133.16C286.147 133.088 290.947 132.896 292.219 132.824C291.019 133.904 287.995 136.424 286.651 137.528C285.283 138.704 282.187 141.296 280.195 142.928L281.587 144.32C284.611 141.224 286.771 139.544 290.755 139.544C293.899 139.544 296.155 141.296 296.155 143.672C296.155 146.672 293.587 148.352 289.507 148.352C287.611 148.352 286.291 147.656 286.291 146.48C286.291 145.64 287.131 144.968 288.235 144.968C290.155 144.968 291.331 146.432 291.475 148.472L293.203 148.184C293.035 145.76 291.427 143.504 288.235 143.504C286.027 143.504 284.539 144.992 284.539 146.624C284.539 148.64 286.531 150.056 289.795 150.056C294.883 150.056 298.075 147.536 298.075 143.672C298.075 140.432 295.219 138.056 291.235 138.056C290.155 138.056 289.003 138.176 287.899 138.536C289.771 137 293.035 134.192 294.211 133.28C294.667 132.92 295.147 132.608 295.579 132.32L294.475 130.904C294.211 131 293.875 131.048 293.155 131.12C291.883 131.24 286.195 131.408 284.923 131.408C284.443 131.408 283.771 131.384 283.243 131.336Z" fill="black"/>
<path d="M265.984 78.16H263.704C263.8 78.616 263.872 79.672 263.896 80.56C263.896 81.592 263.92 83.56 263.92 84.952C263.92 87.4 264.208 92.056 264.208 93.832C264.208 95.488 263.344 96.328 261.592 96.328C259.264 96.328 257.92 95.584 257.92 94.264C257.92 92.92 259.336 92.08 261.832 92.08C266.032 92.08 269.968 94.432 272.368 96.832L273.52 95.032C271.072 92.8 266.8 90.4 262.048 90.4C257.896 90.4 256.024 92.152 256.024 94.336C256.024 97.072 258.448 98.104 261.784 98.104C264.976 98.104 266.176 96.424 266.176 94.48C266.176 92.368 265.792 87.568 265.792 84.952C265.792 83.296 265.792 81.64 265.792 80.56C265.816 79.84 265.888 78.688 265.984 78.16ZM264.736 83.008V84.784C266.464 84.784 270.376 84.616 272.968 84.376L272.896 82.576C270.304 82.888 266.392 83.008 264.736 83.008ZM294.256 89.032C294.256 93.328 290.152 95.608 284.32 96.352L285.424 98.176C291.64 97.216 296.296 94.312 296.296 89.104C296.296 85.672 293.776 83.776 290.368 83.776C287.584 83.776 284.872 84.544 283.192 84.928C282.448 85.072 281.656 85.24 280.984 85.288L281.584 87.496C282.16 87.256 282.88 86.992 283.624 86.776C285.016 86.368 287.392 85.576 290.152 85.576C292.624 85.576 294.256 86.992 294.256 89.032ZM284.176 78.208L283.888 80.032C286.6 80.512 291.424 80.992 294.088 81.184L294.376 79.336C292.048 79.312 286.84 78.808 284.176 78.208ZM311.92 80.8L311.944 82.744C314.56 83.032 319.216 83.032 321.784 82.744V80.8C319.408 81.16 314.536 81.256 311.92 80.8ZM312.856 90.592L311.128 90.424C310.864 91.576 310.744 92.44 310.744 93.232C310.744 95.488 312.544 96.832 316.552 96.832C319.048 96.832 321.064 96.64 322.552 96.328L322.504 94.312C320.584 94.768 318.712 94.96 316.576 94.96C313.288 94.96 312.52 93.88 312.52 92.776C312.52 92.128 312.64 91.456 312.856 90.592ZM307.36 78.952L305.224 78.784C305.2 79.312 305.128 79.912 305.056 80.464C304.768 82.456 303.976 86.56 303.976 90.088C303.976 93.352 304.384 96.112 304.864 97.816L306.568 97.696C306.544 97.432 306.52 97.096 306.496 96.856C306.496 96.568 306.544 96.112 306.616 95.776C306.832 94.624 307.72 92.104 308.32 90.4L307.312 89.608C306.904 90.592 306.352 92.032 305.944 93.112C305.8 91.936 305.728 90.928 305.728 89.776C305.728 87.064 306.472 82.792 306.928 80.56C307.024 80.128 307.216 79.36 307.36 78.952Z" fill="black"/>
<path d="M297 156L279.5 243H176" stroke="black"/>
<path d="M224.992 227.664V238.92H226.84V227.664H224.992ZM219.4 223.704H232.408V226.32H219.4V223.704ZM219.4 219.576H232.408V222.168H219.4V219.576ZM217.648 217.968V227.928H234.232V217.968H217.648ZM215.128 231.504V233.232H236.944V231.504H215.128ZM254.896 219.312L253.096 217.728C252.832 218.16 252.208 218.856 251.728 219.336C250.12 220.968 246.472 223.848 244.648 225.36C242.488 227.184 242.224 228.216 244.48 230.112C246.736 231.96 250.36 235.08 252.064 236.808C252.64 237.408 253.216 237.984 253.72 238.56L255.424 237C252.88 234.432 248.632 231.024 246.448 229.224C244.888 227.928 244.912 227.568 246.352 226.32C248.128 224.832 251.584 222.12 253.24 220.68C253.624 220.344 254.368 219.696 254.896 219.312Z" fill="black"/>
<path d="M0 67H452" stroke="black"/>
</svg>
