<svg width="385" height="166" viewBox="0 0 385 166" fill="none" xmlns="http://www.w3.org/2000/svg">
<path d="M214.776 37.552V39.184H224.4V37.552H214.776ZM226.848 42.64V44.224H233.904V42.64H226.848ZM214.152 42.208V43.84H225V42.208H214.152ZM220.008 47.392V49H224.784V47.392H220.008ZM218.784 34.888V43.048H220.488V34.888H218.784ZM219.192 43.312V54.328H220.872V43.312H219.192ZM225.912 35.992V37.6H232.968V44.848H234.72V35.992H225.912ZM226.152 42.64V50.488C226.152 52.528 226.824 53.032 229.056 53.032C229.536 53.032 232.776 53.032 233.28 53.032C235.344 53.032 235.848 52.168 236.088 48.736C235.584 48.616 234.84 48.328 234.456 48.04C234.36 50.92 234.192 51.4 233.16 51.4C232.44 51.4 229.752 51.4 229.224 51.4C228.096 51.4 227.88 51.256 227.88 50.488V42.64H226.152ZM216.72 48.544L215.4 48.976C216.96 55.024 219.816 56.32 226.32 56.32H235.536C235.656 55.792 235.992 54.952 236.28 54.544C234.792 54.592 227.448 54.592 226.272 54.592C220.704 54.592 218.016 53.56 216.72 48.544ZM215.376 45.736C215.28 50.008 215.016 53.872 213.624 56.272C214.032 56.464 214.824 56.896 215.136 57.136C216.576 54.448 216.912 50.464 217.056 45.856L215.376 45.736ZM241.296 38.56L241.416 40.312C244.848 40.648 248.208 40.648 250.632 40.408C252.552 40.24 254.592 39.832 256.152 39.376L255.888 37.624C254.16 38.2 252.192 38.608 250.224 38.776C247.776 39.016 244.632 38.968 241.296 38.56ZM240.816 43.48L240.936 45.28C245.064 45.592 249.504 45.52 252.456 45.136C254.472 44.896 256.296 44.536 257.616 44.176L257.304 42.4C256.032 42.784 254.088 43.264 251.808 43.504C249 43.84 244.92 43.912 240.816 43.48ZM249.024 38.248C249.36 39.448 249.72 40.72 250.32 42.376C251.016 44.32 252.024 46.624 253.344 48.688C252.6 48.592 251.04 48.424 249.744 48.304L249.6 49.768C251.256 49.936 253.488 50.176 254.832 50.512L255.84 49.048C255.48 48.736 255.192 48.4 254.928 48.016C253.68 46.168 252.624 43.864 251.976 41.992C251.376 40.288 250.632 37.864 250.392 35.848L248.352 36.112C248.616 36.808 248.832 37.552 249.024 38.248ZM244.32 48.664L242.448 48.256C241.896 49.312 241.488 50.32 241.488 51.688C241.536 54.784 244.176 56.176 248.856 56.176C250.92 56.176 252.792 56.032 254.472 55.744L254.568 53.848C252.816 54.184 251.064 54.352 248.832 54.352C245.064 54.352 243.312 53.344 243.312 51.376C243.312 50.296 243.744 49.48 244.32 48.664ZM263.016 39.064L263.232 41.176C265.848 40.624 271.944 40.024 274.536 39.76C272.328 41.056 270.048 44.104 270.048 47.848C270.048 53.224 275.088 55.576 279.552 55.744L280.224 53.776C276.336 53.608 271.944 52.12 271.944 47.44C271.944 44.608 274.032 40.936 277.464 39.832C278.688 39.496 280.776 39.448 282.168 39.472L282.144 37.552C280.536 37.6 278.304 37.744 275.688 37.96C271.248 38.344 266.736 38.776 265.176 38.944C264.696 38.992 263.928 39.04 263.016 39.064ZM301.169 37.312L299.369 35.728C299.105 36.16 298.481 36.856 298.001 37.336C296.393 38.968 292.745 41.848 290.921 43.36C288.761 45.184 288.497 46.216 290.753 48.112C293.009 49.96 296.633 53.08 298.337 54.808C298.913 55.408 299.489 55.984 299.993 56.56L301.697 55C299.153 52.432 294.905 49.024 292.721 47.224C291.161 45.928 291.185 45.568 292.625 44.32C294.401 42.832 297.857 40.12 299.513 38.68C299.897 38.344 300.641 37.696 301.169 37.312ZM318.161 36.472L315.881 36.28C315.929 36.784 315.881 37.6 315.785 38.272C315.617 39.544 314.993 42.544 314.393 44.752C313.505 48.136 311.825 53.032 310.361 55.504L312.473 56.2C313.745 53.584 315.353 48.616 316.217 45.208C316.889 42.832 317.393 40.096 317.729 38.368C317.825 37.912 318.017 37 318.161 36.472ZM312.857 40.48C311.969 40.48 311.105 40.456 309.977 40.312L310.025 42.16C310.913 42.232 311.753 42.256 312.809 42.256C315.401 42.256 319.025 41.872 322.001 41.2V39.304C319.025 40.072 315.497 40.48 312.857 40.48ZM320.441 43.792V45.568C321.905 45.4 323.369 45.328 324.881 45.328C326.297 45.328 327.689 45.448 328.937 45.592L328.985 43.768C327.689 43.624 326.225 43.576 324.833 43.576C323.273 43.576 321.689 43.672 320.441 43.792ZM320.921 49.624L319.145 49.432C318.929 50.464 318.785 51.352 318.785 52.264C318.785 54.64 320.849 55.816 324.617 55.816C326.369 55.816 327.977 55.648 329.273 55.48L329.345 53.536C327.857 53.824 326.201 54.016 324.641 54.016C321.233 54.016 320.585 52.912 320.585 51.784C320.585 51.16 320.729 50.392 320.921 49.624ZM326.369 37.216L325.097 37.744C325.745 38.656 326.585 40.12 327.065 41.08L328.361 40.504C327.857 39.544 326.993 38.056 326.369 37.216ZM329.033 36.232L327.761 36.784C328.433 37.696 329.249 39.04 329.753 40.096L331.049 39.52C330.593 38.608 329.681 37.12 329.033 36.232ZM344.825 38.008C345.089 38.752 345.425 39.856 345.953 41.224C346.745 43.408 348.065 45.784 349.073 47.32C348.209 47.224 346.433 47.08 345.089 46.96L344.945 48.544C346.673 48.664 349.601 48.928 350.753 49.216L351.713 47.848C351.353 47.464 350.993 47.056 350.681 46.576C349.649 45.184 348.425 42.952 347.681 40.888C347.129 39.328 346.505 37.264 346.289 35.872L344.225 36.112C344.465 36.76 344.681 37.48 344.825 38.008ZM336.041 39.88L336.089 41.776C340.337 42.136 344.153 42.112 347.201 41.752C348.953 41.536 351.233 41.152 352.937 40.672L352.721 38.776C350.849 39.424 348.473 39.856 346.577 40.072C343.841 40.36 340.049 40.336 336.041 39.88ZM339.761 47.512L337.889 47.08C337.193 48.496 336.713 49.744 336.713 51.088C336.713 54.352 339.593 55.984 344.153 56.008C346.841 56.032 348.857 55.768 350.369 55.504L350.441 53.584C348.785 53.944 346.697 54.184 344.273 54.184C340.697 54.136 338.609 53.152 338.609 50.848C338.609 49.72 339.041 48.688 339.761 47.512ZM361.625 38.272L359.297 38.224C359.441 38.776 359.441 39.808 359.441 40.36C359.441 41.752 359.489 44.68 359.705 46.744C360.377 52.96 362.537 55.216 364.817 55.216C366.449 55.216 367.889 53.824 369.353 49.768L367.841 48.064C367.217 50.464 366.089 52.936 364.865 52.936C363.137 52.936 361.985 50.272 361.577 46.264C361.409 44.296 361.385 42.088 361.409 40.6C361.433 39.976 361.505 38.824 361.625 38.272ZM374.105 38.92L372.257 39.568C374.537 42.376 376.001 47.32 376.409 51.64L378.353 50.872C377.993 46.816 376.265 41.704 374.105 38.92Z" fill="black"/>
<path d="M34.8295 58.5455V36.7273H39.875V38.3977H36.7386V56.875H39.875V58.5455H34.8295ZM52.593 59.6023C50.8544 59.6023 49.3175 59.3636 47.9822 58.8864C46.647 58.4148 45.5249 57.7188 44.6158 56.7983C43.7067 55.8778 43.0192 54.75 42.5533 53.4148C42.0874 52.0795 41.8544 50.5511 41.8544 48.8295C41.8544 47.1648 42.0902 45.6761 42.5618 44.3636C43.0391 43.0511 43.7294 41.9375 44.6328 41.0227C45.5419 40.1023 46.6442 39.4006 47.9396 38.9176C49.2408 38.4347 50.7124 38.1932 52.3544 38.1932C53.951 38.1932 55.3487 38.4545 56.5476 38.9773C57.7521 39.4943 58.7578 40.196 59.5646 41.0824C60.3771 41.9631 60.9851 42.9545 61.3885 44.0568C61.7976 45.1591 62.0021 46.2955 62.0021 47.4659C62.0021 48.2898 61.9624 49.125 61.8828 49.9716C61.8033 50.8182 61.6357 51.5966 61.38 52.3068C61.1243 53.0114 60.7294 53.5795 60.1953 54.0114C59.6669 54.4432 58.951 54.6591 58.0476 54.6591C57.6499 54.6591 57.2124 54.5966 56.7351 54.4716C56.2578 54.3466 55.8345 54.1392 55.4652 53.8494C55.0959 53.5597 54.8771 53.1705 54.8089 52.6818H54.7067C54.5703 53.0114 54.3601 53.3239 54.076 53.6193C53.7976 53.9148 53.4311 54.1506 52.9766 54.3267C52.5277 54.5028 51.9794 54.5795 51.3317 54.5568C50.593 54.5284 49.9425 54.3636 49.38 54.0625C48.8175 53.7557 48.3459 53.3409 47.9652 52.8182C47.5902 52.2898 47.3061 51.679 47.1129 50.9858C46.9254 50.2869 46.8317 49.5341 46.8317 48.7273C46.8317 47.9602 46.9453 47.2585 47.1726 46.6222C47.3999 45.9858 47.7152 45.429 48.1186 44.9517C48.5277 44.4744 49.005 44.0937 49.5504 43.8097C50.1016 43.5199 50.6953 43.3409 51.3317 43.2727C51.8999 43.2159 52.4169 43.2415 52.8828 43.3494C53.3487 43.4517 53.7322 43.608 54.0334 43.8182C54.3345 44.0227 54.5249 44.25 54.6044 44.5H54.7067V43.5455H56.5135V51.25C56.5135 51.7273 56.647 52.1477 56.9141 52.5114C57.1811 52.875 57.5703 53.0568 58.0817 53.0568C58.6612 53.0568 59.1044 52.858 59.4112 52.4602C59.7237 52.0625 59.9368 51.4489 60.0504 50.6193C60.1697 49.7898 60.2294 48.7273 60.2294 47.4318C60.2294 46.6705 60.1243 45.9205 59.9141 45.1818C59.7095 44.4375 59.397 43.7415 58.9766 43.0938C58.5618 42.446 58.0362 41.875 57.3999 41.3807C56.7635 40.8864 56.0163 40.5 55.1584 40.2216C54.3061 39.9375 53.3374 39.7955 52.2521 39.7955C50.9169 39.7955 49.7209 40.0028 48.6641 40.4176C47.6129 40.8267 46.718 41.4261 45.9794 42.2159C45.2464 43 44.6868 43.9545 44.3004 45.0795C43.9197 46.1989 43.7294 47.4716 43.7294 48.8977C43.7294 50.3466 43.9197 51.6335 44.3004 52.7585C44.6868 53.8835 45.255 54.8324 46.005 55.6051C46.7607 56.3778 47.6953 56.9631 48.8089 57.3608C49.9226 57.7642 51.2067 57.9659 52.6612 57.9659C53.2862 57.9659 53.9027 57.9063 54.5107 57.7869C55.1186 57.6676 55.6555 57.5369 56.1214 57.3949C56.5874 57.2528 56.9226 57.1477 57.1271 57.0795L57.6044 58.6477C57.2521 58.7955 56.7919 58.9432 56.2237 59.0909C55.6612 59.2386 55.0589 59.3608 54.4169 59.4574C53.7805 59.554 53.1726 59.6023 52.593 59.6023ZM51.6044 52.8182C52.3658 52.8182 52.9822 52.6648 53.4538 52.358C53.9254 52.0511 54.2692 51.5881 54.4851 50.9688C54.701 50.3494 54.8089 49.5682 54.8089 48.625C54.8089 47.6705 54.6896 46.9261 54.451 46.392C54.2124 45.858 53.8601 45.483 53.3942 45.267C52.9283 45.0511 52.3544 44.9432 51.6726 44.9432C51.0249 44.9432 50.4709 45.1136 50.0107 45.4545C49.5561 45.7898 49.2067 46.2386 48.9624 46.8011C48.7237 47.358 48.6044 47.9659 48.6044 48.625C48.6044 49.3523 48.701 50.0369 48.8942 50.679C49.0874 51.3153 49.4027 51.8324 49.8402 52.2301C50.2777 52.6222 50.8658 52.8182 51.6044 52.8182ZM73.3479 36.376L71.1159 36.136C71.1159 37.984 70.8039 40.144 70.3479 42.064C69.6999 44.992 67.7799 51.4 65.0439 55.072L67.0119 55.84C69.7239 51.472 71.4279 45.496 72.2439 42.112C72.5799 40.624 72.8919 38.656 73.0599 37.792C73.1559 37.336 73.2519 36.808 73.3479 36.376ZM81.6039 39.136L79.8519 39.928C81.5319 41.92 83.4279 46.096 84.1239 48.544L85.9959 47.656C85.1799 45.448 83.0919 41.08 81.6039 39.136ZM64.7079 41.632L64.8999 43.72C65.5239 43.624 66.5079 43.504 67.0599 43.432C68.5239 43.288 73.0359 42.736 74.6439 42.736C76.1799 42.736 77.1879 43.144 77.1879 45.352C77.1879 47.944 76.8039 51.064 76.0359 52.696C75.5559 53.728 74.8359 53.92 73.9479 53.92C73.2759 53.92 72.0039 53.752 70.9959 53.44L71.3319 55.432C72.0759 55.624 73.2279 55.792 74.1399 55.792C75.6999 55.792 76.8999 55.384 77.6439 53.776C78.6519 51.784 79.0359 47.968 79.0359 45.112C79.0359 41.872 77.2839 41.056 75.1479 41.056C73.5159 41.056 68.6439 41.584 66.8439 41.632C66.0759 41.656 65.4519 41.68 64.7079 41.632ZM81.8679 35.656L80.5719 36.208C81.2439 37.12 82.0599 38.56 82.5399 39.544L83.8359 38.968C83.3319 37.984 82.4679 36.52 81.8679 35.656ZM84.5079 34.696L83.2359 35.248C83.9319 36.136 84.7239 37.504 85.2279 38.56L86.5479 37.984C86.0679 37.096 85.1559 35.584 84.5079 34.696ZM93.0355 36.7273V58.5455H87.9901V56.875H91.1264V38.3977H87.9901V36.7273H93.0355Z" fill="black"/>
<path d="M0 67L385 67" stroke="black"/>
<path d="M144 0L144 107" stroke="black"/>
<path d="M140.992 149.664V160.92H142.84V149.664H140.992ZM135.4 145.704H148.408V148.32H135.4V145.704ZM135.4 141.576H148.408V144.168H135.4V141.576ZM133.648 139.968V149.928H150.232V139.968H133.648ZM131.128 153.504V155.232H152.944V153.504H131.128ZM170.896 141.312L169.096 139.728C168.832 140.16 168.208 140.856 167.728 141.336C166.12 142.968 162.472 145.848 160.648 147.36C158.488 149.184 158.224 150.216 160.48 152.112C162.736 153.96 166.36 157.08 168.064 158.808C168.64 159.408 169.216 159.984 169.72 160.56L171.424 159C168.88 156.432 164.632 153.024 162.448 151.224C160.888 149.928 160.912 149.568 162.352 148.32C164.128 146.832 167.584 144.12 169.24 142.68C169.624 142.344 170.368 141.696 170.896 141.312Z" fill="black"/>
<path d="M213 67L188 165H111" stroke="black"/>
</svg>
