<svg width="385" height="184" viewBox="0 0 385 184" fill="none" xmlns="http://www.w3.org/2000/svg">
<path d="M318.576 42.58V46.804H320.184V44.044H330.048V46.804H331.728V42.58H318.576ZM326.256 45.628V52.876C326.256 54.628 326.64 55.156 328.296 55.156C328.608 55.156 329.952 55.156 330.288 55.156C331.728 55.156 332.16 54.316 332.304 51.052C331.848 50.932 331.128 50.644 330.792 50.356C330.72 53.14 330.624 53.524 330.12 53.524C329.832 53.524 328.752 53.524 328.512 53.524C328.008 53.524 327.936 53.452 327.936 52.852V45.628H326.256ZM322.104 45.628C321.936 50.14 321.336 52.66 317.496 54.052C317.856 54.388 318.36 55.06 318.552 55.468C322.824 53.788 323.592 50.764 323.808 45.628H322.104ZM318.672 35.524V37.036H331.632V35.524H318.672ZM319.44 39.268V40.804H330.936V39.268H319.44ZM324.144 33.34V40.06H325.92V33.34H324.144ZM310.944 40.612V42.052H317.424V40.612H310.944ZM311.064 34.204V35.644H317.328V34.204H311.064ZM310.944 43.828V45.268H317.424V43.828H310.944ZM309.912 37.348V38.836H318.096V37.348H309.912ZM311.784 47.068V48.556H315.912V52.564H311.784V54.052H317.424V47.068H311.784ZM310.896 47.068V55.18H312.432V47.068H310.896ZM341.928 34.492H339.816C339.936 34.996 339.984 35.812 339.984 36.748C340.008 38.02 340.008 41.812 340.008 43.132L341.76 44.092C341.76 42.46 341.736 37.948 341.76 36.748C341.76 35.884 341.832 34.996 341.928 34.492ZM350.328 36.916L349.08 38.164C350.424 39.1 352.608 41.188 353.784 42.7L355.128 41.332C354.024 39.988 351.744 37.852 350.328 36.916ZM335.208 37.66L335.28 39.436C336.696 39.628 338.064 39.676 339.12 39.676C341.088 39.676 343.92 39.364 346.368 38.812V36.964C343.944 37.636 341.28 37.996 339 37.996C337.8 37.996 336.624 37.9 335.208 37.66ZM341.16 48.484L339.36 49.108C339.312 49.876 339.264 50.74 339.264 51.604C339.264 53.38 339.96 54.532 344.784 54.532C346.368 54.532 348.696 54.316 349.752 54.052C351.912 53.452 352.776 52.42 352.872 50.164C352.896 49.156 352.872 48.532 352.872 47.572L350.808 46.924C350.928 47.884 350.952 48.7 350.952 49.636C350.952 51.22 350.208 51.94 348.96 52.324C348.096 52.564 346.248 52.732 344.904 52.732C341.4 52.732 341.064 52.228 341.064 50.884C341.064 50.164 341.112 48.988 341.16 48.484ZM342.384 45.316C342.384 43.396 341.28 42.004 339.36 42.004C336.984 42.004 335.424 44.26 335.424 46.708C335.424 49.516 337.152 50.5 338.52 50.5C341.544 50.5 342.384 47.476 342.384 45.316ZM338.712 48.724C337.824 48.724 337.032 47.956 337.032 46.612C337.032 44.812 338.064 43.54 339.24 43.54C340.08 43.54 340.632 44.26 340.632 45.412C340.632 47.02 340.152 48.724 338.712 48.724Z" fill="black"/>
<path d="M84.8295 58.5455V36.7273H89.875V38.3977H86.7386V56.875H89.875V58.5455H84.8295ZM102.593 59.6023C100.854 59.6023 99.3175 59.3636 97.9822 58.8864C96.647 58.4148 95.5249 57.7188 94.6158 56.7983C93.7067 55.8778 93.0192 54.75 92.5533 53.4148C92.0874 52.0795 91.8544 50.5511 91.8544 48.8295C91.8544 47.1648 92.0902 45.6761 92.5618 44.3636C93.0391 43.0511 93.7294 41.9375 94.6328 41.0227C95.5419 40.1023 96.6442 39.4006 97.9396 38.9176C99.2408 38.4347 100.712 38.1932 102.354 38.1932C103.951 38.1932 105.349 38.4545 106.548 38.9773C107.752 39.4943 108.758 40.196 109.565 41.0824C110.377 41.9631 110.985 42.9545 111.388 44.0568C111.798 45.1591 112.002 46.2955 112.002 47.4659C112.002 48.2898 111.962 49.125 111.883 49.9716C111.803 50.8182 111.636 51.5966 111.38 52.3068C111.124 53.0114 110.729 53.5795 110.195 54.0114C109.667 54.4432 108.951 54.6591 108.048 54.6591C107.65 54.6591 107.212 54.5966 106.735 54.4716C106.258 54.3466 105.835 54.1392 105.465 53.8494C105.096 53.5597 104.877 53.1705 104.809 52.6818H104.707C104.57 53.0114 104.36 53.3239 104.076 53.6193C103.798 53.9148 103.431 54.1506 102.977 54.3267C102.528 54.5028 101.979 54.5795 101.332 54.5568C100.593 54.5284 99.9425 54.3636 99.38 54.0625C98.8175 53.7557 98.3459 53.3409 97.9652 52.8182C97.5902 52.2898 97.3061 51.679 97.1129 50.9858C96.9254 50.2869 96.8317 49.5341 96.8317 48.7273C96.8317 47.9602 96.9453 47.2585 97.1726 46.6222C97.3999 45.9858 97.7152 45.429 98.1186 44.9517C98.5277 44.4744 99.005 44.0937 99.5504 43.8097C100.102 43.5199 100.695 43.3409 101.332 43.2727C101.9 43.2159 102.417 43.2415 102.883 43.3494C103.349 43.4517 103.732 43.608 104.033 43.8182C104.335 44.0227 104.525 44.25 104.604 44.5H104.707V43.5455H106.513V51.25C106.513 51.7273 106.647 52.1477 106.914 52.5114C107.181 52.875 107.57 53.0568 108.082 53.0568C108.661 53.0568 109.104 52.858 109.411 52.4602C109.724 52.0625 109.937 51.4489 110.05 50.6193C110.17 49.7898 110.229 48.7273 110.229 47.4318C110.229 46.6705 110.124 45.9205 109.914 45.1818C109.71 44.4375 109.397 43.7415 108.977 43.0938C108.562 42.446 108.036 41.875 107.4 41.3807C106.763 40.8864 106.016 40.5 105.158 40.2216C104.306 39.9375 103.337 39.7955 102.252 39.7955C100.917 39.7955 99.7209 40.0028 98.6641 40.4176C97.6129 40.8267 96.718 41.4261 95.9794 42.2159C95.2464 43 94.6868 43.9545 94.3004 45.0795C93.9197 46.1989 93.7294 47.4716 93.7294 48.8977C93.7294 50.3466 93.9197 51.6335 94.3004 52.7585C94.6868 53.8835 95.255 54.8324 96.005 55.6051C96.7607 56.3778 97.6953 56.9631 98.8089 57.3608C99.9226 57.7642 101.207 57.9659 102.661 57.9659C103.286 57.9659 103.903 57.9063 104.511 57.7869C105.119 57.6676 105.656 57.5369 106.121 57.3949C106.587 57.2528 106.923 57.1477 107.127 57.0795L107.604 58.6477C107.252 58.7955 106.792 58.9432 106.224 59.0909C105.661 59.2386 105.059 59.3608 104.417 59.4574C103.781 59.554 103.173 59.6023 102.593 59.6023ZM101.604 52.8182C102.366 52.8182 102.982 52.6648 103.454 52.358C103.925 52.0511 104.269 51.5881 104.485 50.9688C104.701 50.3494 104.809 49.5682 104.809 48.625C104.809 47.6705 104.69 46.9261 104.451 46.392C104.212 45.858 103.86 45.483 103.394 45.267C102.928 45.0511 102.354 44.9432 101.673 44.9432C101.025 44.9432 100.471 45.1136 100.011 45.4545C99.5561 45.7898 99.2067 46.2386 98.9624 46.8011C98.7237 47.358 98.6044 47.9659 98.6044 48.625C98.6044 49.3523 98.701 50.0369 98.8942 50.679C99.0874 51.3153 99.4027 51.8324 99.8402 52.2301C100.278 52.6222 100.866 52.8182 101.604 52.8182ZM123.348 36.376L121.116 36.136C121.116 37.984 120.804 40.144 120.348 42.064C119.7 44.992 117.78 51.4 115.044 55.072L117.012 55.84C119.724 51.472 121.428 45.496 122.244 42.112C122.58 40.624 122.892 38.656 123.06 37.792C123.156 37.336 123.252 36.808 123.348 36.376ZM131.604 39.136L129.852 39.928C131.532 41.92 133.428 46.096 134.124 48.544L135.996 47.656C135.18 45.448 133.092 41.08 131.604 39.136ZM114.708 41.632L114.9 43.72C115.524 43.624 116.508 43.504 117.06 43.432C118.524 43.288 123.036 42.736 124.644 42.736C126.18 42.736 127.188 43.144 127.188 45.352C127.188 47.944 126.804 51.064 126.036 52.696C125.556 53.728 124.836 53.92 123.948 53.92C123.276 53.92 122.004 53.752 120.996 53.44L121.332 55.432C122.076 55.624 123.228 55.792 124.14 55.792C125.7 55.792 126.9 55.384 127.644 53.776C128.652 51.784 129.036 47.968 129.036 45.112C129.036 41.872 127.284 41.056 125.148 41.056C123.516 41.056 118.644 41.584 116.844 41.632C116.076 41.656 115.452 41.68 114.708 41.632ZM131.868 35.656L130.572 36.208C131.244 37.12 132.06 38.56 132.54 39.544L133.836 38.968C133.332 37.984 132.468 36.52 131.868 35.656ZM134.508 34.696L133.236 35.248C133.932 36.136 134.724 37.504 135.228 38.56L136.548 37.984C136.068 37.096 135.156 35.584 134.508 34.696ZM143.036 36.7273V58.5455H137.99V56.875H141.126V38.3977H137.99V36.7273H143.036Z" fill="black"/>
<path d="M0 67L385 67" stroke="black"/>
<path d="M191 0V155.5" stroke="black"/>
<path d="M267.04 92.04L265.072 91.872C265 93 264.664 94.44 264.136 95.76C263.32 97.8 261.712 100.584 258.256 103.896L259.912 105.12C260.704 104.136 261.376 103.272 262.072 102.6C263.176 101.616 264.688 100.848 266.224 100.848C267.472 100.848 268.432 101.496 268.456 102.888C268.48 104.136 268.456 106.608 268.36 107.88H270.208C270.184 106.392 270.136 103.632 270.136 102.384C270.136 100.44 268.696 99.336 266.848 99.336C265.792 99.336 264.424 99.672 263.488 100.224C264.448 98.976 265.336 97.368 265.936 95.904C266.56 94.296 266.824 92.976 267.04 92.04ZM258.808 94.632V96.432C260.152 96.528 261.736 96.576 262.768 96.576C265.816 96.576 270.28 96.36 273.64 95.856V94.08C270.256 94.68 266.104 94.872 262.864 94.872C261.76 94.872 260.104 94.8 258.808 94.632ZM277.144 100.416L276.376 98.64C275.704 98.976 275.104 99.24 274.384 99.576C272.8 100.32 270.856 101.064 268.576 102.24C265.72 103.704 262.744 105.504 262.744 108.432C262.744 111.336 265.504 112.08 268.912 112.08C271 112.08 273.664 111.888 275.488 111.672L275.56 109.728C273.448 110.112 270.856 110.328 268.984 110.328C266.512 110.328 264.664 110.04 264.664 108.168C264.664 106.512 266.344 105.216 268.72 103.968C271.048 102.768 273.328 101.856 275.032 101.184C275.68 100.944 276.544 100.608 277.144 100.416Z" fill="black"/>
<path d="M296 67.5L271 165.5H216.5" stroke="black"/>
<path d="M230.536 144.904V146.728H251.488V144.904H230.536ZM235.336 155.608V157.432H246.52V155.608H235.336ZM240.016 139.864V161.92H241.912V139.864H240.016ZM239.464 145.504C237.544 150.112 233.728 154.576 229.72 156.664C230.128 157.024 230.728 157.696 231.016 158.152C235.168 155.728 238.936 151.144 241.072 146.056L239.464 145.504ZM242.512 145.576L240.904 146.128C243.016 151.168 246.712 155.752 250.96 158.104C251.248 157.6 251.872 156.88 252.328 156.496C248.176 154.504 244.408 150.136 242.512 145.576Z" fill="black"/>
</svg>
