<svg width="407" height="361" viewBox="0 0 407 361" fill="none" xmlns="http://www.w3.org/2000/svg">
<path d="M312.504 44.956V46.348H321.888V44.956H312.504ZM312.504 48.892V50.308H321.888V48.892H312.504ZM312.528 52.852V54.388H323.016V52.852H312.528ZM309.792 35.812V39.916H311.352V37.372H321.288V39.916H322.896V35.812H309.792ZM316.416 42.1V53.668H318.096V42.1H316.416ZM313.152 40.948H313.008L311.448 42.58V55.42H313.152V42.508H322.296V40.948H313.152ZM315.408 33.34C314.232 37.756 312.024 41.476 308.856 43.78C309.24 44.092 309.888 44.764 310.152 45.1C313.392 42.532 315.768 38.548 317.136 33.676L315.408 33.34ZM317.904 38.092C317.616 39.148 316.992 40.66 316.488 41.62L317.88 42.028C318.384 41.116 319.032 39.772 319.608 38.524L317.904 38.092ZM301.248 34.972V36.628H309.72V34.972H301.248ZM303.672 41.98V43.588H307.512V50.908H303.672V52.492H309.096V41.98H303.672ZM304.08 35.764C303.504 40.276 302.472 44.524 300.552 47.236C300.888 47.644 301.392 48.532 301.584 48.94C303.816 45.796 305.064 41.068 305.808 36.028L304.08 35.764ZM302.928 41.98V54.364H304.44V41.98H302.928ZM334.488 34.78L332.28 34.564C332.28 36.412 331.944 38.572 331.512 40.468C330.864 43.42 328.944 49.828 326.208 53.476L328.152 54.268C330.864 49.876 332.592 43.9 333.408 40.54C333.72 39.052 334.056 37.084 334.2 36.22C334.296 35.74 334.392 35.236 334.488 34.78ZM342.768 37.348L341.016 38.14C342.696 40.108 344.568 44.356 345.288 46.828L347.136 45.94C346.344 43.708 344.256 39.292 342.768 37.348ZM325.848 40.06L326.064 42.124C326.664 42.028 327.672 41.908 328.224 41.836C329.688 41.692 334.176 41.164 335.784 41.164C337.32 41.164 338.328 41.572 338.328 43.756C338.328 46.348 337.968 49.492 337.2 51.1C336.696 52.156 335.976 52.348 335.088 52.348C334.416 52.348 333.168 52.156 332.16 51.844L332.472 53.86C333.24 54.028 334.368 54.196 335.304 54.196C336.84 54.196 338.04 53.812 338.808 52.204C339.792 50.212 340.176 46.396 340.176 43.54C340.176 40.276 338.424 39.46 336.288 39.46C334.656 39.46 329.784 40.012 328.008 40.06C327.24 40.084 326.616 40.084 325.848 40.06ZM364.056 34.924L361.968 34.732C361.992 35.284 361.92 36.076 361.824 36.556C361.224 40.06 359.616 44.452 358.032 46.9C356.808 48.844 355.128 50.884 353.568 50.884C352.488 50.884 351.792 49.924 351.792 48.34C351.792 46.18 353.088 43.612 355.128 42.148C357 40.756 359.088 39.964 361.416 39.964C365.28 39.964 367.824 42.556 367.824 46.084C367.824 49.804 365.064 52.42 360.048 52.876L361.152 54.58C366.312 53.86 369.744 50.956 369.744 46.156C369.744 41.476 366.336 38.308 361.632 38.308C359.16 38.308 356.808 38.932 354.432 40.54C351.888 42.244 350.04 45.436 350.04 48.46C350.04 51.268 351.576 52.78 353.4 52.78C355.584 52.78 357.336 50.98 359.16 48.436C361.08 45.796 362.76 40.78 363.624 36.82C363.744 36.364 363.888 35.524 364.056 34.924ZM354.216 36.028L352.224 36.652C352.536 37.276 352.8 38.068 353.04 38.836C353.952 41.836 355.344 45.508 356.52 47.38C357.432 48.94 358.32 50.116 359.28 51.172L360.792 49.948C359.64 48.844 358.512 47.26 357.696 45.868C356.688 44.188 355.344 40.492 354.72 38.14C354.528 37.468 354.336 36.676 354.216 36.028ZM377.712 35.836L377.76 37.804C378.288 37.732 378.816 37.708 379.368 37.66C380.616 37.588 385.416 37.396 386.688 37.324C385.488 38.404 382.464 40.924 381.12 42.028C379.752 43.204 376.656 45.796 374.664 47.428L376.056 48.82C379.08 45.724 381.24 44.044 385.224 44.044C388.368 44.044 390.624 45.796 390.624 48.172C390.624 51.172 388.056 52.852 383.976 52.852C382.08 52.852 380.76 52.156 380.76 50.98C380.76 50.14 381.6 49.468 382.704 49.468C384.624 49.468 385.8 50.932 385.944 52.972L387.672 52.684C387.504 50.26 385.896 48.004 382.704 48.004C380.496 48.004 379.008 49.492 379.008 51.124C379.008 53.14 381 54.556 384.264 54.556C389.352 54.556 392.544 52.036 392.544 48.172C392.544 44.932 389.688 42.556 385.704 42.556C384.624 42.556 383.472 42.676 382.368 43.036C384.24 41.5 387.504 38.692 388.68 37.78C389.136 37.42 389.616 37.108 390.048 36.82L388.944 35.404C388.68 35.5 388.344 35.548 387.624 35.62C386.352 35.74 380.664 35.908 379.392 35.908C378.912 35.908 378.24 35.884 377.712 35.836Z" fill="black"/>
<path d="M60.8295 58.5455V36.7273H65.875V38.3977H62.7386V56.875H65.875V58.5455H60.8295ZM78.593 59.6023C76.8544 59.6023 75.3175 59.3636 73.9822 58.8864C72.647 58.4148 71.5249 57.7188 70.6158 56.7983C69.7067 55.8778 69.0192 54.75 68.5533 53.4148C68.0874 52.0795 67.8544 50.5511 67.8544 48.8295C67.8544 47.1648 68.0902 45.6761 68.5618 44.3636C69.0391 43.0511 69.7294 41.9375 70.6328 41.0227C71.5419 40.1023 72.6442 39.4006 73.9396 38.9176C75.2408 38.4347 76.7124 38.1932 78.3544 38.1932C79.951 38.1932 81.3487 38.4545 82.5476 38.9773C83.7521 39.4943 84.7578 40.196 85.5646 41.0824C86.3771 41.9631 86.9851 42.9545 87.3885 44.0568C87.7976 45.1591 88.0021 46.2955 88.0021 47.4659C88.0021 48.2898 87.9624 49.125 87.8828 49.9716C87.8033 50.8182 87.6357 51.5966 87.38 52.3068C87.1243 53.0114 86.7294 53.5795 86.1953 54.0114C85.6669 54.4432 84.951 54.6591 84.0476 54.6591C83.6499 54.6591 83.2124 54.5966 82.7351 54.4716C82.2578 54.3466 81.8345 54.1392 81.4652 53.8494C81.0959 53.5597 80.8771 53.1705 80.8089 52.6818H80.7067C80.5703 53.0114 80.3601 53.3239 80.076 53.6193C79.7976 53.9148 79.4311 54.1506 78.9766 54.3267C78.5277 54.5028 77.9794 54.5795 77.3317 54.5568C76.593 54.5284 75.9425 54.3636 75.38 54.0625C74.8175 53.7557 74.3459 53.3409 73.9652 52.8182C73.5902 52.2898 73.3061 51.679 73.1129 50.9858C72.9254 50.2869 72.8317 49.5341 72.8317 48.7273C72.8317 47.9602 72.9453 47.2585 73.1726 46.6222C73.3999 45.9858 73.7152 45.429 74.1186 44.9517C74.5277 44.4744 75.005 44.0937 75.5504 43.8097C76.1016 43.5199 76.6953 43.3409 77.3317 43.2727C77.8999 43.2159 78.4169 43.2415 78.8828 43.3494C79.3487 43.4517 79.7322 43.608 80.0334 43.8182C80.3345 44.0227 80.5249 44.25 80.6044 44.5H80.7067V43.5455H82.5135V51.25C82.5135 51.7273 82.647 52.1477 82.9141 52.5114C83.1811 52.875 83.5703 53.0568 84.0817 53.0568C84.6612 53.0568 85.1044 52.858 85.4112 52.4602C85.7237 52.0625 85.9368 51.4489 86.0504 50.6193C86.1697 49.7898 86.2294 48.7273 86.2294 47.4318C86.2294 46.6705 86.1243 45.9205 85.9141 45.1818C85.7095 44.4375 85.397 43.7415 84.9766 43.0938C84.5618 42.446 84.0362 41.875 83.3999 41.3807C82.7635 40.8864 82.0163 40.5 81.1584 40.2216C80.3061 39.9375 79.3374 39.7955 78.2521 39.7955C76.9169 39.7955 75.7209 40.0028 74.6641 40.4176C73.6129 40.8267 72.718 41.4261 71.9794 42.2159C71.2464 43 70.6868 43.9545 70.3004 45.0795C69.9197 46.1989 69.7294 47.4716 69.7294 48.8977C69.7294 50.3466 69.9197 51.6335 70.3004 52.7585C70.6868 53.8835 71.255 54.8324 72.005 55.6051C72.7607 56.3778 73.6953 56.9631 74.8089 57.3608C75.9226 57.7642 77.2067 57.9659 78.6612 57.9659C79.2862 57.9659 79.9027 57.9063 80.5107 57.7869C81.1186 57.6676 81.6555 57.5369 82.1214 57.3949C82.5874 57.2528 82.9226 57.1477 83.1271 57.0795L83.6044 58.6477C83.2521 58.7955 82.7919 58.9432 82.2237 59.0909C81.6612 59.2386 81.0589 59.3608 80.4169 59.4574C79.7805 59.554 79.1726 59.6023 78.593 59.6023ZM77.6044 52.8182C78.3658 52.8182 78.9822 52.6648 79.4538 52.358C79.9254 52.0511 80.2692 51.5881 80.4851 50.9688C80.701 50.3494 80.8089 49.5682 80.8089 48.625C80.8089 47.6705 80.6896 46.9261 80.451 46.392C80.2124 45.858 79.8601 45.483 79.3942 45.267C78.9283 45.0511 78.3544 44.9432 77.6726 44.9432C77.0249 44.9432 76.4709 45.1136 76.0107 45.4545C75.5561 45.7898 75.2067 46.2386 74.9624 46.8011C74.7237 47.358 74.6044 47.9659 74.6044 48.625C74.6044 49.3523 74.701 50.0369 74.8942 50.679C75.0874 51.3153 75.4027 51.8324 75.8402 52.2301C76.2777 52.6222 76.8658 52.8182 77.6044 52.8182ZM99.3479 36.376L97.1159 36.136C97.1159 37.984 96.8039 40.144 96.3479 42.064C95.6999 44.992 93.7799 51.4 91.0439 55.072L93.0119 55.84C95.7239 51.472 97.4279 45.496 98.2439 42.112C98.5799 40.624 98.8919 38.656 99.0599 37.792C99.1559 37.336 99.2519 36.808 99.3479 36.376ZM107.604 39.136L105.852 39.928C107.532 41.92 109.428 46.096 110.124 48.544L111.996 47.656C111.18 45.448 109.092 41.08 107.604 39.136ZM90.7079 41.632L90.8999 43.72C91.5239 43.624 92.5079 43.504 93.0599 43.432C94.5239 43.288 99.0359 42.736 100.644 42.736C102.18 42.736 103.188 43.144 103.188 45.352C103.188 47.944 102.804 51.064 102.036 52.696C101.556 53.728 100.836 53.92 99.9479 53.92C99.2759 53.92 98.0039 53.752 96.9959 53.44L97.3319 55.432C98.0759 55.624 99.2279 55.792 100.14 55.792C101.7 55.792 102.9 55.384 103.644 53.776C104.652 51.784 105.036 47.968 105.036 45.112C105.036 41.872 103.284 41.056 101.148 41.056C99.5159 41.056 94.6439 41.584 92.8439 41.632C92.0759 41.656 91.4519 41.68 90.7079 41.632ZM107.868 35.656L106.572 36.208C107.244 37.12 108.06 38.56 108.54 39.544L109.836 38.968C109.332 37.984 108.468 36.52 107.868 35.656ZM110.508 34.696L109.236 35.248C109.932 36.136 110.724 37.504 111.228 38.56L112.548 37.984C112.068 37.096 111.156 35.584 110.508 34.696ZM119.036 36.7273V58.5455H113.99V56.875H117.126V38.3977H113.99V36.7273H119.036Z" fill="black"/>
<path d="M28 67H406.5" stroke="black"/>
<path d="M143 0V155.5" stroke="black"/>
<path d="M274 67L256.5 169.5H199" stroke="black"/>
<path d="M216.208 162.516C218.92 163.476 221.632 164.628 223.288 165.468L224.8 164.268C223 163.428 220.072 162.276 217.384 161.364L216.208 162.516ZM203.344 159.396V160.932H224.656V159.396H203.344ZM204.04 145.356V146.916H224.056V145.356H204.04ZM212.992 143.34V149.22H214.888V143.34H212.992ZM208.696 152.436H219.664V154.044H208.696V152.436ZM208.696 155.172H219.664V156.804H208.696V155.172ZM208.696 149.7H219.664V151.26H208.696V149.7ZM206.968 148.5V158.004H221.488V148.5H206.968ZM210.28 161.388C208.768 162.42 205.768 163.572 203.344 164.22C203.728 164.556 204.304 165.108 204.568 165.468C206.968 164.82 209.968 163.62 211.888 162.42L210.28 161.388ZM238.24 150.492V152.148H247.312V150.492H238.24ZM238.264 156.3V157.956H247.336V156.3H238.264ZM238.24 162.132V163.788H247.336V162.132H238.24ZM237.352 144.756V165.276H239.08V146.484H246.4V165.204H248.2V144.756H237.352ZM227.224 148.5V150.228H236.296V148.5H227.224ZM231.136 143.34V165.396H232.864V143.34H231.136ZM231.04 149.556C230.296 153.036 228.472 157.164 226.672 159.324C226.984 159.732 227.44 160.452 227.632 160.956C229.528 158.532 231.376 153.852 232.24 149.964L231.04 149.556ZM232.696 152.196L231.784 153.06C232.624 154.044 234.64 156.732 235.312 157.908L236.44 156.42C235.864 155.748 233.392 152.868 232.696 152.196Z" fill="black"/>
<path d="M253.04 93.54L251.072 93.372C251 94.5 250.664 95.94 250.136 97.26C249.32 99.3 247.712 102.084 244.256 105.396L245.912 106.62C246.704 105.636 247.376 104.772 248.072 104.1C249.176 103.116 250.688 102.348 252.224 102.348C253.472 102.348 254.432 102.996 254.456 104.388C254.48 105.636 254.456 108.108 254.36 109.38H256.208C256.184 107.892 256.136 105.132 256.136 103.884C256.136 101.94 254.696 100.836 252.848 100.836C251.792 100.836 250.424 101.172 249.488 101.724C250.448 100.476 251.336 98.868 251.936 97.404C252.56 95.796 252.824 94.476 253.04 93.54ZM244.808 96.132V97.932C246.152 98.028 247.736 98.076 248.768 98.076C251.816 98.076 256.28 97.86 259.64 97.356V95.58C256.256 96.18 252.104 96.372 248.864 96.372C247.76 96.372 246.104 96.3 244.808 96.132ZM263.144 101.916L262.376 100.14C261.704 100.476 261.104 100.74 260.384 101.076C258.8 101.82 256.856 102.564 254.576 103.74C251.72 105.204 248.744 107.004 248.744 109.932C248.744 112.836 251.504 113.58 254.912 113.58C257 113.58 259.664 113.388 261.488 113.172L261.56 111.228C259.448 111.612 256.856 111.828 254.984 111.828C252.512 111.828 250.664 111.54 250.664 109.668C250.664 108.012 252.344 106.716 254.72 105.468C257.048 104.268 259.328 103.356 261.032 102.684C261.68 102.444 262.544 102.108 263.144 101.916Z" fill="black"/>
<path d="M220.328 243.304L220.568 245.08C224.816 244.936 231.32 244.648 237.368 244.336L237.44 242.68C231.2 242.968 224.504 243.208 220.328 243.304ZM220.112 235.888V237.592H240.008V235.888H220.112ZM224.216 231.304V232.984H235.688V231.304H224.216ZM226.688 236.968C225.968 239.08 224.552 242.056 223.424 243.928L225.032 244.456C226.208 242.656 227.6 239.848 228.704 237.544L226.688 236.968ZM232.4 239.512C234.536 241.432 236.912 244.192 237.992 245.992L239.624 245.008C238.496 243.184 236.144 240.592 233.936 238.696L232.4 239.512ZM229.904 225.616C232.136 228.736 236.36 231.952 240.104 233.752C240.416 233.224 240.848 232.576 241.28 232.144C237.464 230.584 233.264 227.44 230.72 223.888H228.872C227 226.96 222.992 230.44 218.864 232.408C219.248 232.792 219.704 233.44 219.92 233.872C224 231.832 227.936 228.544 229.904 225.616ZM245.84 234.424L246.656 236.416C248.192 235.792 253.448 233.608 256.4 233.608C258.872 233.608 260.48 235.12 260.48 237.16C260.48 241.072 255.92 242.56 250.712 242.704L251.504 244.552C257.96 244.168 262.424 241.816 262.424 237.184C262.424 233.92 259.952 231.88 256.544 231.88C253.736 231.88 249.776 233.32 248.072 233.848C247.328 234.088 246.536 234.304 245.84 234.424ZM266.821 228.064L267.037 230.176C269.653 229.624 275.749 229.024 278.341 228.76C276.133 230.056 273.853 233.104 273.853 236.848C273.853 242.224 278.893 244.576 283.357 244.744L284.029 242.776C280.141 242.608 275.749 241.12 275.749 236.44C275.749 233.608 277.837 229.936 281.269 228.832C282.493 228.496 284.581 228.448 285.973 228.472L285.949 226.552C284.341 226.6 282.109 226.744 279.493 226.96C275.053 227.344 270.541 227.776 268.981 227.944C268.501 227.992 267.733 228.04 266.821 228.064Z" fill="black"/>
<path d="M60.8295 247.545V225.727H65.875V227.398H62.7386V245.875H65.875V247.545H60.8295ZM78.593 248.602C76.8544 248.602 75.3175 248.364 73.9822 247.886C72.647 247.415 71.5249 246.719 70.6158 245.798C69.7067 244.878 69.0192 243.75 68.5533 242.415C68.0874 241.08 67.8544 239.551 67.8544 237.83C67.8544 236.165 68.0902 234.676 68.5618 233.364C69.0391 232.051 69.7294 230.938 70.6328 230.023C71.5419 229.102 72.6442 228.401 73.9396 227.918C75.2408 227.435 76.7124 227.193 78.3544 227.193C79.951 227.193 81.3487 227.455 82.5476 227.977C83.7521 228.494 84.7578 229.196 85.5646 230.082C86.3771 230.963 86.9851 231.955 87.3885 233.057C87.7976 234.159 88.0021 235.295 88.0021 236.466C88.0021 237.29 87.9624 238.125 87.8828 238.972C87.8033 239.818 87.6357 240.597 87.38 241.307C87.1243 242.011 86.7294 242.58 86.1953 243.011C85.6669 243.443 84.951 243.659 84.0476 243.659C83.6499 243.659 83.2124 243.597 82.7351 243.472C82.2578 243.347 81.8345 243.139 81.4652 242.849C81.0959 242.56 80.8771 242.17 80.8089 241.682H80.7067C80.5703 242.011 80.3601 242.324 80.076 242.619C79.7976 242.915 79.4311 243.151 78.9766 243.327C78.5277 243.503 77.9794 243.58 77.3317 243.557C76.593 243.528 75.9425 243.364 75.38 243.062C74.8175 242.756 74.3459 242.341 73.9652 241.818C73.5902 241.29 73.3061 240.679 73.1129 239.986C72.9254 239.287 72.8317 238.534 72.8317 237.727C72.8317 236.96 72.9453 236.259 73.1726 235.622C73.3999 234.986 73.7152 234.429 74.1186 233.952C74.5277 233.474 75.005 233.094 75.5504 232.81C76.1016 232.52 76.6953 232.341 77.3317 232.273C77.8999 232.216 78.4169 232.241 78.8828 232.349C79.3487 232.452 79.7322 232.608 80.0334 232.818C80.3345 233.023 80.5249 233.25 80.6044 233.5H80.7067V232.545H82.5135V240.25C82.5135 240.727 82.647 241.148 82.9141 241.511C83.1811 241.875 83.5703 242.057 84.0817 242.057C84.6612 242.057 85.1044 241.858 85.4112 241.46C85.7237 241.062 85.9368 240.449 86.0504 239.619C86.1697 238.79 86.2294 237.727 86.2294 236.432C86.2294 235.67 86.1243 234.92 85.9141 234.182C85.7095 233.437 85.397 232.741 84.9766 232.094C84.5618 231.446 84.0362 230.875 83.3999 230.381C82.7635 229.886 82.0163 229.5 81.1584 229.222C80.3061 228.937 79.3374 228.795 78.2521 228.795C76.9169 228.795 75.7209 229.003 74.6641 229.418C73.6129 229.827 72.718 230.426 71.9794 231.216C71.2464 232 70.6868 232.955 70.3004 234.08C69.9197 235.199 69.7294 236.472 69.7294 237.898C69.7294 239.347 69.9197 240.634 70.3004 241.759C70.6868 242.884 71.255 243.832 72.005 244.605C72.7607 245.378 73.6953 245.963 74.8089 246.361C75.9226 246.764 77.2067 246.966 78.6612 246.966C79.2862 246.966 79.9027 246.906 80.5107 246.787C81.1186 246.668 81.6555 246.537 82.1214 246.395C82.5874 246.253 82.9226 246.148 83.1271 246.08L83.6044 247.648C83.2521 247.795 82.7919 247.943 82.2237 248.091C81.6612 248.239 81.0589 248.361 80.4169 248.457C79.7805 248.554 79.1726 248.602 78.593 248.602ZM77.6044 241.818C78.3658 241.818 78.9822 241.665 79.4538 241.358C79.9254 241.051 80.2692 240.588 80.4851 239.969C80.701 239.349 80.8089 238.568 80.8089 237.625C80.8089 236.67 80.6896 235.926 80.451 235.392C80.2124 234.858 79.8601 234.483 79.3942 234.267C78.9283 234.051 78.3544 233.943 77.6726 233.943C77.0249 233.943 76.4709 234.114 76.0107 234.455C75.5561 234.79 75.2067 235.239 74.9624 235.801C74.7237 236.358 74.6044 236.966 74.6044 237.625C74.6044 238.352 74.701 239.037 74.8942 239.679C75.0874 240.315 75.4027 240.832 75.8402 241.23C76.2777 241.622 76.8658 241.818 77.6044 241.818ZM99.3479 225.376L97.1159 225.136C97.1159 226.984 96.8039 229.144 96.3479 231.064C95.6999 233.992 93.7799 240.4 91.0439 244.072L93.0119 244.84C95.7239 240.472 97.4279 234.496 98.2439 231.112C98.5799 229.624 98.8919 227.656 99.0599 226.792C99.1559 226.336 99.2519 225.808 99.3479 225.376ZM107.604 228.136L105.852 228.928C107.532 230.92 109.428 235.096 110.124 237.544L111.996 236.656C111.18 234.448 109.092 230.08 107.604 228.136ZM90.7079 230.632L90.8999 232.72C91.5239 232.624 92.5079 232.504 93.0599 232.432C94.5239 232.288 99.0359 231.736 100.644 231.736C102.18 231.736 103.188 232.144 103.188 234.352C103.188 236.944 102.804 240.064 102.036 241.696C101.556 242.728 100.836 242.92 99.9479 242.92C99.2759 242.92 98.0039 242.752 96.9959 242.44L97.3319 244.432C98.0759 244.624 99.2279 244.792 100.14 244.792C101.7 244.792 102.9 244.384 103.644 242.776C104.652 240.784 105.036 236.968 105.036 234.112C105.036 230.872 103.284 230.056 101.148 230.056C99.5159 230.056 94.6439 230.584 92.8439 230.632C92.0759 230.656 91.4519 230.68 90.7079 230.632ZM107.868 224.656L106.572 225.208C107.244 226.12 108.06 227.56 108.54 228.544L109.836 227.968C109.332 226.984 108.468 225.52 107.868 224.656ZM110.508 223.696L109.236 224.248C109.932 225.136 110.724 226.504 111.228 227.56L112.548 226.984C112.068 226.096 111.156 224.584 110.508 223.696ZM119.036 225.727V247.545H113.99V245.875H117.126V227.398H113.99V225.727H119.036Z" fill="black"/>
<path d="M47 256H294" stroke="black"/>
<path d="M143 211L143 302" stroke="black"/>
<path d="M142.5 213L143 157" stroke="black" stroke-dasharray="4 4"/>
<path d="M206 257.5L188.5 360H131" stroke="black"/>
<path d="M151.264 339.12C149.944 341.592 147.808 344.064 145.744 345.648C146.056 346.08 146.584 347.016 146.752 347.4C148.96 345.528 151.336 342.6 152.872 339.744L151.264 339.12ZM150.808 333.912C149.824 335.592 147.832 337.608 146.008 338.856C146.296 339.192 146.752 339.912 146.968 340.32C149.008 338.88 151.192 336.648 152.536 334.56L150.808 333.912ZM149.104 343.608V355.92H150.856V341.976L150.808 341.928L149.104 343.608ZM154.984 337.392V339.072H166.12V337.392H154.984ZM165.592 337.392V337.656C165.256 339.144 164.752 340.992 164.32 342.12L165.904 342.504C166.408 341.28 167.008 339.336 167.464 337.632L166.168 337.32L165.88 337.392H165.592ZM159.568 333.864V344.184H161.32V333.864H159.568ZM154.024 337.392V343.704C154.024 346.992 153.808 351.48 151.48 354.648C151.84 354.84 152.56 355.44 152.824 355.776C155.368 352.392 155.752 347.28 155.752 343.728V337.392H154.024ZM155.152 343.272V344.88H164.896V343.272H155.152ZM164.584 343.272V343.584C163.168 349.224 159.04 352.92 154.384 354.456C154.744 354.792 155.2 355.488 155.392 355.896C160.432 354.048 164.704 350.232 166.36 343.632L165.232 343.2L164.896 343.272H164.584ZM157.456 344.208L155.92 344.616C157.768 350.16 161.32 354.144 166.744 355.872C166.984 355.392 167.512 354.696 167.896 354.336C162.64 352.872 159.112 349.176 157.456 344.208Z" fill="black"/>
<path d="M184.92 286.8L184.944 288.744C187.56 289.032 192.216 289.032 194.784 288.744V286.8C192.408 287.16 187.536 287.256 184.92 286.8ZM185.856 296.592L184.128 296.424C183.864 297.576 183.744 298.44 183.744 299.232C183.744 301.488 185.544 302.832 189.552 302.832C192.048 302.832 194.064 302.64 195.552 302.328L195.504 300.312C193.584 300.768 191.712 300.96 189.576 300.96C186.288 300.96 185.52 299.88 185.52 298.776C185.52 298.128 185.64 297.456 185.856 296.592ZM180.36 284.952L178.224 284.784C178.2 285.312 178.128 285.912 178.056 286.464C177.768 288.456 176.976 292.56 176.976 296.088C176.976 299.352 177.384 302.112 177.864 303.816L179.568 303.696C179.544 303.432 179.52 303.096 179.496 302.856C179.496 302.568 179.544 302.112 179.616 301.776C179.832 300.624 180.72 298.104 181.32 296.4L180.312 295.608C179.904 296.592 179.352 298.032 178.944 299.112C178.8 297.936 178.728 296.928 178.728 295.776C178.728 293.064 179.472 288.792 179.928 286.56C180.024 286.128 180.216 285.36 180.36 284.952Z" fill="black"/>
<path d="M40 44.5H1V240H48.5" stroke="black" stroke-dasharray="4 4"/>
</svg>
