<svg width="445" height="274" viewBox="0 0 445 274" fill="none" xmlns="http://www.w3.org/2000/svg">
<path d="M32.8295 58.5455V36.7273H37.875V38.3977H34.7386V56.875H37.875V58.5455H32.8295ZM50.593 59.6023C48.8544 59.6023 47.3175 59.3636 45.9822 58.8864C44.647 58.4148 43.5249 57.7188 42.6158 56.7983C41.7067 55.8778 41.0192 54.75 40.5533 53.4148C40.0874 52.0795 39.8544 50.5511 39.8544 48.8295C39.8544 47.1648 40.0902 45.6761 40.5618 44.3636C41.0391 43.0511 41.7294 41.9375 42.6328 41.0227C43.5419 40.1023 44.6442 39.4006 45.9396 38.9176C47.2408 38.4347 48.7124 38.1932 50.3544 38.1932C51.951 38.1932 53.3487 38.4545 54.5476 38.9773C55.7521 39.4943 56.7578 40.196 57.5646 41.0824C58.3771 41.9631 58.9851 42.9545 59.3885 44.0568C59.7976 45.1591 60.0021 46.2955 60.0021 47.4659C60.0021 48.2898 59.9624 49.125 59.8828 49.9716C59.8033 50.8182 59.6357 51.5966 59.38 52.3068C59.1243 53.0114 58.7294 53.5795 58.1953 54.0114C57.6669 54.4432 56.951 54.6591 56.0476 54.6591C55.6499 54.6591 55.2124 54.5966 54.7351 54.4716C54.2578 54.3466 53.8345 54.1392 53.4652 53.8494C53.0959 53.5597 52.8771 53.1705 52.8089 52.6818H52.7067C52.5703 53.0114 52.3601 53.3239 52.076 53.6193C51.7976 53.9148 51.4311 54.1506 50.9766 54.3267C50.5277 54.5028 49.9794 54.5795 49.3317 54.5568C48.593 54.5284 47.9425 54.3636 47.38 54.0625C46.8175 53.7557 46.3459 53.3409 45.9652 52.8182C45.5902 52.2898 45.3061 51.679 45.1129 50.9858C44.9254 50.2869 44.8317 49.5341 44.8317 48.7273C44.8317 47.9602 44.9453 47.2585 45.1726 46.6222C45.3999 45.9858 45.7152 45.429 46.1186 44.9517C46.5277 44.4744 47.005 44.0937 47.5504 43.8097C48.1016 43.5199 48.6953 43.3409 49.3317 43.2727C49.8999 43.2159 50.4169 43.2415 50.8828 43.3494C51.3487 43.4517 51.7322 43.608 52.0334 43.8182C52.3345 44.0227 52.5249 44.25 52.6044 44.5H52.7067V43.5455H54.5135V51.25C54.5135 51.7273 54.647 52.1477 54.9141 52.5114C55.1811 52.875 55.5703 53.0568 56.0817 53.0568C56.6612 53.0568 57.1044 52.858 57.4112 52.4602C57.7237 52.0625 57.9368 51.4489 58.0504 50.6193C58.1697 49.7898 58.2294 48.7273 58.2294 47.4318C58.2294 46.6705 58.1243 45.9205 57.9141 45.1818C57.7095 44.4375 57.397 43.7415 56.9766 43.0938C56.5618 42.446 56.0362 41.875 55.3999 41.3807C54.7635 40.8864 54.0163 40.5 53.1584 40.2216C52.3061 39.9375 51.3374 39.7955 50.2521 39.7955C48.9169 39.7955 47.7209 40.0028 46.6641 40.4176C45.6129 40.8267 44.718 41.4261 43.9794 42.2159C43.2464 43 42.6868 43.9545 42.3004 45.0795C41.9197 46.1989 41.7294 47.4716 41.7294 48.8977C41.7294 50.3466 41.9197 51.6335 42.3004 52.7585C42.6868 53.8835 43.255 54.8324 44.005 55.6051C44.7607 56.3778 45.6953 56.9631 46.8089 57.3608C47.9226 57.7642 49.2067 57.9659 50.6612 57.9659C51.2862 57.9659 51.9027 57.9063 52.5107 57.7869C53.1186 57.6676 53.6555 57.5369 54.1214 57.3949C54.5874 57.2528 54.9226 57.1477 55.1271 57.0795L55.6044 58.6477C55.2521 58.7955 54.7919 58.9432 54.2237 59.0909C53.6612 59.2386 53.0589 59.3608 52.4169 59.4574C51.7805 59.554 51.1726 59.6023 50.593 59.6023ZM49.6044 52.8182C50.3658 52.8182 50.9822 52.6648 51.4538 52.358C51.9254 52.0511 52.2692 51.5881 52.4851 50.9688C52.701 50.3494 52.8089 49.5682 52.8089 48.625C52.8089 47.6705 52.6896 46.9261 52.451 46.392C52.2124 45.858 51.8601 45.483 51.3942 45.267C50.9283 45.0511 50.3544 44.9432 49.6726 44.9432C49.0249 44.9432 48.4709 45.1136 48.0107 45.4545C47.5561 45.7898 47.2067 46.2386 46.9624 46.8011C46.7237 47.358 46.6044 47.9659 46.6044 48.625C46.6044 49.3523 46.701 50.0369 46.8942 50.679C47.0874 51.3153 47.4027 51.8324 47.8402 52.2301C48.2777 52.6222 48.8658 52.8182 49.6044 52.8182ZM71.3479 36.376L69.1159 36.136C69.1159 37.984 68.8039 40.144 68.3479 42.064C67.6999 44.992 65.7799 51.4 63.0439 55.072L65.0119 55.84C67.7239 51.472 69.4279 45.496 70.2439 42.112C70.5799 40.624 70.8919 38.656 71.0599 37.792C71.1559 37.336 71.2519 36.808 71.3479 36.376ZM79.6039 39.136L77.8519 39.928C79.5319 41.92 81.4279 46.096 82.1239 48.544L83.9959 47.656C83.1799 45.448 81.0919 41.08 79.6039 39.136ZM62.7079 41.632L62.8999 43.72C63.5239 43.624 64.5079 43.504 65.0599 43.432C66.5239 43.288 71.0359 42.736 72.6439 42.736C74.1799 42.736 75.1879 43.144 75.1879 45.352C75.1879 47.944 74.8039 51.064 74.0359 52.696C73.5559 53.728 72.8359 53.92 71.9479 53.92C71.2759 53.92 70.0039 53.752 68.9959 53.44L69.3319 55.432C70.0759 55.624 71.2279 55.792 72.1399 55.792C73.6999 55.792 74.8999 55.384 75.6439 53.776C76.6519 51.784 77.0359 47.968 77.0359 45.112C77.0359 41.872 75.2839 41.056 73.1479 41.056C71.5159 41.056 66.6439 41.584 64.8439 41.632C64.0759 41.656 63.4519 41.68 62.7079 41.632ZM79.8679 35.656L78.5719 36.208C79.2439 37.12 80.0599 38.56 80.5399 39.544L81.8359 38.968C81.3319 37.984 80.4679 36.52 79.8679 35.656ZM82.5079 34.696L81.2359 35.248C81.9319 36.136 82.7239 37.504 83.2279 38.56L84.5479 37.984C84.0679 37.096 83.1559 35.584 82.5079 34.696ZM91.0355 36.7273V58.5455H85.9901V56.875H89.1264V38.3977H85.9901V36.7273H91.0355Z" fill="black"/>
<path d="M361.504 46.456V47.848H370.888V46.456H361.504ZM361.504 50.392V51.808H370.888V50.392H361.504ZM361.528 54.352V55.888H372.016V54.352H361.528ZM358.792 37.312V41.416H360.352V38.872H370.288V41.416H371.896V37.312H358.792ZM365.416 43.6V55.168H367.096V43.6H365.416ZM362.152 42.448H362.008L360.448 44.08V56.92H362.152V44.008H371.296V42.448H362.152ZM364.408 34.84C363.232 39.256 361.024 42.976 357.856 45.28C358.24 45.592 358.888 46.264 359.152 46.6C362.392 44.032 364.768 40.048 366.136 35.176L364.408 34.84ZM366.904 39.592C366.616 40.648 365.992 42.16 365.488 43.12L366.88 43.528C367.384 42.616 368.032 41.272 368.608 40.024L366.904 39.592ZM350.248 36.472V38.128H358.72V36.472H350.248ZM352.672 43.48V45.088H356.512V52.408H352.672V53.992H358.096V43.48H352.672ZM353.08 37.264C352.504 41.776 351.472 46.024 349.552 48.736C349.888 49.144 350.392 50.032 350.584 50.44C352.816 47.296 354.064 42.568 354.808 37.528L353.08 37.264ZM351.928 43.48V55.864H353.44V43.48H351.928ZM383.488 36.28L381.28 36.064C381.28 37.912 380.944 40.072 380.512 41.968C379.864 44.92 377.944 51.328 375.208 54.976L377.152 55.768C379.864 51.376 381.592 45.4 382.408 42.04C382.72 40.552 383.056 38.584 383.2 37.72C383.296 37.24 383.392 36.736 383.488 36.28ZM391.768 38.848L390.016 39.64C391.696 41.608 393.568 45.856 394.288 48.328L396.136 47.44C395.344 45.208 393.256 40.792 391.768 38.848ZM374.848 41.56L375.064 43.624C375.664 43.528 376.672 43.408 377.224 43.336C378.688 43.192 383.176 42.664 384.784 42.664C386.32 42.664 387.328 43.072 387.328 45.256C387.328 47.848 386.968 50.992 386.2 52.6C385.696 53.656 384.976 53.848 384.088 53.848C383.416 53.848 382.168 53.656 381.16 53.344L381.472 55.36C382.24 55.528 383.368 55.696 384.304 55.696C385.84 55.696 387.04 55.312 387.808 53.704C388.792 51.712 389.176 47.896 389.176 45.04C389.176 41.776 387.424 40.96 385.288 40.96C383.656 40.96 378.784 41.512 377.008 41.56C376.24 41.584 375.616 41.584 374.848 41.56ZM413.056 36.424L410.968 36.232C410.992 36.784 410.92 37.576 410.824 38.056C410.224 41.56 408.616 45.952 407.032 48.4C405.808 50.344 404.128 52.384 402.568 52.384C401.488 52.384 400.792 51.424 400.792 49.84C400.792 47.68 402.088 45.112 404.128 43.648C406 42.256 408.088 41.464 410.416 41.464C414.28 41.464 416.824 44.056 416.824 47.584C416.824 51.304 414.064 53.92 409.048 54.376L410.152 56.08C415.312 55.36 418.744 52.456 418.744 47.656C418.744 42.976 415.336 39.808 410.632 39.808C408.16 39.808 405.808 40.432 403.432 42.04C400.888 43.744 399.04 46.936 399.04 49.96C399.04 52.768 400.576 54.28 402.4 54.28C404.584 54.28 406.336 52.48 408.16 49.936C410.08 47.296 411.76 42.28 412.624 38.32C412.744 37.864 412.888 37.024 413.056 36.424ZM403.216 37.528L401.224 38.152C401.536 38.776 401.8 39.568 402.04 40.336C402.952 43.336 404.344 47.008 405.52 48.88C406.432 50.44 407.32 51.616 408.28 52.672L409.792 51.448C408.64 50.344 407.512 48.76 406.696 47.368C405.688 45.688 404.344 41.992 403.72 39.64C403.528 38.968 403.336 38.176 403.216 37.528ZM426.712 37.336L426.76 39.304C427.288 39.232 427.816 39.208 428.368 39.16C429.616 39.088 434.416 38.896 435.688 38.824C434.488 39.904 431.464 42.424 430.12 43.528C428.752 44.704 425.656 47.296 423.664 48.928L425.056 50.32C428.08 47.224 430.24 45.544 434.224 45.544C437.368 45.544 439.624 47.296 439.624 49.672C439.624 52.672 437.056 54.352 432.976 54.352C431.08 54.352 429.76 53.656 429.76 52.48C429.76 51.64 430.6 50.968 431.704 50.968C433.624 50.968 434.8 52.432 434.944 54.472L436.672 54.184C436.504 51.76 434.896 49.504 431.704 49.504C429.496 49.504 428.008 50.992 428.008 52.624C428.008 54.64 430 56.056 433.264 56.056C438.352 56.056 441.544 53.536 441.544 49.672C441.544 46.432 438.688 44.056 434.704 44.056C433.624 44.056 432.472 44.176 431.368 44.536C433.24 43 436.504 40.192 437.68 39.28C438.136 38.92 438.616 38.608 439.048 38.32L437.944 36.904C437.68 37 437.344 37.048 436.624 37.12C435.352 37.24 429.664 37.408 428.392 37.408C427.912 37.408 427.24 37.384 426.712 37.336Z" fill="black"/>
<path d="M0 67H445" stroke="black"/>
<path d="M115 0V112" stroke="black"/>
<path d="M344 67L326.5 169.5H269" stroke="black"/>
<path d="M286.208 162.516C288.92 163.476 291.632 164.628 293.288 165.468L294.8 164.268C293 163.428 290.072 162.276 287.384 161.364L286.208 162.516ZM273.344 159.396V160.932H294.656V159.396H273.344ZM274.04 145.356V146.916H294.056V145.356H274.04ZM282.992 143.34V149.22H284.888V143.34H282.992ZM278.696 152.436H289.664V154.044H278.696V152.436ZM278.696 155.172H289.664V156.804H278.696V155.172ZM278.696 149.7H289.664V151.26H278.696V149.7ZM276.968 148.5V158.004H291.488V148.5H276.968ZM280.28 161.388C278.768 162.42 275.768 163.572 273.344 164.22C273.728 164.556 274.304 165.108 274.568 165.468C276.968 164.82 279.968 163.62 281.888 162.42L280.28 161.388ZM308.24 150.492V152.148H317.312V150.492H308.24ZM308.264 156.3V157.956H317.336V156.3H308.264ZM308.24 162.132V163.788H317.336V162.132H308.24ZM307.352 144.756V165.276H309.08V146.484H316.4V165.204H318.2V144.756H307.352ZM297.224 148.5V150.228H306.296V148.5H297.224ZM301.136 143.34V165.396H302.864V143.34H301.136ZM301.04 149.556C300.296 153.036 298.472 157.164 296.672 159.324C296.984 159.732 297.44 160.452 297.632 160.956C299.528 158.532 301.376 153.852 302.24 149.964L301.04 149.556ZM302.696 152.196L301.784 153.06C302.624 154.044 304.64 156.732 305.312 157.908L306.44 156.42C305.864 155.748 303.392 152.868 302.696 152.196Z" fill="black"/>
<path d="M323.04 93.54L321.072 93.372C321 94.5 320.664 95.94 320.136 97.26C319.32 99.3 317.712 102.084 314.256 105.396L315.912 106.62C316.704 105.636 317.376 104.772 318.072 104.1C319.176 103.116 320.688 102.348 322.224 102.348C323.472 102.348 324.432 102.996 324.456 104.388C324.48 105.636 324.456 108.108 324.36 109.38H326.208C326.184 107.892 326.136 105.132 326.136 103.884C326.136 101.94 324.696 100.836 322.848 100.836C321.792 100.836 320.424 101.172 319.488 101.724C320.448 100.476 321.336 98.868 321.936 97.404C322.56 95.796 322.824 94.476 323.04 93.54ZM314.808 96.132V97.932C316.152 98.028 317.736 98.076 318.768 98.076C321.816 98.076 326.28 97.86 329.64 97.356V95.58C326.256 96.18 322.104 96.372 318.864 96.372C317.76 96.372 316.104 96.3 314.808 96.132ZM333.144 101.916L332.376 100.14C331.704 100.476 331.104 100.74 330.384 101.076C328.8 101.82 326.856 102.564 324.576 103.74C321.72 105.204 318.744 107.004 318.744 109.932C318.744 112.836 321.504 113.58 324.912 113.58C327 113.58 329.664 113.388 331.488 113.172L331.56 111.228C329.448 111.612 326.856 111.828 324.984 111.828C322.512 111.828 320.664 111.54 320.664 109.668C320.664 108.012 322.344 106.716 324.72 105.468C327.048 104.268 329.328 103.356 331.032 102.684C331.68 102.444 332.544 102.108 333.144 101.916Z" fill="black"/>
<path d="M236 67L218.5 169.5H143" stroke="black"/>
<path d="M150.328 162.804L150.568 164.58C154.816 164.436 161.32 164.148 167.368 163.836L167.44 162.18C161.2 162.468 154.504 162.708 150.328 162.804ZM150.112 155.388V157.092H170.008V155.388H150.112ZM154.216 150.804V152.484H165.688V150.804H154.216ZM156.688 156.468C155.968 158.58 154.552 161.556 153.424 163.428L155.032 163.956C156.208 162.156 157.6 159.348 158.704 157.044L156.688 156.468ZM162.4 159.012C164.536 160.932 166.912 163.692 167.992 165.492L169.624 164.508C168.496 162.684 166.144 160.092 163.936 158.196L162.4 159.012ZM159.904 145.116C162.136 148.236 166.36 151.452 170.104 153.252C170.416 152.724 170.848 152.076 171.28 151.644C167.464 150.084 163.264 146.94 160.72 143.388H158.872C157 146.46 152.992 149.94 148.864 151.908C149.248 152.292 149.704 152.94 149.92 153.372C154 151.332 157.936 148.044 159.904 145.116ZM175.84 153.924L176.656 155.916C178.192 155.292 183.448 153.108 186.4 153.108C188.872 153.108 190.48 154.62 190.48 156.66C190.48 160.572 185.92 162.06 180.712 162.204L181.504 164.052C187.96 163.668 192.424 161.316 192.424 156.684C192.424 153.42 189.952 151.38 186.544 151.38C183.736 151.38 179.776 152.82 178.072 153.348C177.328 153.588 176.536 153.804 175.84 153.924ZM196.821 147.564L197.037 149.676C199.653 149.124 205.749 148.524 208.341 148.26C206.133 149.556 203.853 152.604 203.853 156.348C203.853 161.724 208.893 164.076 213.357 164.244L214.029 162.276C210.141 162.108 205.749 160.62 205.749 155.94C205.749 153.108 207.837 149.436 211.269 148.332C212.493 147.996 214.581 147.948 215.973 147.972L215.949 146.052C214.341 146.1 212.109 146.244 209.493 146.46C205.053 146.844 200.541 147.276 198.981 147.444C198.501 147.492 197.733 147.54 196.821 147.564Z" fill="black"/>
<path d="M198 170.5L180.5 273H123" stroke="black"/>
<path d="M143.264 252.12C141.944 254.592 139.808 257.064 137.744 258.648C138.056 259.08 138.584 260.016 138.752 260.4C140.96 258.528 143.336 255.6 144.872 252.744L143.264 252.12ZM142.808 246.912C141.824 248.592 139.832 250.608 138.008 251.856C138.296 252.192 138.752 252.912 138.968 253.32C141.008 251.88 143.192 249.648 144.536 247.56L142.808 246.912ZM141.104 256.608V268.92H142.856V254.976L142.808 254.928L141.104 256.608ZM146.984 250.392V252.072H158.12V250.392H146.984ZM157.592 250.392V250.656C157.256 252.144 156.752 253.992 156.32 255.12L157.904 255.504C158.408 254.28 159.008 252.336 159.464 250.632L158.168 250.32L157.88 250.392H157.592ZM151.568 246.864V257.184H153.32V246.864H151.568ZM146.024 250.392V256.704C146.024 259.992 145.808 264.48 143.48 267.648C143.84 267.84 144.56 268.44 144.824 268.776C147.368 265.392 147.752 260.28 147.752 256.728V250.392H146.024ZM147.152 256.272V257.88H156.896V256.272H147.152ZM156.584 256.272V256.584C155.168 262.224 151.04 265.92 146.384 267.456C146.744 267.792 147.2 268.488 147.392 268.896C152.432 267.048 156.704 263.232 158.36 256.632L157.232 256.2L156.896 256.272H156.584ZM149.456 257.208L147.92 257.616C149.768 263.16 153.32 267.144 158.744 268.872C158.984 268.392 159.512 267.696 159.896 267.336C154.64 265.872 151.112 262.176 149.456 257.208Z" fill="black"/>
<path d="M176.92 199.8L176.944 201.744C179.56 202.032 184.216 202.032 186.784 201.744V199.8C184.408 200.16 179.536 200.256 176.92 199.8ZM177.856 209.592L176.128 209.424C175.864 210.576 175.744 211.44 175.744 212.232C175.744 214.488 177.544 215.832 181.552 215.832C184.048 215.832 186.064 215.64 187.552 215.328L187.504 213.312C185.584 213.768 183.712 213.96 181.576 213.96C178.288 213.96 177.52 212.88 177.52 211.776C177.52 211.128 177.64 210.456 177.856 209.592ZM172.36 197.952L170.224 197.784C170.2 198.312 170.128 198.912 170.056 199.464C169.768 201.456 168.976 205.56 168.976 209.088C168.976 212.352 169.384 215.112 169.864 216.816L171.568 216.696C171.544 216.432 171.52 216.096 171.496 215.856C171.496 215.568 171.544 215.112 171.616 214.776C171.832 213.624 172.72 211.104 173.32 209.4L172.312 208.608C171.904 209.592 171.352 211.032 170.944 212.112C170.8 210.936 170.728 209.928 170.728 208.776C170.728 206.064 171.472 201.792 171.928 199.56C172.024 199.128 172.216 198.36 172.36 197.952Z" fill="black"/>
</svg>
