<svg width="385" height="156" viewBox="0 0 385 156" fill="none" xmlns="http://www.w3.org/2000/svg">
<path d="M265.416 35.5V36.844H275.328V35.5H265.416ZM278.4 35.596V37.036H283.152V35.596H278.4ZM276.288 48.1V49.612H284.64V48.1H276.288ZM265.848 38.284V39.604H274.896V38.284H265.848ZM264.96 41.14V42.508H275.616V41.14H264.96ZM275.232 43.876V45.412H287.232V43.876H275.232ZM267.264 46.972V48.268H273.528V46.972H267.264ZM267.264 49.996V51.292H273.528V49.996H267.264ZM269.496 33.34V41.956H271.176V33.34H269.496ZM266.4 43.9V55.444H267.984V45.292H273.408V43.9H266.4ZM272.784 43.9V53.596C272.784 53.884 272.712 53.956 272.424 53.98C272.16 53.98 271.272 53.98 270.24 53.956C270.456 54.364 270.696 55.012 270.768 55.42C272.232 55.42 273.096 55.42 273.672 55.132C274.272 54.892 274.416 54.436 274.416 53.62V43.9H272.784ZM276.408 39.772V41.284H284.088V50.572H285.744V39.772H276.408ZM279.6 40.516V53.332C279.6 53.668 279.504 53.764 279.168 53.788C278.832 53.788 277.776 53.788 276.528 53.74C276.792 54.244 277.032 54.964 277.128 55.42C278.76 55.42 279.792 55.372 280.44 55.084C281.088 54.82 281.304 54.316 281.304 53.356V40.516H279.6ZM278.856 33.34C277.992 35.692 276.528 38.02 274.896 39.508C275.28 39.748 275.928 40.3 276.216 40.588C277.872 38.908 279.48 36.34 280.44 33.724L278.856 33.34ZM282.72 35.596V35.908C282.192 37.204 281.04 39.1 280.056 40.228C280.416 40.42 280.944 40.756 281.256 40.996C282.312 39.772 283.656 37.852 284.448 36.244L283.344 35.524L283.08 35.596H282.72ZM298.488 34.78L296.28 34.564C296.28 36.412 295.944 38.572 295.512 40.468C294.864 43.42 292.944 49.828 290.208 53.476L292.152 54.268C294.864 49.876 296.592 43.9 297.408 40.54C297.72 39.052 298.056 37.084 298.2 36.22C298.296 35.74 298.392 35.236 298.488 34.78ZM306.768 37.348L305.016 38.14C306.696 40.108 308.568 44.356 309.288 46.828L311.136 45.94C310.344 43.708 308.256 39.292 306.768 37.348ZM289.848 40.06L290.064 42.124C290.664 42.028 291.672 41.908 292.224 41.836C293.688 41.692 298.176 41.164 299.784 41.164C301.32 41.164 302.328 41.572 302.328 43.756C302.328 46.348 301.968 49.492 301.2 51.1C300.696 52.156 299.976 52.348 299.088 52.348C298.416 52.348 297.168 52.156 296.16 51.844L296.472 53.86C297.24 54.028 298.368 54.196 299.304 54.196C300.84 54.196 302.04 53.812 302.808 52.204C303.792 50.212 304.176 46.396 304.176 43.54C304.176 40.276 302.424 39.46 300.288 39.46C298.656 39.46 293.784 40.012 292.008 40.06C291.24 40.084 290.616 40.084 289.848 40.06ZM313.872 37.708L314.088 39.82C316.68 39.268 322.8 38.668 325.368 38.404C323.184 39.7 320.904 42.772 320.904 46.492C320.904 51.868 325.944 54.22 330.384 54.388L331.08 52.42C327.192 52.276 322.8 50.764 322.8 46.084C322.8 43.252 324.888 39.58 328.32 38.476C329.544 38.14 331.632 38.092 333.024 38.116L333 36.196C331.392 36.244 329.16 36.388 326.52 36.604C322.104 36.988 317.568 37.42 316.032 37.588C315.552 37.636 314.784 37.684 313.872 37.708ZM329.544 41.044L328.344 41.572C329.064 42.58 329.736 43.804 330.288 44.956L331.536 44.404C331.008 43.324 330.096 41.836 329.544 41.044ZM332.16 40.036L330.984 40.588C331.728 41.596 332.448 42.796 333.024 43.948L334.248 43.348C333.696 42.292 332.76 40.828 332.16 40.036ZM351.048 34.492H348.84C348.888 34.708 348.96 35.38 349.008 36.028C349.08 37.348 349.104 42.124 349.104 43.18L350.928 44.116C350.904 42.196 350.856 37.564 350.928 36.004C350.928 35.716 351 34.78 351.048 34.492ZM338.28 37.852L338.328 39.7C341.952 39.436 347.088 39.268 351.216 39.268C354.744 39.268 356.904 39.316 358.248 39.388L358.272 37.612C357.144 37.588 354.168 37.588 351.24 37.588C347.544 37.588 341.544 37.804 338.28 37.852ZM350.88 44.812L349.56 44.14C349.944 46.708 348.984 47.956 347.496 47.956C346.176 47.956 345.048 47.092 345.048 45.58C345.048 44.02 346.224 43.036 347.496 43.036C348.792 43.036 349.848 43.948 349.848 46.108C349.848 50.068 347.304 52.204 342.936 53.236L344.544 54.796C350.112 53.14 351.696 49.54 351.696 46.276C351.696 43.516 350.28 41.452 347.496 41.452C345.216 41.452 343.248 43.228 343.248 45.604C343.248 48.22 345.192 49.636 347.208 49.636C349.392 49.636 350.88 48.028 350.88 44.812Z" fill="black"/>
<path d="M88.264 40.12C86.944 42.592 84.808 45.064 82.744 46.648C83.056 47.08 83.584 48.016 83.752 48.4C85.96 46.528 88.336 43.6 89.872 40.744L88.264 40.12ZM87.808 34.912C86.824 36.592 84.832 38.608 83.008 39.856C83.296 40.192 83.752 40.912 83.968 41.32C86.008 39.88 88.192 37.648 89.536 35.56L87.808 34.912ZM86.104 44.608V56.92H87.856V42.976L87.808 42.928L86.104 44.608ZM91.984 38.392V40.072H103.12V38.392H91.984ZM102.592 38.392V38.656C102.256 40.144 101.752 41.992 101.32 43.12L102.904 43.504C103.408 42.28 104.008 40.336 104.464 38.632L103.168 38.32L102.88 38.392H102.592ZM96.568 34.864V45.184H98.32V34.864H96.568ZM91.024 38.392V44.704C91.024 47.992 90.808 52.48 88.48 55.648C88.84 55.84 89.56 56.44 89.824 56.776C92.368 53.392 92.752 48.28 92.752 44.728V38.392H91.024ZM92.152 44.272V45.88H101.896V44.272H92.152ZM101.584 44.272V44.584C100.168 50.224 96.04 53.92 91.384 55.456C91.744 55.792 92.2 56.488 92.392 56.896C97.432 55.048 101.704 51.232 103.36 44.632L102.232 44.2L101.896 44.272H101.584ZM94.456 45.208L92.92 45.616C94.768 51.16 98.32 55.144 103.744 56.872C103.984 56.392 104.512 55.696 104.896 55.336C99.64 53.872 96.112 50.176 94.456 45.208ZM116.176 36.376L113.944 36.136C113.944 37.984 113.632 40.144 113.176 42.064C112.528 44.992 110.608 51.4 107.872 55.072L109.84 55.84C112.552 51.472 114.256 45.496 115.072 42.112C115.408 40.624 115.72 38.656 115.888 37.792C115.984 37.336 116.08 36.808 116.176 36.376ZM124.432 39.136L122.68 39.928C124.36 41.92 126.256 46.096 126.952 48.544L128.824 47.656C128.008 45.448 125.92 41.08 124.432 39.136ZM107.536 41.632L107.728 43.72C108.352 43.624 109.336 43.504 109.888 43.432C111.352 43.288 115.864 42.736 117.472 42.736C119.008 42.736 120.016 43.144 120.016 45.352C120.016 47.944 119.632 51.064 118.864 52.696C118.384 53.728 117.664 53.92 116.776 53.92C116.104 53.92 114.832 53.752 113.824 53.44L114.16 55.432C114.904 55.624 116.056 55.792 116.968 55.792C118.528 55.792 119.728 55.384 120.472 53.776C121.48 51.784 121.864 47.968 121.864 45.112C121.864 41.872 120.112 41.056 117.976 41.056C116.344 41.056 111.472 41.584 109.672 41.632C108.904 41.656 108.28 41.68 107.536 41.632ZM124.696 35.656L123.4 36.208C124.072 37.12 124.888 38.56 125.368 39.544L126.664 38.968C126.16 37.984 125.296 36.52 124.696 35.656ZM127.336 34.696L126.064 35.248C126.76 36.136 127.552 37.504 128.056 38.56L129.376 37.984C128.896 37.096 127.984 35.584 127.336 34.696Z" fill="black"/>
<path d="M0 67L385 67" stroke="black"/>
<path d="M216 0V155.5" stroke="black"/>
</svg>
