<svg width="385" height="156" viewBox="0 0 385 156" fill="none" xmlns="http://www.w3.org/2000/svg">
<path d="M265.416 35.5V36.844H275.328V35.5H265.416ZM278.4 35.596V37.036H283.152V35.596H278.4ZM276.288 48.1V49.612H284.64V48.1H276.288ZM265.848 38.284V39.604H274.896V38.284H265.848ZM264.96 41.14V42.508H275.616V41.14H264.96ZM275.232 43.876V45.412H287.232V43.876H275.232ZM267.264 46.972V48.268H273.528V46.972H267.264ZM267.264 49.996V51.292H273.528V49.996H267.264ZM269.496 33.34V41.956H271.176V33.34H269.496ZM266.4 43.9V55.444H267.984V45.292H273.408V43.9H266.4ZM272.784 43.9V53.596C272.784 53.884 272.712 53.956 272.424 53.98C272.16 53.98 271.272 53.98 270.24 53.956C270.456 54.364 270.696 55.012 270.768 55.42C272.232 55.42 273.096 55.42 273.672 55.132C274.272 54.892 274.416 54.436 274.416 53.62V43.9H272.784ZM276.408 39.772V41.284H284.088V50.572H285.744V39.772H276.408ZM279.6 40.516V53.332C279.6 53.668 279.504 53.764 279.168 53.788C278.832 53.788 277.776 53.788 276.528 53.74C276.792 54.244 277.032 54.964 277.128 55.42C278.76 55.42 279.792 55.372 280.44 55.084C281.088 54.82 281.304 54.316 281.304 53.356V40.516H279.6ZM278.856 33.34C277.992 35.692 276.528 38.02 274.896 39.508C275.28 39.748 275.928 40.3 276.216 40.588C277.872 38.908 279.48 36.34 280.44 33.724L278.856 33.34ZM282.72 35.596V35.908C282.192 37.204 281.04 39.1 280.056 40.228C280.416 40.42 280.944 40.756 281.256 40.996C282.312 39.772 283.656 37.852 284.448 36.244L283.344 35.524L283.08 35.596H282.72ZM298.488 34.78L296.28 34.564C296.28 36.412 295.944 38.572 295.512 40.468C294.864 43.42 292.944 49.828 290.208 53.476L292.152 54.268C294.864 49.876 296.592 43.9 297.408 40.54C297.72 39.052 298.056 37.084 298.2 36.22C298.296 35.74 298.392 35.236 298.488 34.78ZM306.768 37.348L305.016 38.14C306.696 40.108 308.568 44.356 309.288 46.828L311.136 45.94C310.344 43.708 308.256 39.292 306.768 37.348ZM289.848 40.06L290.064 42.124C290.664 42.028 291.672 41.908 292.224 41.836C293.688 41.692 298.176 41.164 299.784 41.164C301.32 41.164 302.328 41.572 302.328 43.756C302.328 46.348 301.968 49.492 301.2 51.1C300.696 52.156 299.976 52.348 299.088 52.348C298.416 52.348 297.168 52.156 296.16 51.844L296.472 53.86C297.24 54.028 298.368 54.196 299.304 54.196C300.84 54.196 302.04 53.812 302.808 52.204C303.792 50.212 304.176 46.396 304.176 43.54C304.176 40.276 302.424 39.46 300.288 39.46C298.656 39.46 293.784 40.012 292.008 40.06C291.24 40.084 290.616 40.084 289.848 40.06ZM321.888 34.972L319.608 34.78C319.656 35.284 319.608 36.1 319.512 36.772C319.344 38.044 318.72 41.044 318.12 43.252C317.232 46.636 315.552 51.532 314.088 54.004L316.2 54.7C317.472 52.084 319.08 47.116 319.944 43.708C320.616 41.332 321.12 38.596 321.456 36.868C321.552 36.412 321.744 35.5 321.888 34.972ZM316.584 38.98C315.696 38.98 314.832 38.956 313.704 38.812L313.752 40.66C314.64 40.732 315.48 40.756 316.536 40.756C319.128 40.756 322.752 40.372 325.728 39.7V37.804C322.752 38.572 319.224 38.98 316.584 38.98ZM324.168 42.292V44.068C325.632 43.9 327.096 43.828 328.608 43.828C330.024 43.828 331.416 43.948 332.664 44.092L332.712 42.268C331.416 42.124 329.952 42.076 328.56 42.076C327 42.076 325.416 42.172 324.168 42.292ZM324.648 48.124L322.872 47.932C322.656 48.964 322.512 49.852 322.512 50.764C322.512 53.14 324.576 54.316 328.344 54.316C330.096 54.316 331.704 54.148 333 53.98L333.072 52.036C331.584 52.324 329.928 52.516 328.368 52.516C324.96 52.516 324.312 51.412 324.312 50.284C324.312 49.66 324.456 48.892 324.648 48.124ZM330.096 35.716L328.824 36.244C329.472 37.156 330.312 38.62 330.792 39.58L332.088 39.004C331.584 38.044 330.72 36.556 330.096 35.716ZM332.76 34.732L331.488 35.284C332.16 36.196 332.976 37.54 333.48 38.596L334.776 38.02C334.32 37.108 333.408 35.62 332.76 34.732Z" fill="black"/>
<path d="M88.264 40.12C86.944 42.592 84.808 45.064 82.744 46.648C83.056 47.08 83.584 48.016 83.752 48.4C85.96 46.528 88.336 43.6 89.872 40.744L88.264 40.12ZM87.808 34.912C86.824 36.592 84.832 38.608 83.008 39.856C83.296 40.192 83.752 40.912 83.968 41.32C86.008 39.88 88.192 37.648 89.536 35.56L87.808 34.912ZM86.104 44.608V56.92H87.856V42.976L87.808 42.928L86.104 44.608ZM91.984 38.392V40.072H103.12V38.392H91.984ZM102.592 38.392V38.656C102.256 40.144 101.752 41.992 101.32 43.12L102.904 43.504C103.408 42.28 104.008 40.336 104.464 38.632L103.168 38.32L102.88 38.392H102.592ZM96.568 34.864V45.184H98.32V34.864H96.568ZM91.024 38.392V44.704C91.024 47.992 90.808 52.48 88.48 55.648C88.84 55.84 89.56 56.44 89.824 56.776C92.368 53.392 92.752 48.28 92.752 44.728V38.392H91.024ZM92.152 44.272V45.88H101.896V44.272H92.152ZM101.584 44.272V44.584C100.168 50.224 96.04 53.92 91.384 55.456C91.744 55.792 92.2 56.488 92.392 56.896C97.432 55.048 101.704 51.232 103.36 44.632L102.232 44.2L101.896 44.272H101.584ZM94.456 45.208L92.92 45.616C94.768 51.16 98.32 55.144 103.744 56.872C103.984 56.392 104.512 55.696 104.896 55.336C99.64 53.872 96.112 50.176 94.456 45.208ZM116.176 36.376L113.944 36.136C113.944 37.984 113.632 40.144 113.176 42.064C112.528 44.992 110.608 51.4 107.872 55.072L109.84 55.84C112.552 51.472 114.256 45.496 115.072 42.112C115.408 40.624 115.72 38.656 115.888 37.792C115.984 37.336 116.08 36.808 116.176 36.376ZM124.432 39.136L122.68 39.928C124.36 41.92 126.256 46.096 126.952 48.544L128.824 47.656C128.008 45.448 125.92 41.08 124.432 39.136ZM107.536 41.632L107.728 43.72C108.352 43.624 109.336 43.504 109.888 43.432C111.352 43.288 115.864 42.736 117.472 42.736C119.008 42.736 120.016 43.144 120.016 45.352C120.016 47.944 119.632 51.064 118.864 52.696C118.384 53.728 117.664 53.92 116.776 53.92C116.104 53.92 114.832 53.752 113.824 53.44L114.16 55.432C114.904 55.624 116.056 55.792 116.968 55.792C118.528 55.792 119.728 55.384 120.472 53.776C121.48 51.784 121.864 47.968 121.864 45.112C121.864 41.872 120.112 41.056 117.976 41.056C116.344 41.056 111.472 41.584 109.672 41.632C108.904 41.656 108.28 41.68 107.536 41.632ZM124.696 35.656L123.4 36.208C124.072 37.12 124.888 38.56 125.368 39.544L126.664 38.968C126.16 37.984 125.296 36.52 124.696 35.656ZM127.336 34.696L126.064 35.248C126.76 36.136 127.552 37.504 128.056 38.56L129.376 37.984C128.896 37.096 127.984 35.584 127.336 34.696Z" fill="black"/>
<path d="M0 67L385 67" stroke="black"/>
<path d="M216 0V155.5" stroke="black"/>
</svg>
