<svg width="705" height="222" viewBox="0 0 705 222" fill="none" xmlns="http://www.w3.org/2000/svg">
<path d="M178.84 91.848H176.728C176.8 92.232 176.848 93.072 176.848 93.528C176.848 94.512 176.752 98.424 176.752 101.184C176.752 103.848 176.872 107.184 176.872 108.576C176.872 109.368 176.56 109.752 176.008 109.752C175.072 109.752 173.392 108.792 173.392 107.712C173.392 106.488 175.24 104.88 177.592 103.968C179.632 103.152 181.6 102.696 183.76 102.696C186.016 102.696 187.864 103.776 187.864 105.816C187.864 108.048 185.944 109.176 183.856 109.584C182.944 109.776 181.936 109.752 181.024 109.752L181.696 111.672C182.536 111.624 183.616 111.576 184.672 111.336C187.984 110.568 189.808 108.72 189.808 105.816C189.808 102.936 187.288 101.04 183.76 101.04C181.864 101.04 179.464 101.472 177.328 102.312C174.352 103.44 171.496 105.672 171.496 107.784C171.496 109.944 174.616 111.768 176.488 111.768C177.808 111.768 178.624 111.048 178.624 108.84C178.624 107.328 178.504 103.584 178.504 101.088C178.504 98.592 178.624 94.92 178.696 93.504C178.72 92.928 178.768 92.28 178.84 91.848ZM186.304 94.512L185.416 95.952C186.952 96.768 189.64 98.424 190.816 99.528L191.776 97.992C190.624 97.032 188.008 95.4 186.304 94.512ZM171.904 96.144L171.952 97.992C172.744 98.064 173.656 98.112 175 98.112C177.16 98.112 181.096 97.584 183.568 96.984L183.52 95.112C181.144 95.832 177.328 96.336 174.952 96.336C174.088 96.336 173.224 96.312 171.904 96.144ZM209.08 97.776C206.632 105.072 201.664 109.176 193.84 111.288C194.248 111.696 194.92 112.536 195.16 112.992C203.032 110.52 208.264 106.176 211.048 98.328L209.08 97.776ZM200.968 97.968L199.192 98.496C201.904 105.888 206.896 110.928 214.816 112.968C215.104 112.44 215.68 111.624 216.112 111.192C208.384 109.416 203.368 104.64 200.968 97.968ZM200.536 91.224C199 93.912 196.432 96.576 193.936 98.256C194.392 98.592 195.184 99.336 195.52 99.72C197.968 97.8 200.704 94.896 202.48 91.896L200.536 91.224ZM207.496 92.208C209.992 94.344 212.968 97.416 214.312 99.384L215.968 98.136C214.552 96.144 211.504 93.192 209.032 91.152L207.496 92.208ZM229.552 94.008C229.816 94.752 230.152 95.856 230.68 97.224C231.472 99.408 232.792 101.784 233.8 103.32C232.936 103.224 231.16 103.08 229.816 102.96L229.672 104.544C231.4 104.664 234.328 104.928 235.48 105.216L236.44 103.848C236.08 103.464 235.72 103.056 235.408 102.576C234.376 101.184 233.152 98.952 232.408 96.888C231.856 95.328 231.232 93.264 231.016 91.872L228.952 92.112C229.192 92.76 229.408 93.48 229.552 94.008ZM220.768 95.88L220.816 97.776C225.064 98.136 228.88 98.112 231.928 97.752C233.68 97.536 235.96 97.152 237.664 96.672L237.448 94.776C235.576 95.424 233.2 95.856 231.304 96.072C228.568 96.36 224.776 96.336 220.768 95.88ZM224.488 103.512L222.616 103.08C221.92 104.496 221.44 105.744 221.44 107.088C221.44 110.352 224.32 111.984 228.88 112.008C231.568 112.032 233.584 111.768 235.096 111.504L235.168 109.584C233.512 109.944 231.424 110.184 229 110.184C225.424 110.136 223.336 109.152 223.336 106.848C223.336 105.72 223.768 104.688 224.488 103.512ZM254.128 93.192L251.992 92.328C251.704 93.048 251.392 93.624 251.128 94.2C249.808 96.504 244.552 106.344 242.8 111.192L244.864 111.912C245.2 110.736 246.208 107.88 246.952 106.464C247.864 104.568 249.688 102.6 251.608 102.6C252.688 102.6 253.312 103.248 253.36 104.28C253.432 105.6 253.408 107.448 253.48 108.864C253.552 110.28 254.392 111.888 256.96 111.888C260.44 111.888 262.456 109.2 263.728 105.336L262.12 104.04C261.52 106.608 259.936 109.92 257.248 109.92C256.216 109.92 255.4 109.392 255.328 108.192C255.232 107.016 255.28 105.192 255.232 103.776C255.16 101.88 254.008 100.848 252.4 100.848C251.248 100.848 250 101.304 248.848 102.336C250.072 100.008 252.28 96.024 253.36 94.368C253.624 93.912 253.912 93.48 254.128 93.192ZM275.176 92.376L272.944 92.136C272.944 93.984 272.632 96.144 272.176 98.064C271.528 100.992 269.608 107.4 266.872 111.072L268.84 111.84C271.552 107.472 273.256 101.496 274.072 98.112C274.408 96.624 274.72 94.656 274.888 93.792C274.984 93.336 275.08 92.808 275.176 92.376ZM283.432 95.136L281.68 95.928C283.36 97.92 285.256 102.096 285.952 104.544L287.824 103.656C287.008 101.448 284.92 97.08 283.432 95.136ZM266.536 97.632L266.728 99.72C267.352 99.624 268.336 99.504 268.888 99.432C270.352 99.288 274.864 98.736 276.472 98.736C278.008 98.736 279.016 99.144 279.016 101.352C279.016 103.944 278.632 107.064 277.864 108.696C277.384 109.728 276.664 109.92 275.776 109.92C275.104 109.92 273.832 109.752 272.824 109.44L273.16 111.432C273.904 111.624 275.056 111.792 275.968 111.792C277.528 111.792 278.728 111.384 279.472 109.776C280.48 107.784 280.864 103.968 280.864 101.112C280.864 97.872 279.112 97.056 276.976 97.056C275.344 97.056 270.472 97.584 268.672 97.632C267.904 97.656 267.28 97.68 266.536 97.632ZM283.696 91.656L282.4 92.208C283.072 93.12 283.888 94.56 284.368 95.544L285.664 94.968C285.16 93.984 284.296 92.52 283.696 91.656ZM286.336 90.696L285.064 91.248C285.76 92.136 286.552 93.504 287.056 94.56L288.376 93.984C287.896 93.096 286.984 91.584 286.336 90.696Z" fill="black"/>
<path d="M151 123L704.5 123" stroke="black"/>
<path d="M328 56V211.5" stroke="black"/>
<path d="M536.688 94.872L535.848 96.6H548.064V94.872H536.688ZM539.688 100.08V101.736H547.512V100.08H539.688ZM539.664 105.36V107.064H547.848V105.36H539.664ZM538.776 95.424V112.92H540.624V95.424H538.776ZM537.6 91.128C536.424 94.656 534.48 98.16 532.296 100.392C532.704 100.68 533.424 101.328 533.688 101.64C535.896 99.168 537.984 95.4 539.352 91.584L537.6 91.128ZM531.84 90.936C530.472 94.584 528.24 98.184 525.84 100.512C526.176 100.944 526.728 101.904 526.896 102.336C529.512 99.648 531.984 95.544 533.568 91.488L531.84 90.936ZM529.272 97.128V112.896H531.096V95.352L531.048 95.328L529.272 97.128ZM554.712 93.336L554.76 95.304C555.288 95.232 555.816 95.208 556.368 95.16C557.616 95.088 562.416 94.896 563.688 94.824C562.488 95.904 559.464 98.424 558.12 99.528C556.752 100.704 553.656 103.296 551.664 104.928L553.056 106.32C556.08 103.224 558.24 101.544 562.224 101.544C565.368 101.544 567.624 103.296 567.624 105.672C567.624 108.672 565.056 110.352 560.976 110.352C559.08 110.352 557.76 109.656 557.76 108.48C557.76 107.64 558.6 106.968 559.704 106.968C561.624 106.968 562.8 108.432 562.944 110.472L564.672 110.184C564.504 107.76 562.896 105.504 559.704 105.504C557.496 105.504 556.008 106.992 556.008 108.624C556.008 110.64 558 112.056 561.264 112.056C566.352 112.056 569.544 109.536 569.544 105.672C569.544 102.432 566.688 100.056 562.704 100.056C561.624 100.056 560.472 100.176 559.368 100.536C561.24 99 564.504 96.192 565.68 95.28C566.136 94.92 566.616 94.608 567.048 94.32L565.944 92.904C565.68 93 565.344 93.048 564.624 93.12C563.352 93.24 557.664 93.408 556.392 93.408C555.912 93.408 555.24 93.384 554.712 93.336Z" fill="black"/>
<path d="M8.432 9.104V10.688H20.72V9.104H8.432ZM6.632 20.072V21.68H24.368V20.072H6.632ZM3.008 14.456V16.088H25.016V14.456H3.008ZM7.832 5.264V6.896H23.816V5.264H7.832ZM20.168 9.104V9.464C19.712 18.896 19.184 22.424 18.416 23.24C18.152 23.552 17.888 23.624 17.432 23.624C16.904 23.624 15.704 23.6 14.36 23.48C14.6 23.888 14.768 24.488 14.792 24.896C16.112 24.968 17.408 24.992 18.152 24.944C18.944 24.872 19.496 24.68 19.976 24.056C20.912 23 21.416 19.688 21.896 9.968C21.896 9.728 21.92 9.104 21.92 9.104H20.168ZM7.688 9.104C7.184 13.448 6.2 19.52 5.408 23.048L7.232 23.168C7.928 19.688 8.888 13.592 9.488 9.104H7.688ZM13.76 9.872C13.496 13.376 12.92 18.224 12.44 21.032H14.12C14.552 18.296 15.128 13.448 15.464 9.872H13.76ZM8.72 2.84C7.808 5.096 6.08 7.928 3.512 10.04C3.992 10.256 4.664 10.736 5 11.12C7.664 8.768 9.44 5.84 10.64 3.176L8.72 2.84ZM31.736 12.32H27.08V14H30.032V20.816H31.736V12.32ZM31.736 20.096H30.2C29.096 21.152 27.824 22.232 26.792 23.024L27.728 24.728C28.88 23.648 29.96 22.616 30.992 21.584C32.504 23.48 34.688 24.344 37.88 24.464C40.616 24.56 45.848 24.512 48.584 24.392C48.656 23.888 48.944 23.072 49.16 22.688C46.208 22.88 40.568 22.952 37.856 22.832C35 22.712 32.864 21.896 31.736 20.096ZM27.2 4.304C28.592 5.504 30.152 7.232 30.776 8.432L32.288 7.424C31.616 6.2 30.008 4.544 28.592 3.416L27.2 4.304ZM35.408 3.776V5.288H46.664V3.776H35.408ZM37.208 7.472V8.792H44.72V7.472H37.208ZM36.992 10.736V12.056H44.936V10.736H36.992ZM40.064 5.768V11.48H41.6V5.768H40.064ZM34.448 3.776V10.016C34.448 13.088 34.256 17.312 32.384 20.336C32.768 20.504 33.488 20.96 33.8 21.272C35.792 18.056 36.104 13.352 36.104 10.016V3.776H34.448ZM45.872 3.776V19.544C45.872 19.88 45.752 19.976 45.416 20C45.104 20 44 20 42.8 19.976C43.016 20.408 43.256 21.08 43.304 21.536C45.032 21.536 46.064 21.512 46.688 21.248C47.312 20.96 47.528 20.504 47.528 19.568V3.776H45.872ZM38.336 13.4V14.696H42.656V17.384H38.336V18.68H44.096V13.4H38.336ZM37.64 13.4V19.904H39.08V13.4H37.64ZM54.224 4.472V24.656H56.072V6.296H68.048V24.56H69.944V4.472H54.224ZM55.448 12.8V14.576H68.84V12.8H55.448ZM55.424 21.296V23.096H68.888V21.296H55.424ZM83.456 6.752V8.024H88.376V6.752H83.456ZM83.048 3.752V5.048H87.512V9.8H83.024V11.12H89.096V3.752H83.048ZM90.416 6.752V8.024H95.48V6.752H90.416ZM90.08 3.752V5.048H94.664V9.8H90.056V11.12H96.248V3.752H90.08ZM85.184 16.28V17.552H95.84V16.28H85.184ZM85.184 19.4V20.672H95.84V19.4H85.184ZM85.256 22.664V24.056H97.04V22.664H85.256ZM85.736 10.784C84.944 12.776 83.288 15.152 81.536 16.64C81.848 16.928 82.352 17.504 82.616 17.84C84.56 16.184 86.336 13.616 87.416 11.288L85.736 10.784ZM85.88 13.016H85.616L84.224 14.48V24.8H85.88V14.432H96.44V13.016H85.88ZM90.752 10.928C90.512 11.744 89.984 12.992 89.576 13.832L90.92 14.24C91.4 13.496 92 12.392 92.528 11.336L90.752 10.928ZM89.6 14.096V23.192H91.208V14.096H89.6ZM76.688 4.352V5.984H80.408V18.68H76.688V20.288H82.04V4.352H76.688ZM76.784 11.384V12.992H81.248V11.384H76.784ZM75.848 4.352V22.28H77.456V4.352H75.848ZM102.224 4.472V24.656H104.072V6.296H116.048V24.56H117.944V4.472H102.224ZM103.448 12.8V14.576H116.84V12.8H103.448ZM103.424 21.296V23.096H116.888V21.296H103.424Z" fill="black"/>
<path d="M143.552 41.816L143.576 43.64C144.968 43.736 146.216 43.784 147.608 43.784C150.416 43.784 153.344 43.592 155.888 43.16V41.312C153.464 41.816 150.512 42.032 147.632 42.032C146.216 42.032 144.92 41.96 143.552 41.816ZM151.952 37.52H149.792C149.864 37.952 149.888 38.576 149.888 39.008C149.888 39.848 149.912 41.36 149.912 43.016C149.912 46.184 150.224 50.672 150.224 52.4C150.224 54.008 149.648 55.016 147.632 55.016C145.88 55.016 144.704 54.368 144.704 53.12C144.704 51.968 145.952 51.176 147.752 51.176C150.8 51.176 153.224 52.808 155.744 55.16L156.776 53.576C154.76 51.752 151.952 49.712 147.92 49.712C144.752 49.712 142.976 51.296 142.976 53.312C142.976 55.472 144.728 56.768 147.944 56.768C151.184 56.768 152.096 54.848 152.096 52.88C152.096 50.408 151.736 46.664 151.736 42.968C151.736 41.552 151.76 39.848 151.808 38.96C151.832 38.504 151.88 38 151.952 37.52ZM140.12 37.688L138.008 37.496C137.984 38.024 137.936 38.648 137.84 39.224C137.552 41.192 136.736 45.776 136.736 49.304C136.736 52.544 137.192 55.184 137.648 56.912L139.352 56.768C139.328 56.528 139.304 56.168 139.28 55.928C139.256 55.664 139.304 55.184 139.376 54.848C139.616 53.672 140.504 51.224 141.104 49.544L140.12 48.776C139.712 49.76 139.112 51.224 138.728 52.328C138.56 51.152 138.488 50.144 138.488 48.968C138.488 46.28 139.208 41.528 139.688 39.296C139.784 38.864 139.976 38.072 140.12 37.688Z" fill="black"/>
<path d="M0.5 29H121.285L151 123" stroke="black" stroke-dasharray="4 4"/>
<path d="M427.04 143.04L425.072 142.872C425 144 424.664 145.44 424.136 146.76C423.32 148.8 421.712 151.584 418.256 154.896L419.912 156.12C420.704 155.136 421.376 154.272 422.072 153.6C423.176 152.616 424.688 151.848 426.224 151.848C427.472 151.848 428.432 152.496 428.456 153.888C428.48 155.136 428.456 157.608 428.36 158.88H430.208C430.184 157.392 430.136 154.632 430.136 153.384C430.136 151.44 428.696 150.336 426.848 150.336C425.792 150.336 424.424 150.672 423.488 151.224C424.448 149.976 425.336 148.368 425.936 146.904C426.56 145.296 426.824 143.976 427.04 143.04ZM418.808 145.632V147.432C420.152 147.528 421.736 147.576 422.768 147.576C425.816 147.576 430.28 147.36 433.64 146.856V145.08C430.256 145.68 426.104 145.872 422.864 145.872C421.76 145.872 420.104 145.8 418.808 145.632ZM437.144 151.416L436.376 149.64C435.704 149.976 435.104 150.24 434.384 150.576C432.8 151.32 430.856 152.064 428.576 153.24C425.72 154.704 422.744 156.504 422.744 159.432C422.744 162.336 425.504 163.08 428.912 163.08C431 163.08 433.664 162.888 435.488 162.672L435.56 160.728C433.448 161.112 430.856 161.328 428.984 161.328C426.512 161.328 424.664 161.04 424.664 159.168C424.664 157.512 426.344 156.216 428.72 154.968C431.048 153.768 433.328 152.856 435.032 152.184C435.68 151.944 436.544 151.608 437.144 151.416Z" fill="black"/>
<path d="M455 123.5L430 221.5H353" stroke="black"/>
<path d="M368.664 197.904V199.464H387.432V197.904H368.664ZM369.624 201.432V202.944H386.496V201.432H369.624ZM367.248 205.056V206.64H388.728V205.056H367.248ZM367.656 209.064V210.648H388.344V209.064H367.656ZM382.512 206.424V215.64C382.512 215.976 382.416 216.096 381.984 216.096C381.576 216.12 380.16 216.12 378.552 216.072C378.792 216.6 379.08 217.32 379.176 217.824C381.192 217.824 382.512 217.824 383.328 217.536C384.096 217.248 384.336 216.72 384.336 215.664V206.424H382.512ZM376.68 195.816C375.552 205.248 373.248 211.752 367.008 215.376C367.488 215.712 368.304 216.456 368.592 216.84C374.88 212.736 377.352 205.992 378.648 196.032L376.68 195.816ZM373.656 212.544C374.832 213.672 376.248 215.256 376.896 216.264L378.456 215.208C377.76 214.224 376.32 212.688 375.144 211.608L373.656 212.544ZM392.112 197.4V199.128H410.208V197.4H392.112ZM392.256 201.648V203.256H406.728V201.648H392.256ZM409.488 197.4V215.232C409.488 215.688 409.344 215.808 408.888 215.832C408.384 215.856 406.752 215.856 405.072 215.808C405.36 216.336 405.624 217.224 405.72 217.776C407.856 217.776 409.368 217.752 410.208 217.44C411.048 217.104 411.288 216.48 411.288 215.232V197.4H409.488ZM393.792 205.848V215.304H395.544V205.848H393.792ZM395.232 205.848V207.456H403.296V211.944H395.232V213.528H405.072V205.848H395.232Z" fill="black"/>
</svg>
