<svg width="576" height="265" viewBox="0 0 576 265" fill="none" xmlns="http://www.w3.org/2000/svg">
<path d="M117.008 42.28L115.304 42.688C117.056 49.48 120.248 54.52 125.84 56.92C126.128 56.392 126.752 55.6 127.208 55.216C121.784 53.2 118.544 48.4 117.008 42.28ZM105.272 41.896V43.744H126.728V41.896H105.272ZM115.04 34.864C114.968 41.56 115.208 51.184 104.984 55.336C105.488 55.72 106.088 56.392 106.376 56.896C116.888 52.336 116.888 42.136 116.96 34.864H115.04ZM119.024 36.568C120.752 37.744 122.816 39.472 123.752 40.624L125.096 39.424C124.088 38.248 121.976 36.592 120.272 35.488L119.024 36.568ZM138.176 36.376L135.944 36.136C135.944 37.984 135.632 40.144 135.176 42.064C134.528 44.992 132.608 51.4 129.872 55.072L131.84 55.84C134.552 51.472 136.256 45.496 137.072 42.112C137.408 40.624 137.72 38.656 137.888 37.792C137.984 37.336 138.08 36.808 138.176 36.376ZM146.432 39.136L144.68 39.928C146.36 41.92 148.256 46.096 148.952 48.544L150.824 47.656C150.008 45.448 147.92 41.08 146.432 39.136ZM129.536 41.632L129.728 43.72C130.352 43.624 131.336 43.504 131.888 43.432C133.352 43.288 137.864 42.736 139.472 42.736C141.008 42.736 142.016 43.144 142.016 45.352C142.016 47.944 141.632 51.064 140.864 52.696C140.384 53.728 139.664 53.92 138.776 53.92C138.104 53.92 136.832 53.752 135.824 53.44L136.16 55.432C136.904 55.624 138.056 55.792 138.968 55.792C140.528 55.792 141.728 55.384 142.472 53.776C143.48 51.784 143.864 47.968 143.864 45.112C143.864 41.872 142.112 41.056 139.976 41.056C138.344 41.056 133.472 41.584 131.672 41.632C130.904 41.656 130.28 41.68 129.536 41.632ZM146.696 35.656L145.4 36.208C146.072 37.12 146.888 38.56 147.368 39.544L148.664 38.968C148.16 37.984 147.296 36.52 146.696 35.656ZM149.336 34.696L148.064 35.248C148.76 36.136 149.552 37.504 150.056 38.56L151.376 37.984C150.896 37.096 149.984 35.584 149.336 34.696Z" fill="black"/>
<path d="M22 67L575.5 67" stroke="black"/>
<path d="M166 0V155.5" stroke="black"/>
<path d="M102 66.5L77 164.5H0" stroke="black"/>
<path d="M18.368 157.368V159.168H33.584V157.368H18.368ZM18.248 149.976V151.752H33.608V149.976H18.248ZM17.432 142.704V160.92H19.232V144.504H32.696V160.824H34.568V142.704H17.432ZM24.68 138.768C24.344 140.16 23.624 142.104 23.024 143.4L24.776 143.808C25.448 142.608 26.24 140.808 26.912 139.176L24.68 138.768ZM43.352 142.272L41.024 142.224C41.168 142.776 41.168 143.808 41.168 144.36C41.168 145.752 41.216 148.68 41.432 150.744C42.104 156.96 44.264 159.216 46.544 159.216C48.176 159.216 49.616 157.824 51.08 153.768L49.568 152.064C48.944 154.464 47.816 156.936 46.592 156.936C44.864 156.936 43.712 154.272 43.304 150.264C43.136 148.296 43.112 146.088 43.136 144.6C43.16 143.976 43.232 142.824 43.352 142.272ZM55.832 142.92L53.984 143.568C56.264 146.376 57.728 151.32 58.136 155.64L60.08 154.872C59.72 150.816 57.992 145.704 55.832 142.92Z" fill="black"/>
<path d="M432.92 89.8L432.944 91.744C435.56 92.032 440.216 92.032 442.784 91.744V89.8C440.408 90.16 435.536 90.256 432.92 89.8ZM433.856 99.592L432.128 99.424C431.864 100.576 431.744 101.44 431.744 102.232C431.744 104.488 433.544 105.832 437.552 105.832C440.048 105.832 442.064 105.64 443.552 105.328L443.504 103.312C441.584 103.768 439.712 103.96 437.576 103.96C434.288 103.96 433.52 102.88 433.52 101.776C433.52 101.128 433.64 100.456 433.856 99.592ZM428.36 87.952L426.224 87.784C426.2 88.312 426.128 88.912 426.056 89.464C425.768 91.456 424.976 95.56 424.976 99.088C424.976 102.352 425.384 105.112 425.864 106.816L427.568 106.696C427.544 106.432 427.52 106.096 427.496 105.856C427.496 105.568 427.544 105.112 427.616 104.776C427.832 103.624 428.72 101.104 429.32 99.4L428.312 98.608C427.904 99.592 427.352 101.032 426.944 102.112C426.8 100.936 426.728 99.928 426.728 98.776C426.728 96.064 427.472 91.792 427.928 89.56C428.024 89.128 428.216 88.36 428.36 87.952Z" fill="black"/>
<path d="M461 67.5L436 165.5H359" stroke="black"/>
<path d="M375.416 142V143.344H385.328V142H375.416ZM388.4 142.096V143.536H393.152V142.096H388.4ZM386.288 154.6V156.112H394.64V154.6H386.288ZM375.848 144.784V146.104H384.896V144.784H375.848ZM374.96 147.64V149.008H385.616V147.64H374.96ZM385.232 150.376V151.912H397.232V150.376H385.232ZM377.264 153.472V154.768H383.528V153.472H377.264ZM377.264 156.496V157.792H383.528V156.496H377.264ZM379.496 139.84V148.456H381.176V139.84H379.496ZM376.4 150.4V161.944H377.984V151.792H383.408V150.4H376.4ZM382.784 150.4V160.096C382.784 160.384 382.712 160.456 382.424 160.48C382.16 160.48 381.272 160.48 380.24 160.456C380.456 160.864 380.696 161.512 380.768 161.92C382.232 161.92 383.096 161.92 383.672 161.632C384.272 161.392 384.416 160.936 384.416 160.12V150.4H382.784ZM386.408 146.272V147.784H394.088V157.072H395.744V146.272H386.408ZM389.6 147.016V159.832C389.6 160.168 389.504 160.264 389.168 160.288C388.832 160.288 387.776 160.288 386.528 160.24C386.792 160.744 387.032 161.464 387.128 161.92C388.76 161.92 389.792 161.872 390.44 161.584C391.088 161.32 391.304 160.816 391.304 159.856V147.016H389.6ZM388.856 139.84C387.992 142.192 386.528 144.52 384.896 146.008C385.28 146.248 385.928 146.8 386.216 147.088C387.872 145.408 389.48 142.84 390.44 140.224L388.856 139.84ZM392.72 142.096V142.408C392.192 143.704 391.04 145.6 390.056 146.728C390.416 146.92 390.944 147.256 391.256 147.496C392.312 146.272 393.656 144.352 394.448 142.744L393.344 142.024L393.08 142.096H392.72ZM408.488 141.28L406.28 141.064C406.28 142.912 405.944 145.072 405.512 146.968C404.864 149.92 402.944 156.328 400.208 159.976L402.152 160.768C404.864 156.376 406.592 150.4 407.408 147.04C407.72 145.552 408.056 143.584 408.2 142.72C408.296 142.24 408.392 141.736 408.488 141.28ZM416.768 143.848L415.016 144.64C416.696 146.608 418.568 150.856 419.288 153.328L421.136 152.44C420.344 150.208 418.256 145.792 416.768 143.848ZM399.848 146.56L400.064 148.624C400.664 148.528 401.672 148.408 402.224 148.336C403.688 148.192 408.176 147.664 409.784 147.664C411.32 147.664 412.328 148.072 412.328 150.256C412.328 152.848 411.968 155.992 411.2 157.6C410.696 158.656 409.976 158.848 409.088 158.848C408.416 158.848 407.168 158.656 406.16 158.344L406.472 160.36C407.24 160.528 408.368 160.696 409.304 160.696C410.84 160.696 412.04 160.312 412.808 158.704C413.792 156.712 414.176 152.896 414.176 150.04C414.176 146.776 412.424 145.96 410.288 145.96C408.656 145.96 403.784 146.512 402.008 146.56C401.24 146.584 400.616 146.584 399.848 146.56Z" fill="black"/>
<path d="M248.512 188.632L246.52 188.584C246.28 191.08 245.776 193.792 245.08 196.072C243.856 200.128 242.56 201.76 241.432 201.76C240.352 201.76 238.984 200.416 238.984 197.392C238.984 193.864 242.272 189.52 247.552 189.52C252.16 189.52 254.824 192.688 254.824 196.528C254.824 200.68 251.8 202.984 248.728 203.68C248.152 203.8 247.432 203.896 246.664 203.968L247.768 205.744C253.48 205 256.792 201.64 256.792 196.624C256.792 191.752 253.216 187.792 247.6 187.792C241.72 187.792 237.088 192.328 237.088 197.536C237.088 201.52 239.224 203.968 241.384 203.968C243.592 203.968 245.512 201.424 246.976 196.504C247.72 193.936 248.2 191.128 248.512 188.632Z" fill="black"/>
<path d="M274 166.5L249 264.5H172" stroke="black"/>
<path d="M198.04 238.864V242.056H199.888V238.864H198.04ZM189.088 241V245.776H190.84V242.656H207.208V245.776H209.032V241H189.088ZM192.16 245.056V246.64H205.672V245.056H192.16ZM195.304 248.656C199.96 252.208 200.056 257.632 198.352 258.856C197.872 259.264 197.344 259.312 196.696 259.312C196.144 259.312 195.328 259.288 194.44 259.192C194.752 259.696 194.92 260.44 194.968 260.92C195.712 260.968 196.48 260.992 197.056 260.992C198.136 260.992 198.808 260.824 199.624 260.176C202.096 258.448 201.976 251.752 196.648 247.816L195.304 248.656ZM198.904 245.416C196.72 247.456 192.592 249.088 188.92 249.976C189.232 250.312 189.712 251.056 189.904 251.392C193.648 250.312 197.92 248.464 200.392 246.064L198.904 245.416ZM197.2 250C195.424 251.464 191.8 253.168 189.088 253.912C189.448 254.272 189.832 254.896 190.048 255.304C192.808 254.32 196.408 252.448 198.4 250.816L197.2 250ZM198.976 252.472C196.72 254.8 192.064 257.296 188.248 258.304C188.584 258.712 188.992 259.36 189.208 259.816C193.048 258.544 197.728 255.904 200.224 253.384L198.976 252.472ZM201.184 245.68L199.696 245.992C201.136 252.016 203.968 256.888 208.696 259.048C208.984 258.544 209.536 257.848 209.944 257.488C205.384 255.664 202.504 251.08 201.184 245.68ZM207.352 247.456C205.984 248.68 203.656 250.312 202.024 251.272L203.152 252.376C204.856 251.464 207.112 249.976 208.744 248.656L207.352 247.456Z" fill="black"/>
<path d="M278.872 90.208L279.088 92.32C281.68 91.768 287.8 91.168 290.368 90.904C288.184 92.2 285.904 95.272 285.904 98.992C285.904 104.368 290.944 106.72 295.384 106.888L296.08 104.92C292.192 104.776 287.8 103.264 287.8 98.584C287.8 95.752 289.888 92.08 293.32 90.976C294.544 90.64 296.632 90.592 298.024 90.616L298 88.696C296.392 88.744 294.16 88.888 291.52 89.104C287.104 89.488 282.568 89.92 281.032 90.088C280.552 90.136 279.784 90.184 278.872 90.208ZM294.544 93.544L293.344 94.072C294.064 95.08 294.736 96.304 295.288 97.456L296.536 96.904C296.008 95.824 295.096 94.336 294.544 93.544ZM297.16 92.536L295.984 93.088C296.728 94.096 297.448 95.296 298.024 96.448L299.248 95.848C298.696 94.792 297.76 93.328 297.16 92.536Z" fill="black"/>
<path d="M316 67.5L291 165.5H214" stroke="black"/>
<path d="M243.304 144.136V155.56H245.104V145.912H260.776V155.44H262.648V144.136H243.304ZM244.264 152.296V154.048H261.856V152.296H244.264ZM251.992 139.84V161.896H253.864V139.84H251.992Z" fill="black"/>
<path d="M496.904 36.424C499.232 39.136 503.48 41.992 507.08 43.6C507.392 43.096 507.824 42.448 508.232 42.016C504.488 40.6 500.312 37.84 497.696 34.816H495.896C493.952 37.504 489.92 40.528 485.84 42.28C486.224 42.688 486.68 43.336 486.896 43.744C490.88 41.896 494.84 38.968 496.904 36.424ZM491.216 44.944V46.336H502.712V44.944H491.216ZM495.992 39.064V42.328H497.84V39.064H495.992ZM487.424 55.024L487.664 56.728C490.424 56.464 494.384 56.08 498.152 55.696L498.128 54.064C494.168 54.448 490.088 54.808 487.424 55.024ZM497.096 49.24L495.56 49.72C497.576 53.68 501.488 56.008 506.768 56.944C507.008 56.464 507.488 55.744 507.872 55.36C502.76 54.64 498.872 52.624 497.096 49.24ZM505.208 48.856C503.648 50.056 501.008 51.664 499.064 52.6L500.216 53.584C502.184 52.648 504.656 51.256 506.552 49.912L505.208 48.856ZM491.216 41.464V42.928H502.064V48.472H491.216V49.936H503.864V41.464H491.216ZM490.136 41.464V55.432L491.912 55.24V41.464H490.136ZM510.104 48.88L511.88 50.704C512.24 50.176 512.792 49.408 513.272 48.784C514.52 47.296 516.488 44.656 517.616 43.264C518.456 42.256 518.912 42.064 519.92 43.192C521.048 44.416 522.872 46.72 524.432 48.496C526.088 50.368 528.248 52.864 530.048 54.568L531.608 52.84C529.448 50.92 527.048 48.4 525.608 46.792C524.072 45.16 522.224 42.784 520.784 41.32C519.2 39.688 517.952 39.928 516.56 41.56C515.12 43.264 513.128 46 511.832 47.296C511.208 47.968 510.704 48.424 510.104 48.88ZM525.608 38.8L524.216 39.4C525.032 40.504 525.872 42.016 526.448 43.288L527.888 42.64C527.312 41.488 526.208 39.712 525.608 38.8ZM528.704 37.6L527.36 38.224C528.152 39.28 529.016 40.768 529.664 42.016L531.056 41.344C530.48 40.24 529.328 38.44 528.704 37.6ZM543.608 36.136L541.328 35.944C541.376 36.448 541.328 37.264 541.232 37.936C541.064 39.184 540.44 42.208 539.864 44.416C538.952 47.8 537.272 52.672 535.832 55.168L537.92 55.864C539.192 53.248 540.8 48.28 541.664 44.872C542.336 42.472 542.84 39.76 543.2 38.032C543.296 37.576 543.464 36.664 543.608 36.136ZM538.304 40.144C537.416 40.144 536.552 40.096 535.424 39.952L535.472 41.824C536.36 41.896 537.2 41.92 538.256 41.92C540.848 41.92 544.472 41.512 547.448 40.84V38.968C544.472 39.712 540.944 40.144 538.304 40.144ZM545.888 43.432V45.232C547.352 45.064 548.84 44.968 550.328 44.968C551.744 44.968 553.136 45.112 554.384 45.256L554.432 43.432C553.136 43.288 551.672 43.24 550.28 43.24C548.744 43.24 547.136 43.312 545.888 43.432ZM546.368 49.264L544.592 49.096C544.376 50.104 544.232 51.016 544.232 51.928C544.232 54.304 546.296 55.456 550.064 55.456C551.816 55.456 553.424 55.312 554.72 55.12L554.792 53.2C553.304 53.488 551.672 53.656 550.088 53.656C546.68 53.656 546.032 52.552 546.032 51.424C546.032 50.8 546.176 50.056 546.368 49.264Z" fill="black"/>
</svg>
