<svg width="523" height="319" viewBox="0 0 523 319" fill="none" xmlns="http://www.w3.org/2000/svg">
<path d="M449.928 165.112V166.432H461.952V165.112H449.928ZM452.808 167.872V169.024H459.168V167.872H452.808ZM452.808 170.536V171.688H459.168V170.536H452.808ZM458.52 165.712V176.368H460.176V165.712H458.52ZM451.728 165.736V174.064H453.336V165.736H451.728ZM449.664 173.656L449.736 175.12C452.304 174.928 455.904 174.712 459.432 174.448L459.456 173.104C455.808 173.344 452.088 173.56 449.664 173.656ZM447.048 159.136V160.384H453.792V159.136H447.048ZM458.112 159.136V160.384H464.904V159.136H458.112ZM464.208 155.872V174.592C464.208 174.976 464.088 175.096 463.728 175.096C463.344 175.12 462.096 175.12 460.8 175.072C461.088 175.576 461.304 176.416 461.376 176.896C463.176 176.896 464.328 176.872 465.048 176.56C465.744 176.248 465.984 175.672 465.984 174.616V155.872H464.208ZM447.192 155.872V157.24H453.192V162.376H447.192V163.744H454.896V155.872H447.192ZM465.072 155.872H457.008V163.768H465.072V162.424H458.736V157.24H465.072V155.872ZM446.112 155.872V176.944H447.888V155.872H446.112ZM486.264 156.304H484.008C484.104 156.664 484.2 157.192 484.248 157.72C484.32 158.728 484.416 162.448 484.416 163.984C484.416 168.592 484.296 171.328 481.728 173.56C481.128 174.16 480.144 174.76 479.4 175.072L481.152 176.416C486.24 173.44 486.24 169.504 486.24 164.008C486.24 162.664 486.144 158.608 486.168 157.72C486.168 157.168 486.192 156.688 486.264 156.304ZM477.48 161.272V163.168C478.536 163.264 480.216 163.336 481.392 163.336C484.44 163.336 487.8 163.12 490.128 162.736V160.792C487.728 161.344 484.32 161.536 481.368 161.536C480.048 161.536 478.536 161.44 477.48 161.272ZM474.12 156.664L471.888 156.424C471.864 156.856 471.84 157.504 471.768 158.032C471.48 160.048 470.856 163.72 470.856 167.632C470.856 170.632 471.624 173.752 472.104 175.24L473.76 175.048C473.736 174.784 473.688 174.472 473.688 174.232C473.664 173.944 473.712 173.488 473.784 173.152C474.048 171.952 474.768 169.504 475.344 167.848L474.312 167.224C473.88 168.4 473.352 169.864 473.04 170.896C472.104 166.96 472.944 161.704 473.712 158.224C473.808 157.768 473.976 157.096 474.12 156.664ZM500.976 161.08L501 162.88C502.392 162.976 503.64 163.048 505.008 163.048C507.864 163.048 510.768 162.856 513.312 162.424V160.576C510.888 161.056 507.936 161.296 505.056 161.296C503.64 161.296 502.344 161.224 500.976 161.08ZM509.376 156.784H507.216C507.288 157.216 507.336 157.84 507.336 158.248C507.312 159.088 507.336 160.624 507.336 162.256C507.336 165.424 507.648 169.936 507.648 171.664C507.648 173.248 507.072 174.28 505.032 174.28C503.328 174.28 502.128 173.632 502.128 172.384C502.128 171.232 503.376 170.44 505.176 170.44C508.224 170.44 510.624 172.072 513.168 174.424L514.2 172.84C512.184 171.016 509.376 168.976 505.32 168.976C502.176 168.976 500.4 170.56 500.4 172.576C500.4 174.736 502.176 176.032 505.368 176.032C508.608 176.032 509.52 174.112 509.52 172.144C509.52 169.648 509.16 165.928 509.16 162.232C509.16 160.816 509.184 159.112 509.232 158.224C509.256 157.768 509.304 157.264 509.376 156.784ZM497.544 156.952L495.432 156.76C495.432 157.288 495.36 157.912 495.264 158.464C494.976 160.456 494.184 165.04 494.184 168.568C494.184 171.808 494.616 174.448 495.072 176.176L496.776 176.032C496.752 175.768 496.704 175.432 496.704 175.192C496.68 174.904 496.728 174.448 496.8 174.112C497.04 172.936 497.928 170.488 498.528 168.808L497.544 168.04C497.112 169.024 496.536 170.488 496.176 171.568C495.984 170.392 495.912 169.408 495.912 168.232C495.912 165.544 496.632 160.792 497.112 158.56C497.184 158.128 497.4 157.36 497.544 156.952ZM511.464 155.992L510.264 156.376C510.744 157.288 511.296 158.728 511.656 159.784L512.88 159.352C512.544 158.368 511.896 156.88 511.464 155.992ZM513.864 155.272L512.688 155.656C513.168 156.544 513.72 157.936 514.08 159.016L515.304 158.584C514.944 157.624 514.32 156.16 513.864 155.272Z" fill="black"/>
<path d="M75.8295 178.545V156.727H80.875V158.398H77.7386V176.875H80.875V178.545H75.8295ZM93.593 179.602C91.8544 179.602 90.3175 179.364 88.9822 178.886C87.647 178.415 86.5249 177.719 85.6158 176.798C84.7067 175.878 84.0192 174.75 83.5533 173.415C83.0874 172.08 82.8544 170.551 82.8544 168.83C82.8544 167.165 83.0902 165.676 83.5618 164.364C84.0391 163.051 84.7294 161.938 85.6328 161.023C86.5419 160.102 87.6442 159.401 88.9396 158.918C90.2408 158.435 91.7124 158.193 93.3544 158.193C94.951 158.193 96.3487 158.455 97.5476 158.977C98.7521 159.494 99.7578 160.196 100.565 161.082C101.377 161.963 101.985 162.955 102.388 164.057C102.798 165.159 103.002 166.295 103.002 167.466C103.002 168.29 102.962 169.125 102.883 169.972C102.803 170.818 102.636 171.597 102.38 172.307C102.124 173.011 101.729 173.58 101.195 174.011C100.667 174.443 99.951 174.659 99.0476 174.659C98.6499 174.659 98.2124 174.597 97.7351 174.472C97.2578 174.347 96.8345 174.139 96.4652 173.849C96.0959 173.56 95.8771 173.17 95.8089 172.682H95.7067C95.5703 173.011 95.3601 173.324 95.076 173.619C94.7976 173.915 94.4311 174.151 93.9766 174.327C93.5277 174.503 92.9794 174.58 92.3317 174.557C91.593 174.528 90.9425 174.364 90.38 174.062C89.8175 173.756 89.3459 173.341 88.9652 172.818C88.5902 172.29 88.3061 171.679 88.1129 170.986C87.9254 170.287 87.8317 169.534 87.8317 168.727C87.8317 167.96 87.9453 167.259 88.1726 166.622C88.3999 165.986 88.7152 165.429 89.1186 164.952C89.5277 164.474 90.005 164.094 90.5504 163.81C91.1016 163.52 91.6953 163.341 92.3317 163.273C92.8999 163.216 93.4169 163.241 93.8828 163.349C94.3487 163.452 94.7322 163.608 95.0334 163.818C95.3345 164.023 95.5249 164.25 95.6044 164.5H95.7067V163.545H97.5135V171.25C97.5135 171.727 97.647 172.148 97.9141 172.511C98.1811 172.875 98.5703 173.057 99.0817 173.057C99.6612 173.057 100.104 172.858 100.411 172.46C100.724 172.062 100.937 171.449 101.05 170.619C101.17 169.79 101.229 168.727 101.229 167.432C101.229 166.67 101.124 165.92 100.914 165.182C100.71 164.437 100.397 163.741 99.9766 163.094C99.5618 162.446 99.0362 161.875 98.3999 161.381C97.7635 160.886 97.0163 160.5 96.1584 160.222C95.3061 159.937 94.3374 159.795 93.2521 159.795C91.9169 159.795 90.7209 160.003 89.6641 160.418C88.6129 160.827 87.718 161.426 86.9794 162.216C86.2464 163 85.6868 163.955 85.3004 165.08C84.9197 166.199 84.7294 167.472 84.7294 168.898C84.7294 170.347 84.9197 171.634 85.3004 172.759C85.6868 173.884 86.255 174.832 87.005 175.605C87.7607 176.378 88.6953 176.963 89.8089 177.361C90.9226 177.764 92.2067 177.966 93.6612 177.966C94.2862 177.966 94.9027 177.906 95.5107 177.787C96.1186 177.668 96.6555 177.537 97.1214 177.395C97.5874 177.253 97.9226 177.148 98.1271 177.08L98.6044 178.648C98.2521 178.795 97.7919 178.943 97.2237 179.091C96.6612 179.239 96.0589 179.361 95.4169 179.457C94.7805 179.554 94.1726 179.602 93.593 179.602ZM92.6044 172.818C93.3658 172.818 93.9822 172.665 94.4538 172.358C94.9254 172.051 95.2692 171.588 95.4851 170.969C95.701 170.349 95.8089 169.568 95.8089 168.625C95.8089 167.67 95.6896 166.926 95.451 166.392C95.2124 165.858 94.8601 165.483 94.3942 165.267C93.9283 165.051 93.3544 164.943 92.6726 164.943C92.0249 164.943 91.4709 165.114 91.0107 165.455C90.5561 165.79 90.2067 166.239 89.9624 166.801C89.7237 167.358 89.6044 167.966 89.6044 168.625C89.6044 169.352 89.701 170.037 89.8942 170.679C90.0874 171.315 90.4027 171.832 90.8402 172.23C91.2777 172.622 91.8658 172.818 92.6044 172.818ZM114.348 156.376L112.116 156.136C112.116 157.984 111.804 160.144 111.348 162.064C110.7 164.992 108.78 171.4 106.044 175.072L108.012 175.84C110.724 171.472 112.428 165.496 113.244 162.112C113.58 160.624 113.892 158.656 114.06 157.792C114.156 157.336 114.252 156.808 114.348 156.376ZM122.604 159.136L120.852 159.928C122.532 161.92 124.428 166.096 125.124 168.544L126.996 167.656C126.18 165.448 124.092 161.08 122.604 159.136ZM105.708 161.632L105.9 163.72C106.524 163.624 107.508 163.504 108.06 163.432C109.524 163.288 114.036 162.736 115.644 162.736C117.18 162.736 118.188 163.144 118.188 165.352C118.188 167.944 117.804 171.064 117.036 172.696C116.556 173.728 115.836 173.92 114.948 173.92C114.276 173.92 113.004 173.752 111.996 173.44L112.332 175.432C113.076 175.624 114.228 175.792 115.14 175.792C116.7 175.792 117.9 175.384 118.644 173.776C119.652 171.784 120.036 167.968 120.036 165.112C120.036 161.872 118.284 161.056 116.148 161.056C114.516 161.056 109.644 161.584 107.844 161.632C107.076 161.656 106.452 161.68 105.708 161.632ZM122.868 155.656L121.572 156.208C122.244 157.12 123.06 158.56 123.54 159.544L124.836 158.968C124.332 157.984 123.468 156.52 122.868 155.656ZM125.508 154.696L124.236 155.248C124.932 156.136 125.724 157.504 126.228 158.56L127.548 157.984C127.068 157.096 126.156 155.584 125.508 154.696ZM134.036 156.727V178.545H128.99V176.875H132.126V158.398H128.99V156.727H134.036Z" fill="black"/>
<path d="M53 187H523" stroke="black"/>
<path d="M168 120V275.5" stroke="black"/>
<path d="M437 187L419.5 289.5H340.5" stroke="black"/>
<path d="M354.584 267.948V269.604H366.752V267.948H354.584ZM355.04 272.748V274.38H366.248V272.748H355.04ZM353.84 277.788V279.468H367.088V277.788H353.84ZM359.648 268.524V285.42H361.4V268.524H359.648ZM363.944 263.316C363.512 264.588 362.696 266.46 362.072 267.612L363.464 268.116C364.16 267.036 364.976 265.356 365.696 263.892L363.944 263.316ZM355.616 264.012C356.384 265.308 357.152 267.06 357.416 268.188L358.976 267.564C358.688 266.46 357.896 264.756 357.08 263.484L355.616 264.012ZM346.04 270.612V272.052H353.192V270.612H346.04ZM346.16 264.204V265.644H353.144V264.204H346.16ZM346.04 273.828V275.268H353.192V273.828H346.04ZM344.912 267.348V268.836H354.032V267.348H344.912ZM346.904 277.068V278.556H351.608V282.564H346.904V284.076H353.192V277.068H346.904ZM346.016 277.068V285.18H347.576V277.068H346.016ZM376.16 264.804H373.712C373.856 265.5 373.928 266.34 373.928 267.228C373.928 269.748 373.688 275.82 373.688 279.372C373.688 283.308 376.064 284.724 379.52 284.724C384.776 284.724 387.896 281.724 389.528 279.444L388.184 277.812C386.456 280.308 383.96 282.756 379.568 282.756C377.288 282.756 375.632 281.844 375.632 279.204C375.632 275.628 375.824 269.94 375.92 267.228C375.968 266.436 376.04 265.596 376.16 264.804ZM408.896 265.812L407.096 264.228C406.832 264.66 406.208 265.356 405.728 265.836C404.12 267.468 400.472 270.348 398.648 271.86C396.488 273.684 396.224 274.716 398.48 276.612C400.736 278.46 404.36 281.58 406.064 283.308C406.64 283.908 407.216 284.484 407.72 285.06L409.424 283.5C406.88 280.932 402.632 277.524 400.448 275.724C398.888 274.428 398.912 274.068 400.352 272.82C402.128 271.332 405.584 268.62 407.24 267.18C407.624 266.844 408.368 266.196 408.896 265.812Z" fill="black"/>
<path d="M316 188L298.34 318H243.67H189" stroke="black"/>
<path d="M268.83 240.545V218.727H273.875V220.398H270.739V238.875H273.875V240.545H268.83ZM285.735 218.04L283.767 217.872C283.695 219 283.359 220.44 282.831 221.76C282.015 223.8 280.407 226.584 276.951 229.896L278.607 231.12C279.399 230.136 280.071 229.272 280.767 228.6C281.871 227.616 283.383 226.848 284.919 226.848C286.167 226.848 287.127 227.496 287.151 228.888C287.175 230.136 287.151 232.608 287.055 233.88H288.903C288.879 232.392 288.831 229.632 288.831 228.384C288.831 226.44 287.391 225.336 285.543 225.336C284.487 225.336 283.119 225.672 282.183 226.224C283.143 224.976 284.031 223.368 284.631 221.904C285.255 220.296 285.519 218.976 285.735 218.04ZM277.503 220.632V222.432C278.847 222.528 280.431 222.576 281.463 222.576C284.511 222.576 288.975 222.36 292.335 221.856V220.08C288.951 220.68 284.799 220.872 281.559 220.872C280.455 220.872 278.799 220.8 277.503 220.632ZM295.839 226.416L295.071 224.64C294.399 224.976 293.799 225.24 293.079 225.576C291.495 226.32 289.551 227.064 287.271 228.24C284.415 229.704 281.439 231.504 281.439 234.432C281.439 237.336 284.199 238.08 287.607 238.08C289.695 238.08 292.359 237.888 294.183 237.672L294.255 235.728C292.143 236.112 289.551 236.328 287.679 236.328C285.207 236.328 283.359 236.04 283.359 234.168C283.359 232.512 285.039 231.216 287.415 229.968C289.743 228.768 292.023 227.856 293.727 227.184C294.375 226.944 295.239 226.608 295.839 226.416ZM304.559 218.727V240.545H299.513V238.875H302.65V220.398H299.513V218.727H304.559Z" fill="black"/>
<path d="M207.384 288.824V290.384H218.808V288.824H207.384ZM213.984 292.64V294.128H219.696V292.64H213.984ZM209.496 293.24V294.656H213.648V293.24H209.496ZM209.496 297.632V299.096H213.648V297.632H209.496ZM212.952 289.448V307.088H214.44V289.448H212.952ZM208.728 289.352V303.656L210.192 303.368V289.352H208.728ZM206.88 303.584L207.216 305.096C209.04 304.664 211.392 304.088 213.672 303.536L213.504 302.144C211.032 302.72 208.56 303.248 206.88 303.584ZM219.264 292.64V293C218.784 298.928 217.248 303.128 214.848 305.336C215.184 305.576 215.688 306.224 215.904 306.584C218.496 304.184 220.2 299.6 220.8 292.88L219.864 292.616L219.576 292.64H219.264ZM216.264 294.824L214.992 295.112C215.856 300.128 217.488 304.568 220.272 306.776C220.512 306.392 220.992 305.864 221.352 305.576C218.688 303.68 217.032 299.456 216.264 294.824ZM199.8 290.696V292.28H207.696V290.696H199.8ZM199.2 295.112V296.744H208.152V295.112H199.2ZM204.192 299.768V301.4H207.984V299.768H204.192ZM203.232 287.84V296.12H204.888V287.84H203.232ZM203.592 296.216V307.16H205.2V296.216H203.592ZM201.648 301.52L200.328 301.976C201.984 308.024 204.96 309.296 211.44 309.296H220.392C220.512 308.768 220.848 307.952 221.136 307.52C219.696 307.592 212.544 307.568 211.44 307.568C205.848 307.568 203.016 306.56 201.648 301.52ZM200.256 298.592C200.352 301.832 200.184 305.912 198.552 308.84C198.912 309.008 199.488 309.512 199.752 309.872C201.624 306.656 201.816 302.264 201.768 298.664L200.256 298.592ZM230.928 297.608V299.336H244.824V297.608H230.928ZM231.864 291.8V293.528H243.816V291.8H231.864ZM236.76 287.984V309.896H238.56V287.984H236.76ZM236.376 298.544C234.984 302.048 232.272 305.48 229.368 307.112C229.8 307.472 230.328 308.096 230.616 308.528C233.568 306.608 236.304 302.936 237.816 299L236.376 298.544ZM238.968 298.52L237.576 299C238.92 302.672 241.32 306.464 243.768 308.504C244.08 308.024 244.68 307.352 245.112 307.016C242.664 305.312 240.24 301.856 238.968 298.52ZM224.64 290.048V291.776H228.408V302.288H224.64V304.016H230.064V290.048H224.64ZM223.752 290.048V305.912H225.408V290.048H223.752ZM250.224 289.472V309.656H252.072V291.296H264.048V309.56H265.944V289.472H250.224ZM251.448 297.8V299.576H264.84V297.8H251.448ZM251.424 306.296V308.096H264.888V306.296H251.424ZM284.448 301.736H282.912V306.32H284.448V301.736ZM288.6 299.648H286.968V309.968H288.6V299.648ZM292.848 305.528H280.488V306.944H292.848V305.528ZM292.152 301.184H281.664V302.648H292.152V301.184ZM274.536 303.008L273.384 303.824C274.512 304.592 275.88 305.72 276.528 306.464L277.728 305.576C277.056 304.832 275.664 303.728 274.536 303.008ZM279.888 301.208H279.528V301.496C278.328 305.312 275.256 307.568 271.536 308.672C271.896 308.936 272.376 309.584 272.592 309.968C276.456 308.672 279.72 306.152 281.16 301.616L280.176 301.16L279.888 301.208ZM277.416 299.624L275.928 299.24C274.896 301.328 272.928 303.128 270.816 304.28C271.176 304.544 271.752 305.096 271.992 305.36C274.104 304.064 276.216 302.024 277.416 299.624ZM289.104 290.528H287.424V298.52H289.104V290.528ZM284.784 290.528H283.272V298.52H284.784V290.528ZM280.584 290.528H279.024V298.52H280.584V290.528ZM276.504 290.528H274.848V298.52H276.504V290.528ZM292.248 297.8H271.896V299.288H292.248V297.8ZM292.632 293.912H271.368V295.4H292.632V293.912ZM280.008 301.208H275.544L274.32 302.504H280.008V301.208ZM291.528 290.024H275.496L274.08 291.512H291.528V290.024ZM277.44 288.128L275.688 287.816C274.92 289.304 273.504 291.152 271.584 292.52C271.992 292.736 272.592 293.192 272.904 293.552C274.944 291.944 276.408 290 277.44 288.128Z" fill="black"/>
<path d="M193.08 31.664V33.296H214.92V31.664H193.08ZM197.784 16.832V18.464H209.352V16.832H197.784ZM195.72 25.4V32.432H197.4V26.936H200.688V32.432H202.344V26.936H205.656V32.432H207.336V26.936H210.696V32.432H212.448V25.4H195.72ZM200.088 11.864C198.672 14.48 195.96 16.544 192.96 17.792C193.344 18.104 194.016 18.776 194.304 19.112C197.256 17.648 200.184 15.344 201.792 12.368L200.088 11.864ZM207.912 11.816L206.4 12.488C208.224 15.08 211.32 17.84 213.984 19.232C214.272 18.776 214.824 18.128 215.232 17.792C212.592 16.616 209.496 14.144 207.912 11.816ZM208.68 16.832V17.096C208.416 20.744 208.128 22.232 207.672 22.616C207.456 22.832 207.216 22.856 206.784 22.856C206.328 22.856 205.104 22.832 203.832 22.712C204.12 23.144 204.312 23.816 204.336 24.296C205.632 24.368 206.88 24.368 207.528 24.32C208.248 24.296 208.728 24.152 209.16 23.696C209.784 23.096 210.12 21.512 210.432 17.6C210.48 17.36 210.504 16.832 210.504 16.832H208.68ZM201.576 17.528C201.072 20.552 199.704 22.52 194.76 23.528C195.12 23.84 195.552 24.536 195.696 24.968C201.096 23.72 202.752 21.296 203.376 17.528H201.576ZM219.576 14.456H223.872V18.68H219.576V14.456ZM218.04 12.896V20.216H225.504V12.896H218.04ZM221.424 19.52V30.488H223.008V19.52H221.424ZM218.04 22.52V31.208H219.504V22.52H218.04ZM216.816 30.992L217.272 32.696C219.624 32.048 222.816 31.136 225.84 30.272L225.6 28.688C222.384 29.576 219.024 30.488 216.816 30.992ZM221.88 23.576V25.184H225.648V23.576H221.88ZM226.968 12.968V14.528H236.832V12.968H226.968ZM228.12 16.424C230.088 17.432 232.584 18.968 233.832 20L234.888 18.776C233.592 17.744 231.072 16.28 229.152 15.344L228.12 16.424ZM226.536 18.872V33.92H228.216V20.432H237.528V18.872H226.536ZM227.448 23.144V24.656H237.672V23.144H227.448ZM227.472 27.464V29.024H237.696V27.464H227.472ZM236.424 18.872V31.952C236.424 32.264 236.352 32.384 236.04 32.408C235.704 32.408 234.696 32.408 233.52 32.384C233.736 32.816 233.952 33.488 234.024 33.92C235.632 33.944 236.688 33.92 237.312 33.656C237.96 33.392 238.152 32.912 238.152 31.976V18.872H236.424ZM231.48 19.448V33.776H233.088V19.448H231.48ZM236.208 12.968V13.328C235.176 14.624 233.016 16.4 231.24 17.408C231.528 17.648 232.008 18.176 232.248 18.488C234.24 17.36 236.592 15.488 238.128 13.736L236.976 12.872L236.64 12.968H236.208ZM248.112 13.064L246.024 12.992C245.976 13.664 245.928 14.336 245.832 15.056C245.544 17.024 245.088 20.552 245.088 22.832C245.088 24.392 245.208 25.736 245.328 26.648L247.2 26.504C247.032 25.304 247.032 24.464 247.152 23.552C247.44 20.408 250.224 16.04 253.224 16.04C255.744 16.04 257.016 18.776 257.016 22.568C257.016 28.592 252.96 30.704 247.728 31.496L248.88 33.224C254.808 32.144 259.008 29.192 259.008 22.544C259.008 17.504 256.704 14.288 253.536 14.288C250.488 14.288 247.992 17.288 247.008 19.76C247.152 18.08 247.608 14.84 248.112 13.064ZM273.58 35.5455V13.7273H278.625V15.3977H275.489V33.875H278.625V35.5455H273.58ZM289.333 13.472L287.053 13.28C287.101 13.784 287.053 14.6 286.957 15.272C286.789 16.544 286.165 19.544 285.565 21.752C284.677 25.136 282.997 30.032 281.533 32.504L283.645 33.2C284.917 30.584 286.525 25.616 287.389 22.208C288.061 19.832 288.565 17.096 288.901 15.368C288.997 14.912 289.189 14 289.333 13.472ZM284.029 17.48C283.141 17.48 282.277 17.456 281.149 17.312L281.197 19.16C282.085 19.232 282.925 19.256 283.981 19.256C286.573 19.256 290.197 18.872 293.173 18.2V16.304C290.197 17.072 286.669 17.48 284.029 17.48ZM291.613 20.792V22.568C293.077 22.4 294.541 22.328 296.053 22.328C297.469 22.328 298.861 22.448 300.109 22.592L300.157 20.768C298.861 20.624 297.397 20.576 296.005 20.576C294.445 20.576 292.861 20.672 291.613 20.792ZM292.093 26.624L290.317 26.432C290.101 27.464 289.957 28.352 289.957 29.264C289.957 31.64 292.021 32.816 295.789 32.816C297.541 32.816 299.149 32.648 300.445 32.48L300.517 30.536C299.029 30.824 297.373 31.016 295.813 31.016C292.405 31.016 291.757 29.912 291.757 28.784C291.757 28.16 291.901 27.392 292.093 26.624ZM297.541 14.216L296.269 14.744C296.917 15.656 297.757 17.12 298.237 18.08L299.533 17.504C299.029 16.544 298.165 15.056 297.541 14.216ZM300.205 13.232L298.933 13.784C299.605 14.696 300.421 16.04 300.925 17.096L302.221 16.52C301.765 15.608 300.853 14.12 300.205 13.232ZM309.309 13.7273V35.5455H304.263V33.875H307.4V15.3977H304.263V13.7273H309.309Z" fill="black"/>
<path d="M75.8295 35.5455V13.7273H80.875V15.3977H77.7386V33.875H80.875V35.5455H75.8295ZM93.593 36.6023C91.8544 36.6023 90.3175 36.3636 88.9822 35.8864C87.647 35.4148 86.5249 34.7188 85.6158 33.7983C84.7067 32.8778 84.0192 31.75 83.5533 30.4148C83.0874 29.0795 82.8544 27.5511 82.8544 25.8295C82.8544 24.1648 83.0902 22.6761 83.5618 21.3636C84.0391 20.0511 84.7294 18.9375 85.6328 18.0227C86.5419 17.1023 87.6442 16.4006 88.9396 15.9176C90.2408 15.4347 91.7124 15.1932 93.3544 15.1932C94.951 15.1932 96.3487 15.4545 97.5476 15.9773C98.7521 16.4943 99.7578 17.196 100.565 18.0824C101.377 18.9631 101.985 19.9545 102.388 21.0568C102.798 22.1591 103.002 23.2955 103.002 24.4659C103.002 25.2898 102.962 26.125 102.883 26.9716C102.803 27.8182 102.636 28.5966 102.38 29.3068C102.124 30.0114 101.729 30.5795 101.195 31.0114C100.667 31.4432 99.951 31.6591 99.0476 31.6591C98.6499 31.6591 98.2124 31.5966 97.7351 31.4716C97.2578 31.3466 96.8345 31.1392 96.4652 30.8494C96.0959 30.5597 95.8771 30.1705 95.8089 29.6818H95.7067C95.5703 30.0114 95.3601 30.3239 95.076 30.6193C94.7976 30.9148 94.4311 31.1506 93.9766 31.3267C93.5277 31.5028 92.9794 31.5795 92.3317 31.5568C91.593 31.5284 90.9425 31.3636 90.38 31.0625C89.8175 30.7557 89.3459 30.3409 88.9652 29.8182C88.5902 29.2898 88.3061 28.679 88.1129 27.9858C87.9254 27.2869 87.8317 26.5341 87.8317 25.7273C87.8317 24.9602 87.9453 24.2585 88.1726 23.6222C88.3999 22.9858 88.7152 22.429 89.1186 21.9517C89.5277 21.4744 90.005 21.0937 90.5504 20.8097C91.1016 20.5199 91.6953 20.3409 92.3317 20.2727C92.8999 20.2159 93.4169 20.2415 93.8828 20.3494C94.3487 20.4517 94.7322 20.608 95.0334 20.8182C95.3345 21.0227 95.5249 21.25 95.6044 21.5H95.7067V20.5455H97.5135V28.25C97.5135 28.7273 97.647 29.1477 97.9141 29.5114C98.1811 29.875 98.5703 30.0568 99.0817 30.0568C99.6612 30.0568 100.104 29.858 100.411 29.4602C100.724 29.0625 100.937 28.4489 101.05 27.6193C101.17 26.7898 101.229 25.7273 101.229 24.4318C101.229 23.6705 101.124 22.9205 100.914 22.1818C100.71 21.4375 100.397 20.7415 99.9766 20.0938C99.5618 19.446 99.0362 18.875 98.3999 18.3807C97.7635 17.8864 97.0163 17.5 96.1584 17.2216C95.3061 16.9375 94.3374 16.7955 93.2521 16.7955C91.9169 16.7955 90.7209 17.0028 89.6641 17.4176C88.6129 17.8267 87.718 18.4261 86.9794 19.2159C86.2464 20 85.6868 20.9545 85.3004 22.0795C84.9197 23.1989 84.7294 24.4716 84.7294 25.8977C84.7294 27.3466 84.9197 28.6335 85.3004 29.7585C85.6868 30.8835 86.255 31.8324 87.005 32.6051C87.7607 33.3778 88.6953 33.9631 89.8089 34.3608C90.9226 34.7642 92.2067 34.9659 93.6612 34.9659C94.2862 34.9659 94.9027 34.9063 95.5107 34.7869C96.1186 34.6676 96.6555 34.5369 97.1214 34.3949C97.5874 34.2528 97.9226 34.1477 98.1271 34.0795L98.6044 35.6477C98.2521 35.7955 97.7919 35.9432 97.2237 36.0909C96.6612 36.2386 96.0589 36.3608 95.4169 36.4574C94.7805 36.554 94.1726 36.6023 93.593 36.6023ZM92.6044 29.8182C93.3658 29.8182 93.9822 29.6648 94.4538 29.358C94.9254 29.0511 95.2692 28.5881 95.4851 27.9688C95.701 27.3494 95.8089 26.5682 95.8089 25.625C95.8089 24.6705 95.6896 23.9261 95.451 23.392C95.2124 22.858 94.8601 22.483 94.3942 22.267C93.9283 22.0511 93.3544 21.9432 92.6726 21.9432C92.0249 21.9432 91.4709 22.1136 91.0107 22.4545C90.5561 22.7898 90.2067 23.2386 89.9624 23.8011C89.7237 24.358 89.6044 24.9659 89.6044 25.625C89.6044 26.3523 89.701 27.0369 89.8942 27.679C90.0874 28.3153 90.4027 28.8324 90.8402 29.2301C91.2777 29.6222 91.8658 29.8182 92.6044 29.8182ZM114.348 13.376L112.116 13.136C112.116 14.984 111.804 17.144 111.348 19.064C110.7 21.992 108.78 28.4 106.044 32.072L108.012 32.84C110.724 28.472 112.428 22.496 113.244 19.112C113.58 17.624 113.892 15.656 114.06 14.792C114.156 14.336 114.252 13.808 114.348 13.376ZM122.604 16.136L120.852 16.928C122.532 18.92 124.428 23.096 125.124 25.544L126.996 24.656C126.18 22.448 124.092 18.08 122.604 16.136ZM105.708 18.632L105.9 20.72C106.524 20.624 107.508 20.504 108.06 20.432C109.524 20.288 114.036 19.736 115.644 19.736C117.18 19.736 118.188 20.144 118.188 22.352C118.188 24.944 117.804 28.064 117.036 29.696C116.556 30.728 115.836 30.92 114.948 30.92C114.276 30.92 113.004 30.752 111.996 30.44L112.332 32.432C113.076 32.624 114.228 32.792 115.14 32.792C116.7 32.792 117.9 32.384 118.644 30.776C119.652 28.784 120.036 24.968 120.036 22.112C120.036 18.872 118.284 18.056 116.148 18.056C114.516 18.056 109.644 18.584 107.844 18.632C107.076 18.656 106.452 18.68 105.708 18.632ZM122.868 12.656L121.572 13.208C122.244 14.12 123.06 15.56 123.54 16.544L124.836 15.968C124.332 14.984 123.468 13.52 122.868 12.656ZM125.508 11.696L124.236 12.248C124.932 13.136 125.724 14.504 126.228 15.56L127.548 14.984C127.068 14.096 126.156 12.584 125.508 11.696ZM134.036 13.7273V35.5455H128.99V33.875H132.126V15.3977H128.99V13.7273H134.036Z" fill="black"/>
<path d="M53 44H321" stroke="black"/>
<path d="M168 0L168 76" stroke="black"/>
<path d="M69 25.5H1V306.5H188" stroke="black" stroke-dasharray="4 4"/>
<path d="M168 76V120" stroke="black" stroke-dasharray="4 4"/>
</svg>
