<svg width="736" height="277" viewBox="0 0 736 277" fill="none" xmlns="http://www.w3.org/2000/svg">
<path d="M349.928 123.112V124.432H361.952V123.112H349.928ZM352.808 125.872V127.024H359.168V125.872H352.808ZM352.808 128.536V129.688H359.168V128.536H352.808ZM358.52 123.712V134.368H360.176V123.712H358.52ZM351.728 123.736V132.064H353.336V123.736H351.728ZM349.664 131.656L349.736 133.12C352.304 132.928 355.904 132.712 359.432 132.448L359.456 131.104C355.808 131.344 352.088 131.56 349.664 131.656ZM347.048 117.136V118.384H353.792V117.136H347.048ZM358.112 117.136V118.384H364.904V117.136H358.112ZM364.208 113.872V132.592C364.208 132.976 364.088 133.096 363.728 133.096C363.344 133.12 362.096 133.12 360.8 133.072C361.088 133.576 361.304 134.416 361.376 134.896C363.176 134.896 364.328 134.872 365.048 134.56C365.744 134.248 365.984 133.672 365.984 132.616V113.872H364.208ZM347.192 113.872V115.24H353.192V120.376H347.192V121.744H354.896V113.872H347.192ZM365.072 113.872H357.008V121.768H365.072V120.424H358.736V115.24H365.072V113.872ZM346.112 113.872V134.944H347.888V113.872H346.112ZM386.264 114.304H384.008C384.104 114.664 384.2 115.192 384.248 115.72C384.32 116.728 384.416 120.448 384.416 121.984C384.416 126.592 384.296 129.328 381.728 131.56C381.128 132.16 380.144 132.76 379.4 133.072L381.152 134.416C386.24 131.44 386.24 127.504 386.24 122.008C386.24 120.664 386.144 116.608 386.168 115.72C386.168 115.168 386.192 114.688 386.264 114.304ZM377.48 119.272V121.168C378.536 121.264 380.216 121.336 381.392 121.336C384.44 121.336 387.8 121.12 390.128 120.736V118.792C387.728 119.344 384.32 119.536 381.368 119.536C380.048 119.536 378.536 119.44 377.48 119.272ZM374.12 114.664L371.888 114.424C371.864 114.856 371.84 115.504 371.768 116.032C371.48 118.048 370.856 121.72 370.856 125.632C370.856 128.632 371.624 131.752 372.104 133.24L373.76 133.048C373.736 132.784 373.688 132.472 373.688 132.232C373.664 131.944 373.712 131.488 373.784 131.152C374.048 129.952 374.768 127.504 375.344 125.848L374.312 125.224C373.88 126.4 373.352 127.864 373.04 128.896C372.104 124.96 372.944 119.704 373.712 116.224C373.808 115.768 373.976 115.096 374.12 114.664ZM400.976 119.08L401 120.88C402.392 120.976 403.64 121.048 405.008 121.048C407.864 121.048 410.768 120.856 413.312 120.424V118.576C410.888 119.056 407.936 119.296 405.056 119.296C403.64 119.296 402.344 119.224 400.976 119.08ZM409.376 114.784H407.216C407.288 115.216 407.336 115.84 407.336 116.248C407.312 117.088 407.336 118.624 407.336 120.256C407.336 123.424 407.648 127.936 407.648 129.664C407.648 131.248 407.072 132.28 405.032 132.28C403.328 132.28 402.128 131.632 402.128 130.384C402.128 129.232 403.376 128.44 405.176 128.44C408.224 128.44 410.624 130.072 413.168 132.424L414.2 130.84C412.184 129.016 409.376 126.976 405.32 126.976C402.176 126.976 400.4 128.56 400.4 130.576C400.4 132.736 402.176 134.032 405.368 134.032C408.608 134.032 409.52 132.112 409.52 130.144C409.52 127.648 409.16 123.928 409.16 120.232C409.16 118.816 409.184 117.112 409.232 116.224C409.256 115.768 409.304 115.264 409.376 114.784ZM397.544 114.952L395.432 114.76C395.432 115.288 395.36 115.912 395.264 116.464C394.976 118.456 394.184 123.04 394.184 126.568C394.184 129.808 394.616 132.448 395.072 134.176L396.776 134.032C396.752 133.768 396.704 133.432 396.704 133.192C396.68 132.904 396.728 132.448 396.8 132.112C397.04 130.936 397.928 128.488 398.528 126.808L397.544 126.04C397.112 127.024 396.536 128.488 396.176 129.568C395.984 128.392 395.912 127.408 395.912 126.232C395.912 123.544 396.632 118.792 397.112 116.56C397.184 116.128 397.4 115.36 397.544 114.952ZM411.464 113.992L410.264 114.376C410.744 115.288 411.296 116.728 411.656 117.784L412.88 117.352C412.544 116.368 411.896 114.88 411.464 113.992ZM413.864 113.272L412.688 113.656C413.168 114.544 413.72 115.936 414.08 117.016L415.304 116.584C414.944 115.624 414.32 114.16 413.864 113.272Z" fill="black"/>
<path d="M22.8295 136.545V114.727H27.875V116.398H24.7386V134.875H27.875V136.545H22.8295ZM40.593 137.602C38.8544 137.602 37.3175 137.364 35.9822 136.886C34.647 136.415 33.5249 135.719 32.6158 134.798C31.7067 133.878 31.0192 132.75 30.5533 131.415C30.0874 130.08 29.8544 128.551 29.8544 126.83C29.8544 125.165 30.0902 123.676 30.5618 122.364C31.0391 121.051 31.7294 119.938 32.6328 119.023C33.5419 118.102 34.6442 117.401 35.9396 116.918C37.2408 116.435 38.7124 116.193 40.3544 116.193C41.951 116.193 43.3487 116.455 44.5476 116.977C45.7521 117.494 46.7578 118.196 47.5646 119.082C48.3771 119.963 48.9851 120.955 49.3885 122.057C49.7976 123.159 50.0021 124.295 50.0021 125.466C50.0021 126.29 49.9624 127.125 49.8828 127.972C49.8033 128.818 49.6357 129.597 49.38 130.307C49.1243 131.011 48.7294 131.58 48.1953 132.011C47.6669 132.443 46.951 132.659 46.0476 132.659C45.6499 132.659 45.2124 132.597 44.7351 132.472C44.2578 132.347 43.8345 132.139 43.4652 131.849C43.0959 131.56 42.8771 131.17 42.8089 130.682H42.7067C42.5703 131.011 42.3601 131.324 42.076 131.619C41.7976 131.915 41.4311 132.151 40.9766 132.327C40.5277 132.503 39.9794 132.58 39.3317 132.557C38.593 132.528 37.9425 132.364 37.38 132.062C36.8175 131.756 36.3459 131.341 35.9652 130.818C35.5902 130.29 35.3061 129.679 35.1129 128.986C34.9254 128.287 34.8317 127.534 34.8317 126.727C34.8317 125.96 34.9453 125.259 35.1726 124.622C35.3999 123.986 35.7152 123.429 36.1186 122.952C36.5277 122.474 37.005 122.094 37.5504 121.81C38.1016 121.52 38.6953 121.341 39.3317 121.273C39.8999 121.216 40.4169 121.241 40.8828 121.349C41.3487 121.452 41.7322 121.608 42.0334 121.818C42.3345 122.023 42.5249 122.25 42.6044 122.5H42.7067V121.545H44.5135V129.25C44.5135 129.727 44.647 130.148 44.9141 130.511C45.1811 130.875 45.5703 131.057 46.0817 131.057C46.6612 131.057 47.1044 130.858 47.4112 130.46C47.7237 130.062 47.9368 129.449 48.0504 128.619C48.1697 127.79 48.2294 126.727 48.2294 125.432C48.2294 124.67 48.1243 123.92 47.9141 123.182C47.7095 122.437 47.397 121.741 46.9766 121.094C46.5618 120.446 46.0362 119.875 45.3999 119.381C44.7635 118.886 44.0163 118.5 43.1584 118.222C42.3061 117.937 41.3374 117.795 40.2521 117.795C38.9169 117.795 37.7209 118.003 36.6641 118.418C35.6129 118.827 34.718 119.426 33.9794 120.216C33.2464 121 32.6868 121.955 32.3004 123.08C31.9197 124.199 31.7294 125.472 31.7294 126.898C31.7294 128.347 31.9197 129.634 32.3004 130.759C32.6868 131.884 33.255 132.832 34.005 133.605C34.7607 134.378 35.6953 134.963 36.8089 135.361C37.9226 135.764 39.2067 135.966 40.6612 135.966C41.2862 135.966 41.9027 135.906 42.5107 135.787C43.1186 135.668 43.6555 135.537 44.1214 135.395C44.5874 135.253 44.9226 135.148 45.1271 135.08L45.6044 136.648C45.2521 136.795 44.7919 136.943 44.2237 137.091C43.6612 137.239 43.0589 137.361 42.4169 137.457C41.7805 137.554 41.1726 137.602 40.593 137.602ZM39.6044 130.818C40.3658 130.818 40.9822 130.665 41.4538 130.358C41.9254 130.051 42.2692 129.588 42.4851 128.969C42.701 128.349 42.8089 127.568 42.8089 126.625C42.8089 125.67 42.6896 124.926 42.451 124.392C42.2124 123.858 41.8601 123.483 41.3942 123.267C40.9283 123.051 40.3544 122.943 39.6726 122.943C39.0249 122.943 38.4709 123.114 38.0107 123.455C37.5561 123.79 37.2067 124.239 36.9624 124.801C36.7237 125.358 36.6044 125.966 36.6044 126.625C36.6044 127.352 36.701 128.037 36.8942 128.679C37.0874 129.315 37.4027 129.832 37.8402 130.23C38.2777 130.622 38.8658 130.818 39.6044 130.818ZM61.3479 114.376L59.1159 114.136C59.1159 115.984 58.8039 118.144 58.3479 120.064C57.6999 122.992 55.7799 129.4 53.0439 133.072L55.0119 133.84C57.7239 129.472 59.4279 123.496 60.2439 120.112C60.5799 118.624 60.8919 116.656 61.0599 115.792C61.1559 115.336 61.2519 114.808 61.3479 114.376ZM69.6039 117.136L67.8519 117.928C69.5319 119.92 71.4279 124.096 72.1239 126.544L73.9959 125.656C73.1799 123.448 71.0919 119.08 69.6039 117.136ZM52.7079 119.632L52.8999 121.72C53.5239 121.624 54.5079 121.504 55.0599 121.432C56.5239 121.288 61.0359 120.736 62.6439 120.736C64.1799 120.736 65.1879 121.144 65.1879 123.352C65.1879 125.944 64.8039 129.064 64.0359 130.696C63.5559 131.728 62.8359 131.92 61.9479 131.92C61.2759 131.92 60.0039 131.752 58.9959 131.44L59.3319 133.432C60.0759 133.624 61.2279 133.792 62.1399 133.792C63.6999 133.792 64.8999 133.384 65.6439 131.776C66.6519 129.784 67.0359 125.968 67.0359 123.112C67.0359 119.872 65.2839 119.056 63.1479 119.056C61.5159 119.056 56.6439 119.584 54.8439 119.632C54.0759 119.656 53.4519 119.68 52.7079 119.632ZM69.8679 113.656L68.5719 114.208C69.2439 115.12 70.0599 116.56 70.5399 117.544L71.8359 116.968C71.3319 115.984 70.4679 114.52 69.8679 113.656ZM72.5079 112.696L71.2359 113.248C71.9319 114.136 72.7239 115.504 73.2279 116.56L74.5479 115.984C74.0679 115.096 73.1559 113.584 72.5079 112.696ZM81.0355 114.727V136.545H75.9901V134.875H79.1264V116.398H75.9901V114.727H81.0355Z" fill="black"/>
<path d="M0 145H427" stroke="black"/>
<path d="M115 78V196" stroke="black"/>
<path d="M325 145L307.5 247.5H228.5" stroke="black"/>
<path d="M242.584 225.948V227.604H254.752V225.948H242.584ZM243.04 230.748V232.38H254.248V230.748H243.04ZM241.84 235.788V237.468H255.088V235.788H241.84ZM247.648 226.524V243.42H249.4V226.524H247.648ZM251.944 221.316C251.512 222.588 250.696 224.46 250.072 225.612L251.464 226.116C252.16 225.036 252.976 223.356 253.696 221.892L251.944 221.316ZM243.616 222.012C244.384 223.308 245.152 225.06 245.416 226.188L246.976 225.564C246.688 224.46 245.896 222.756 245.08 221.484L243.616 222.012ZM234.04 228.612V230.052H241.192V228.612H234.04ZM234.16 222.204V223.644H241.144V222.204H234.16ZM234.04 231.828V233.268H241.192V231.828H234.04ZM232.912 225.348V226.836H242.032V225.348H232.912ZM234.904 235.068V236.556H239.608V240.564H234.904V242.076H241.192V235.068H234.904ZM234.016 235.068V243.18H235.576V235.068H234.016ZM264.16 222.804H261.712C261.856 223.5 261.928 224.34 261.928 225.228C261.928 227.748 261.688 233.82 261.688 237.372C261.688 241.308 264.064 242.724 267.52 242.724C272.776 242.724 275.896 239.724 277.528 237.444L276.184 235.812C274.456 238.308 271.96 240.756 267.568 240.756C265.288 240.756 263.632 239.844 263.632 237.204C263.632 233.628 263.824 227.94 263.92 225.228C263.968 224.436 264.04 223.596 264.16 222.804ZM296.896 223.812L295.096 222.228C294.832 222.66 294.208 223.356 293.728 223.836C292.12 225.468 288.472 228.348 286.648 229.86C284.488 231.684 284.224 232.716 286.48 234.612C288.736 236.46 292.36 239.58 294.064 241.308C294.64 241.908 295.216 242.484 295.72 243.06L297.424 241.5C294.88 238.932 290.632 235.524 288.448 233.724C286.888 232.428 286.912 232.068 288.352 230.82C290.128 229.332 293.584 226.62 295.24 225.18C295.624 224.844 296.368 224.196 296.896 223.812Z" fill="black"/>
<path d="M204 146L186.34 276H131.67H77" stroke="black"/>
<path d="M156.83 198.545V176.727H161.875V178.398H158.739V196.875H161.875V198.545H156.83ZM173.735 176.04L171.767 175.872C171.695 177 171.359 178.44 170.831 179.76C170.015 181.8 168.407 184.584 164.951 187.896L166.607 189.12C167.399 188.136 168.071 187.272 168.767 186.6C169.871 185.616 171.383 184.848 172.919 184.848C174.167 184.848 175.127 185.496 175.151 186.888C175.175 188.136 175.151 190.608 175.055 191.88H176.903C176.879 190.392 176.831 187.632 176.831 186.384C176.831 184.44 175.391 183.336 173.543 183.336C172.487 183.336 171.119 183.672 170.183 184.224C171.143 182.976 172.031 181.368 172.631 179.904C173.255 178.296 173.519 176.976 173.735 176.04ZM165.503 178.632V180.432C166.847 180.528 168.431 180.576 169.463 180.576C172.511 180.576 176.975 180.36 180.335 179.856V178.08C176.951 178.68 172.799 178.872 169.559 178.872C168.455 178.872 166.799 178.8 165.503 178.632ZM183.839 184.416L183.071 182.64C182.399 182.976 181.799 183.24 181.079 183.576C179.495 184.32 177.551 185.064 175.271 186.24C172.415 187.704 169.439 189.504 169.439 192.432C169.439 195.336 172.199 196.08 175.607 196.08C177.695 196.08 180.359 195.888 182.183 195.672L182.255 193.728C180.143 194.112 177.551 194.328 175.679 194.328C173.207 194.328 171.359 194.04 171.359 192.168C171.359 190.512 173.039 189.216 175.415 187.968C177.743 186.768 180.023 185.856 181.727 185.184C182.375 184.944 183.239 184.608 183.839 184.416ZM192.559 176.727V198.545H187.513V196.875H190.65V178.398H187.513V176.727H192.559Z" fill="black"/>
<path d="M95.384 246.824V248.384H106.808V246.824H95.384ZM101.984 250.64V252.128H107.696V250.64H101.984ZM97.496 251.24V252.656H101.648V251.24H97.496ZM97.496 255.632V257.096H101.648V255.632H97.496ZM100.952 247.448V265.088H102.44V247.448H100.952ZM96.728 247.352V261.656L98.192 261.368V247.352H96.728ZM94.88 261.584L95.216 263.096C97.04 262.664 99.392 262.088 101.672 261.536L101.504 260.144C99.032 260.72 96.56 261.248 94.88 261.584ZM107.264 250.64V251C106.784 256.928 105.248 261.128 102.848 263.336C103.184 263.576 103.688 264.224 103.904 264.584C106.496 262.184 108.2 257.6 108.8 250.88L107.864 250.616L107.576 250.64H107.264ZM104.264 252.824L102.992 253.112C103.856 258.128 105.488 262.568 108.272 264.776C108.512 264.392 108.992 263.864 109.352 263.576C106.688 261.68 105.032 257.456 104.264 252.824ZM87.8 248.696V250.28H95.696V248.696H87.8ZM87.2 253.112V254.744H96.152V253.112H87.2ZM92.192 257.768V259.4H95.984V257.768H92.192ZM91.232 245.84V254.12H92.888V245.84H91.232ZM91.592 254.216V265.16H93.2V254.216H91.592ZM89.648 259.52L88.328 259.976C89.984 266.024 92.96 267.296 99.44 267.296H108.392C108.512 266.768 108.848 265.952 109.136 265.52C107.696 265.592 100.544 265.568 99.44 265.568C93.848 265.568 91.016 264.56 89.648 259.52ZM88.256 256.592C88.352 259.832 88.184 263.912 86.552 266.84C86.912 267.008 87.488 267.512 87.752 267.872C89.624 264.656 89.816 260.264 89.768 256.664L88.256 256.592ZM118.928 255.608V257.336H132.824V255.608H118.928ZM119.864 249.8V251.528H131.816V249.8H119.864ZM124.76 245.984V267.896H126.56V245.984H124.76ZM124.376 256.544C122.984 260.048 120.272 263.48 117.368 265.112C117.8 265.472 118.328 266.096 118.616 266.528C121.568 264.608 124.304 260.936 125.816 257L124.376 256.544ZM126.968 256.52L125.576 257C126.92 260.672 129.32 264.464 131.768 266.504C132.08 266.024 132.68 265.352 133.112 265.016C130.664 263.312 128.24 259.856 126.968 256.52ZM112.64 248.048V249.776H116.408V260.288H112.64V262.016H118.064V248.048H112.64ZM111.752 248.048V263.912H113.408V248.048H111.752ZM138.224 247.472V267.656H140.072V249.296H152.048V267.56H153.944V247.472H138.224ZM139.448 255.8V257.576H152.84V255.8H139.448ZM139.424 264.296V266.096H152.888V264.296H139.424ZM172.448 259.736H170.912V264.32H172.448V259.736ZM176.6 257.648H174.968V267.968H176.6V257.648ZM180.848 263.528H168.488V264.944H180.848V263.528ZM180.152 259.184H169.664V260.648H180.152V259.184ZM162.536 261.008L161.384 261.824C162.512 262.592 163.88 263.72 164.528 264.464L165.728 263.576C165.056 262.832 163.664 261.728 162.536 261.008ZM167.888 259.208H167.528V259.496C166.328 263.312 163.256 265.568 159.536 266.672C159.896 266.936 160.376 267.584 160.592 267.968C164.456 266.672 167.72 264.152 169.16 259.616L168.176 259.16L167.888 259.208ZM165.416 257.624L163.928 257.24C162.896 259.328 160.928 261.128 158.816 262.28C159.176 262.544 159.752 263.096 159.992 263.36C162.104 262.064 164.216 260.024 165.416 257.624ZM177.104 248.528H175.424V256.52H177.104V248.528ZM172.784 248.528H171.272V256.52H172.784V248.528ZM168.584 248.528H167.024V256.52H168.584V248.528ZM164.504 248.528H162.848V256.52H164.504V248.528ZM180.248 255.8H159.896V257.288H180.248V255.8ZM180.632 251.912H159.368V253.4H180.632V251.912ZM168.008 259.208H163.544L162.32 260.504H168.008V259.208ZM179.528 248.024H163.496L162.08 249.512H179.528V248.024ZM165.44 246.128L163.688 245.816C162.92 247.304 161.504 249.152 159.584 250.52C159.992 250.736 160.592 251.192 160.904 251.552C162.944 249.944 164.408 248 165.44 246.128Z" fill="black"/>
<path d="M608.08 31.664V33.296H629.92V31.664H608.08ZM612.784 16.832V18.464H624.352V16.832H612.784ZM610.72 25.4V32.432H612.4V26.936H615.688V32.432H617.344V26.936H620.656V32.432H622.336V26.936H625.696V32.432H627.448V25.4H610.72ZM615.088 11.864C613.672 14.48 610.96 16.544 607.96 17.792C608.344 18.104 609.016 18.776 609.304 19.112C612.256 17.648 615.184 15.344 616.792 12.368L615.088 11.864ZM622.912 11.816L621.4 12.488C623.224 15.08 626.32 17.84 628.984 19.232C629.272 18.776 629.824 18.128 630.232 17.792C627.592 16.616 624.496 14.144 622.912 11.816ZM623.68 16.832V17.096C623.416 20.744 623.128 22.232 622.672 22.616C622.456 22.832 622.216 22.856 621.784 22.856C621.328 22.856 620.104 22.832 618.832 22.712C619.12 23.144 619.312 23.816 619.336 24.296C620.632 24.368 621.88 24.368 622.528 24.32C623.248 24.296 623.728 24.152 624.16 23.696C624.784 23.096 625.12 21.512 625.432 17.6C625.48 17.36 625.504 16.832 625.504 16.832H623.68ZM616.576 17.528C616.072 20.552 614.704 22.52 609.76 23.528C610.12 23.84 610.552 24.536 610.696 24.968C616.096 23.72 617.752 21.296 618.376 17.528H616.576ZM634.576 14.456H638.872V18.68H634.576V14.456ZM633.04 12.896V20.216H640.504V12.896H633.04ZM636.424 19.52V30.488H638.008V19.52H636.424ZM633.04 22.52V31.208H634.504V22.52H633.04ZM631.816 30.992L632.272 32.696C634.624 32.048 637.816 31.136 640.84 30.272L640.6 28.688C637.384 29.576 634.024 30.488 631.816 30.992ZM636.88 23.576V25.184H640.648V23.576H636.88ZM641.968 12.968V14.528H651.832V12.968H641.968ZM643.12 16.424C645.088 17.432 647.584 18.968 648.832 20L649.888 18.776C648.592 17.744 646.072 16.28 644.152 15.344L643.12 16.424ZM641.536 18.872V33.92H643.216V20.432H652.528V18.872H641.536ZM642.448 23.144V24.656H652.672V23.144H642.448ZM642.472 27.464V29.024H652.696V27.464H642.472ZM651.424 18.872V31.952C651.424 32.264 651.352 32.384 651.04 32.408C650.704 32.408 649.696 32.408 648.52 32.384C648.736 32.816 648.952 33.488 649.024 33.92C650.632 33.944 651.688 33.92 652.312 33.656C652.96 33.392 653.152 32.912 653.152 31.976V18.872H651.424ZM646.48 19.448V33.776H648.088V19.448H646.48ZM651.208 12.968V13.328C650.176 14.624 648.016 16.4 646.24 17.408C646.528 17.648 647.008 18.176 647.248 18.488C649.24 17.36 651.592 15.488 653.128 13.736L651.976 12.872L651.64 12.968H651.208ZM663.112 13.064L661.024 12.992C660.976 13.664 660.928 14.336 660.832 15.056C660.544 17.024 660.088 20.552 660.088 22.832C660.088 24.392 660.208 25.736 660.328 26.648L662.2 26.504C662.032 25.304 662.032 24.464 662.152 23.552C662.44 20.408 665.224 16.04 668.224 16.04C670.744 16.04 672.016 18.776 672.016 22.568C672.016 28.592 667.96 30.704 662.728 31.496L663.88 33.224C669.808 32.144 674.008 29.192 674.008 22.544C674.008 17.504 671.704 14.288 668.536 14.288C665.488 14.288 662.992 17.288 662.008 19.76C662.152 18.08 662.608 14.84 663.112 13.064ZM688.58 35.5455V13.7273H693.625V15.3977H690.489V33.875H693.625V35.5455H688.58ZM704.333 13.472L702.053 13.28C702.101 13.784 702.053 14.6 701.957 15.272C701.789 16.544 701.165 19.544 700.565 21.752C699.677 25.136 697.997 30.032 696.533 32.504L698.645 33.2C699.917 30.584 701.525 25.616 702.389 22.208C703.061 19.832 703.565 17.096 703.901 15.368C703.997 14.912 704.189 14 704.333 13.472ZM699.029 17.48C698.141 17.48 697.277 17.456 696.149 17.312L696.197 19.16C697.085 19.232 697.925 19.256 698.981 19.256C701.573 19.256 705.197 18.872 708.173 18.2V16.304C705.197 17.072 701.669 17.48 699.029 17.48ZM706.613 20.792V22.568C708.077 22.4 709.541 22.328 711.053 22.328C712.469 22.328 713.861 22.448 715.109 22.592L715.157 20.768C713.861 20.624 712.397 20.576 711.005 20.576C709.445 20.576 707.861 20.672 706.613 20.792ZM707.093 26.624L705.317 26.432C705.101 27.464 704.957 28.352 704.957 29.264C704.957 31.64 707.021 32.816 710.789 32.816C712.541 32.816 714.149 32.648 715.445 32.48L715.517 30.536C714.029 30.824 712.373 31.016 710.813 31.016C707.405 31.016 706.757 29.912 706.757 28.784C706.757 28.16 706.901 27.392 707.093 26.624ZM712.541 14.216L711.269 14.744C711.917 15.656 712.757 17.12 713.237 18.08L714.533 17.504C714.029 16.544 713.165 15.056 712.541 14.216ZM715.205 13.232L713.933 13.784C714.605 14.696 715.421 16.04 715.925 17.096L717.221 16.52C716.765 15.608 715.853 14.12 715.205 13.232ZM724.309 13.7273V35.5455H719.263V33.875H722.4V15.3977H719.263V13.7273H724.309Z" fill="black"/>
<path d="M490.83 35.5455V13.7273H495.875V15.3977H492.739V33.875H495.875V35.5455H490.83ZM508.593 36.6023C506.854 36.6023 505.317 36.3636 503.982 35.8864C502.647 35.4148 501.525 34.7188 500.616 33.7983C499.707 32.8778 499.019 31.75 498.553 30.4148C498.087 29.0795 497.854 27.5511 497.854 25.8295C497.854 24.1648 498.09 22.6761 498.562 21.3636C499.039 20.0511 499.729 18.9375 500.633 18.0227C501.542 17.1023 502.644 16.4006 503.94 15.9176C505.241 15.4347 506.712 15.1932 508.354 15.1932C509.951 15.1932 511.349 15.4545 512.548 15.9773C513.752 16.4943 514.758 17.196 515.565 18.0824C516.377 18.9631 516.985 19.9545 517.388 21.0568C517.798 22.1591 518.002 23.2955 518.002 24.4659C518.002 25.2898 517.962 26.125 517.883 26.9716C517.803 27.8182 517.636 28.5966 517.38 29.3068C517.124 30.0114 516.729 30.5795 516.195 31.0114C515.667 31.4432 514.951 31.6591 514.048 31.6591C513.65 31.6591 513.212 31.5966 512.735 31.4716C512.258 31.3466 511.835 31.1392 511.465 30.8494C511.096 30.5597 510.877 30.1705 510.809 29.6818H510.707C510.57 30.0114 510.36 30.3239 510.076 30.6193C509.798 30.9148 509.431 31.1506 508.977 31.3267C508.528 31.5028 507.979 31.5795 507.332 31.5568C506.593 31.5284 505.942 31.3636 505.38 31.0625C504.817 30.7557 504.346 30.3409 503.965 29.8182C503.59 29.2898 503.306 28.679 503.113 27.9858C502.925 27.2869 502.832 26.5341 502.832 25.7273C502.832 24.9602 502.945 24.2585 503.173 23.6222C503.4 22.9858 503.715 22.429 504.119 21.9517C504.528 21.4744 505.005 21.0937 505.55 20.8097C506.102 20.5199 506.695 20.3409 507.332 20.2727C507.9 20.2159 508.417 20.2415 508.883 20.3494C509.349 20.4517 509.732 20.608 510.033 20.8182C510.335 21.0227 510.525 21.25 510.604 21.5H510.707V20.5455H512.513V28.25C512.513 28.7273 512.647 29.1477 512.914 29.5114C513.181 29.875 513.57 30.0568 514.082 30.0568C514.661 30.0568 515.104 29.858 515.411 29.4602C515.724 29.0625 515.937 28.4489 516.05 27.6193C516.17 26.7898 516.229 25.7273 516.229 24.4318C516.229 23.6705 516.124 22.9205 515.914 22.1818C515.71 21.4375 515.397 20.7415 514.977 20.0938C514.562 19.446 514.036 18.875 513.4 18.3807C512.763 17.8864 512.016 17.5 511.158 17.2216C510.306 16.9375 509.337 16.7955 508.252 16.7955C506.917 16.7955 505.721 17.0028 504.664 17.4176C503.613 17.8267 502.718 18.4261 501.979 19.2159C501.246 20 500.687 20.9545 500.3 22.0795C499.92 23.1989 499.729 24.4716 499.729 25.8977C499.729 27.3466 499.92 28.6335 500.3 29.7585C500.687 30.8835 501.255 31.8324 502.005 32.6051C502.761 33.3778 503.695 33.9631 504.809 34.3608C505.923 34.7642 507.207 34.9659 508.661 34.9659C509.286 34.9659 509.903 34.9063 510.511 34.7869C511.119 34.6676 511.656 34.5369 512.121 34.3949C512.587 34.2528 512.923 34.1477 513.127 34.0795L513.604 35.6477C513.252 35.7955 512.792 35.9432 512.224 36.0909C511.661 36.2386 511.059 36.3608 510.417 36.4574C509.781 36.554 509.173 36.6023 508.593 36.6023ZM507.604 29.8182C508.366 29.8182 508.982 29.6648 509.454 29.358C509.925 29.0511 510.269 28.5881 510.485 27.9688C510.701 27.3494 510.809 26.5682 510.809 25.625C510.809 24.6705 510.69 23.9261 510.451 23.392C510.212 22.858 509.86 22.483 509.394 22.267C508.928 22.0511 508.354 21.9432 507.673 21.9432C507.025 21.9432 506.471 22.1136 506.011 22.4545C505.556 22.7898 505.207 23.2386 504.962 23.8011C504.724 24.358 504.604 24.9659 504.604 25.625C504.604 26.3523 504.701 27.0369 504.894 27.679C505.087 28.3153 505.403 28.8324 505.84 29.2301C506.278 29.6222 506.866 29.8182 507.604 29.8182ZM529.348 13.376L527.116 13.136C527.116 14.984 526.804 17.144 526.348 19.064C525.7 21.992 523.78 28.4 521.044 32.072L523.012 32.84C525.724 28.472 527.428 22.496 528.244 19.112C528.58 17.624 528.892 15.656 529.06 14.792C529.156 14.336 529.252 13.808 529.348 13.376ZM537.604 16.136L535.852 16.928C537.532 18.92 539.428 23.096 540.124 25.544L541.996 24.656C541.18 22.448 539.092 18.08 537.604 16.136ZM520.708 18.632L520.9 20.72C521.524 20.624 522.508 20.504 523.06 20.432C524.524 20.288 529.036 19.736 530.644 19.736C532.18 19.736 533.188 20.144 533.188 22.352C533.188 24.944 532.804 28.064 532.036 29.696C531.556 30.728 530.836 30.92 529.948 30.92C529.276 30.92 528.004 30.752 526.996 30.44L527.332 32.432C528.076 32.624 529.228 32.792 530.14 32.792C531.7 32.792 532.9 32.384 533.644 30.776C534.652 28.784 535.036 24.968 535.036 22.112C535.036 18.872 533.284 18.056 531.148 18.056C529.516 18.056 524.644 18.584 522.844 18.632C522.076 18.656 521.452 18.68 520.708 18.632ZM537.868 12.656L536.572 13.208C537.244 14.12 538.06 15.56 538.54 16.544L539.836 15.968C539.332 14.984 538.468 13.52 537.868 12.656ZM540.508 11.696L539.236 12.248C539.932 13.136 540.724 14.504 541.228 15.56L542.548 14.984C542.068 14.096 541.156 12.584 540.508 11.696ZM549.036 13.7273V35.5455H543.99V33.875H547.126V15.3977H543.99V13.7273H549.036Z" fill="black"/>
<path d="M468 44H736" stroke="black"/>
<path d="M583 0L583 76" stroke="black"/>
<path d="M487 44L427 145.5" stroke="black" stroke-dasharray="4 4"/>
</svg>
