<svg width="522" height="264" viewBox="0 0 522 264" fill="none" xmlns="http://www.w3.org/2000/svg">
<path d="M389.088 34.84V37.6H390.888V34.84H389.088ZM383.208 39.208V56.92H384.888V39.208H383.208ZM379.776 36.568V40.48H381.408V38.08H398.664V40.48H400.344V36.568H379.776ZM386.064 46.912V50.368H387.6V48.208H398.616V50.368H400.224V46.912H386.064ZM387.216 39.496V40.72H396.888V44.464H387.096V45.688H398.544V39.496H387.216ZM387.84 41.992V43.096H397.392V41.992H387.84ZM387.984 49.504V50.8H397.344V49.504H387.984ZM396.912 49.504V49.72C395.16 53.08 390.456 54.904 385.752 55.528C386.04 55.888 386.376 56.512 386.52 56.92C391.536 56.056 396.48 54.064 398.52 49.912L397.512 49.456L397.224 49.504H396.912ZM390.36 50.632L388.968 51.136C391.032 54.232 395.088 56.2 399.984 56.896C400.176 56.488 400.608 55.84 400.968 55.48C396.24 54.952 392.184 53.248 390.36 50.632ZM379.536 42.232C380.28 43.72 381.048 45.664 381.36 46.936L382.824 46.264C382.536 45.016 381.744 43.096 380.952 41.632L379.536 42.232ZM378.72 51.256L379.512 52.84C380.904 52.048 382.56 51.088 384.12 50.128L383.616 48.712C381.816 49.672 379.992 50.68 378.72 51.256ZM404.016 39.064L404.232 41.176C406.848 40.624 412.944 40.024 415.536 39.76C413.328 41.056 411.048 44.104 411.048 47.848C411.048 53.224 416.088 55.576 420.552 55.744L421.224 53.776C417.336 53.608 412.944 52.12 412.944 47.44C412.944 44.608 415.032 40.936 418.464 39.832C419.688 39.496 421.776 39.448 423.168 39.472L423.144 37.552C421.536 37.6 419.304 37.744 416.688 37.96C412.248 38.344 407.736 38.776 406.176 38.944C405.696 38.992 404.928 39.04 404.016 39.064ZM442.169 37.312L440.369 35.728C440.105 36.16 439.481 36.856 439.001 37.336C437.393 38.968 433.745 41.848 431.921 43.36C429.761 45.184 429.497 46.216 431.753 48.112C434.009 49.96 437.633 53.08 439.337 54.808C439.913 55.408 440.489 55.984 440.993 56.56L442.697 55C440.153 52.432 435.905 49.024 433.721 47.224C432.161 45.928 432.185 45.568 433.625 44.32C435.401 42.832 438.857 40.12 440.513 38.68C440.897 38.344 441.641 37.696 442.169 37.312ZM459.161 36.472L456.881 36.28C456.929 36.784 456.881 37.6 456.785 38.272C456.617 39.544 455.993 42.544 455.393 44.752C454.505 48.136 452.825 53.032 451.361 55.504L453.473 56.2C454.745 53.584 456.353 48.616 457.217 45.208C457.889 42.832 458.393 40.096 458.729 38.368C458.825 37.912 459.017 37 459.161 36.472ZM453.857 40.48C452.969 40.48 452.105 40.456 450.977 40.312L451.025 42.16C451.913 42.232 452.753 42.256 453.809 42.256C456.401 42.256 460.025 41.872 463.001 41.2V39.304C460.025 40.072 456.497 40.48 453.857 40.48ZM461.441 43.792V45.568C462.905 45.4 464.369 45.328 465.881 45.328C467.297 45.328 468.689 45.448 469.937 45.592L469.985 43.768C468.689 43.624 467.225 43.576 465.833 43.576C464.273 43.576 462.689 43.672 461.441 43.792ZM461.921 49.624L460.145 49.432C459.929 50.464 459.785 51.352 459.785 52.264C459.785 54.64 461.849 55.816 465.617 55.816C467.369 55.816 468.977 55.648 470.273 55.48L470.345 53.536C468.857 53.824 467.201 54.016 465.641 54.016C462.233 54.016 461.585 52.912 461.585 51.784C461.585 51.16 461.729 50.392 461.921 49.624ZM467.369 37.216L466.097 37.744C466.745 38.656 467.585 40.12 468.065 41.08L469.361 40.504C468.857 39.544 467.993 38.056 467.369 37.216ZM470.033 36.232L468.761 36.784C469.433 37.696 470.249 39.04 470.753 40.096L472.049 39.52C471.593 38.608 470.681 37.12 470.033 36.232ZM485.825 38.008C486.089 38.752 486.425 39.856 486.953 41.224C487.745 43.408 489.065 45.784 490.073 47.32C489.209 47.224 487.433 47.08 486.089 46.96L485.945 48.544C487.673 48.664 490.601 48.928 491.753 49.216L492.713 47.848C492.353 47.464 491.993 47.056 491.681 46.576C490.649 45.184 489.425 42.952 488.681 40.888C488.129 39.328 487.505 37.264 487.289 35.872L485.225 36.112C485.465 36.76 485.681 37.48 485.825 38.008ZM477.041 39.88L477.089 41.776C481.337 42.136 485.153 42.112 488.201 41.752C489.953 41.536 492.233 41.152 493.937 40.672L493.721 38.776C491.849 39.424 489.473 39.856 487.577 40.072C484.841 40.36 481.049 40.336 477.041 39.88ZM480.761 47.512L478.889 47.08C478.193 48.496 477.713 49.744 477.713 51.088C477.713 54.352 480.593 55.984 485.153 56.008C487.841 56.032 489.857 55.768 491.369 55.504L491.441 53.584C489.785 53.944 487.697 54.184 485.273 54.184C481.697 54.136 479.609 53.152 479.609 50.848C479.609 49.72 480.041 48.688 480.761 47.512ZM502.625 38.272L500.297 38.224C500.441 38.776 500.441 39.808 500.441 40.36C500.441 41.752 500.489 44.68 500.705 46.744C501.377 52.96 503.537 55.216 505.817 55.216C507.449 55.216 508.889 53.824 510.353 49.768L508.841 48.064C508.217 50.464 507.089 52.936 505.865 52.936C504.137 52.936 502.985 50.272 502.577 46.264C502.409 44.296 502.385 42.088 502.409 40.6C502.433 39.976 502.505 38.824 502.625 38.272ZM515.105 38.92L513.257 39.568C515.537 42.376 517.001 47.32 517.409 51.64L519.353 50.872C518.993 46.816 517.265 41.704 515.105 38.92Z" fill="black"/>
<path d="M34.8295 58.5455V36.7273H39.875V38.3977H36.7386V56.875H39.875V58.5455H34.8295ZM52.593 59.6023C50.8544 59.6023 49.3175 59.3636 47.9822 58.8864C46.647 58.4148 45.5249 57.7188 44.6158 56.7983C43.7067 55.8778 43.0192 54.75 42.5533 53.4148C42.0874 52.0795 41.8544 50.5511 41.8544 48.8295C41.8544 47.1648 42.0902 45.6761 42.5618 44.3636C43.0391 43.0511 43.7294 41.9375 44.6328 41.0227C45.5419 40.1023 46.6442 39.4006 47.9396 38.9176C49.2408 38.4347 50.7124 38.1932 52.3544 38.1932C53.951 38.1932 55.3487 38.4545 56.5476 38.9773C57.7521 39.4943 58.7578 40.196 59.5646 41.0824C60.3771 41.9631 60.9851 42.9545 61.3885 44.0568C61.7976 45.1591 62.0021 46.2955 62.0021 47.4659C62.0021 48.2898 61.9624 49.125 61.8828 49.9716C61.8033 50.8182 61.6357 51.5966 61.38 52.3068C61.1243 53.0114 60.7294 53.5795 60.1953 54.0114C59.6669 54.4432 58.951 54.6591 58.0476 54.6591C57.6499 54.6591 57.2124 54.5966 56.7351 54.4716C56.2578 54.3466 55.8345 54.1392 55.4652 53.8494C55.0959 53.5597 54.8771 53.1705 54.8089 52.6818H54.7067C54.5703 53.0114 54.3601 53.3239 54.076 53.6193C53.7976 53.9148 53.4311 54.1506 52.9766 54.3267C52.5277 54.5028 51.9794 54.5795 51.3317 54.5568C50.593 54.5284 49.9425 54.3636 49.38 54.0625C48.8175 53.7557 48.3459 53.3409 47.9652 52.8182C47.5902 52.2898 47.3061 51.679 47.1129 50.9858C46.9254 50.2869 46.8317 49.5341 46.8317 48.7273C46.8317 47.9602 46.9453 47.2585 47.1726 46.6222C47.3999 45.9858 47.7152 45.429 48.1186 44.9517C48.5277 44.4744 49.005 44.0937 49.5504 43.8097C50.1016 43.5199 50.6953 43.3409 51.3317 43.2727C51.8999 43.2159 52.4169 43.2415 52.8828 43.3494C53.3487 43.4517 53.7322 43.608 54.0334 43.8182C54.3345 44.0227 54.5249 44.25 54.6044 44.5H54.7067V43.5455H56.5135V51.25C56.5135 51.7273 56.647 52.1477 56.9141 52.5114C57.1811 52.875 57.5703 53.0568 58.0817 53.0568C58.6612 53.0568 59.1044 52.858 59.4112 52.4602C59.7237 52.0625 59.9368 51.4489 60.0504 50.6193C60.1697 49.7898 60.2294 48.7273 60.2294 47.4318C60.2294 46.6705 60.1243 45.9205 59.9141 45.1818C59.7095 44.4375 59.397 43.7415 58.9766 43.0938C58.5618 42.446 58.0362 41.875 57.3999 41.3807C56.7635 40.8864 56.0163 40.5 55.1584 40.2216C54.3061 39.9375 53.3374 39.7955 52.2521 39.7955C50.9169 39.7955 49.7209 40.0028 48.6641 40.4176C47.6129 40.8267 46.718 41.4261 45.9794 42.2159C45.2464 43 44.6868 43.9545 44.3004 45.0795C43.9197 46.1989 43.7294 47.4716 43.7294 48.8977C43.7294 50.3466 43.9197 51.6335 44.3004 52.7585C44.6868 53.8835 45.255 54.8324 46.005 55.6051C46.7607 56.3778 47.6953 56.9631 48.8089 57.3608C49.9226 57.7642 51.2067 57.9659 52.6612 57.9659C53.2862 57.9659 53.9027 57.9063 54.5107 57.7869C55.1186 57.6676 55.6555 57.5369 56.1214 57.3949C56.5874 57.2528 56.9226 57.1477 57.1271 57.0795L57.6044 58.6477C57.2521 58.7955 56.7919 58.9432 56.2237 59.0909C55.6612 59.2386 55.0589 59.3608 54.4169 59.4574C53.7805 59.554 53.1726 59.6023 52.593 59.6023ZM51.6044 52.8182C52.3658 52.8182 52.9822 52.6648 53.4538 52.358C53.9254 52.0511 54.2692 51.5881 54.4851 50.9688C54.701 50.3494 54.8089 49.5682 54.8089 48.625C54.8089 47.6705 54.6896 46.9261 54.451 46.392C54.2124 45.858 53.8601 45.483 53.3942 45.267C52.9283 45.0511 52.3544 44.9432 51.6726 44.9432C51.0249 44.9432 50.4709 45.1136 50.0107 45.4545C49.5561 45.7898 49.2067 46.2386 48.9624 46.8011C48.7237 47.358 48.6044 47.9659 48.6044 48.625C48.6044 49.3523 48.701 50.0369 48.8942 50.679C49.0874 51.3153 49.4027 51.8324 49.8402 52.2301C50.2777 52.6222 50.8658 52.8182 51.6044 52.8182ZM73.3479 36.376L71.1159 36.136C71.1159 37.984 70.8039 40.144 70.3479 42.064C69.6999 44.992 67.7799 51.4 65.0439 55.072L67.0119 55.84C69.7239 51.472 71.4279 45.496 72.2439 42.112C72.5799 40.624 72.8919 38.656 73.0599 37.792C73.1559 37.336 73.2519 36.808 73.3479 36.376ZM81.6039 39.136L79.8519 39.928C81.5319 41.92 83.4279 46.096 84.1239 48.544L85.9959 47.656C85.1799 45.448 83.0919 41.08 81.6039 39.136ZM64.7079 41.632L64.8999 43.72C65.5239 43.624 66.5079 43.504 67.0599 43.432C68.5239 43.288 73.0359 42.736 74.6439 42.736C76.1799 42.736 77.1879 43.144 77.1879 45.352C77.1879 47.944 76.8039 51.064 76.0359 52.696C75.5559 53.728 74.8359 53.92 73.9479 53.92C73.2759 53.92 72.0039 53.752 70.9959 53.44L71.3319 55.432C72.0759 55.624 73.2279 55.792 74.1399 55.792C75.6999 55.792 76.8999 55.384 77.6439 53.776C78.6519 51.784 79.0359 47.968 79.0359 45.112C79.0359 41.872 77.2839 41.056 75.1479 41.056C73.5159 41.056 68.6439 41.584 66.8439 41.632C66.0759 41.656 65.4519 41.68 64.7079 41.632ZM81.8679 35.656L80.5719 36.208C81.2439 37.12 82.0599 38.56 82.5399 39.544L83.8359 38.968C83.3319 37.984 82.4679 36.52 81.8679 35.656ZM84.5079 34.696L83.2359 35.248C83.9319 36.136 84.7239 37.504 85.2279 38.56L86.5479 37.984C86.0679 37.096 85.1559 35.584 84.5079 34.696ZM93.0355 36.7273V58.5455H87.9901V56.875H91.1264V38.3977H87.9901V36.7273H93.0355Z" fill="black"/>
<path d="M0 67L522 67" stroke="black"/>
<path d="M144 0L144 107" stroke="black"/>
<path d="M86.904 141.424C89.232 144.136 93.48 146.992 97.08 148.6C97.392 148.096 97.824 147.448 98.232 147.016C94.488 145.6 90.312 142.84 87.696 139.816H85.896C83.952 142.504 79.92 145.528 75.84 147.28C76.224 147.688 76.68 148.336 76.896 148.744C80.88 146.896 84.84 143.968 86.904 141.424ZM81.216 149.944V151.336H92.712V149.944H81.216ZM85.992 144.064V147.328H87.84V144.064H85.992ZM77.424 160.024L77.664 161.728C80.424 161.464 84.384 161.08 88.152 160.696L88.128 159.064C84.168 159.448 80.088 159.808 77.424 160.024ZM87.096 154.24L85.56 154.72C87.576 158.68 91.488 161.008 96.768 161.944C97.008 161.464 97.488 160.744 97.872 160.36C92.76 159.64 88.872 157.624 87.096 154.24ZM95.208 153.856C93.648 155.056 91.008 156.664 89.064 157.6L90.216 158.584C92.184 157.648 94.656 156.256 96.552 154.912L95.208 153.856ZM81.216 146.464V147.928H92.064V153.472H81.216V154.936H93.864V146.464H81.216ZM80.136 146.464V160.432L81.912 160.24V146.464H80.136ZM100.104 153.88L101.88 155.704C102.24 155.176 102.792 154.408 103.272 153.784C104.52 152.296 106.488 149.656 107.616 148.264C108.456 147.256 108.912 147.064 109.92 148.192C111.048 149.416 112.872 151.72 114.432 153.496C116.088 155.368 118.248 157.864 120.048 159.568L121.608 157.84C119.448 155.92 117.048 153.4 115.608 151.792C114.072 150.16 112.224 147.784 110.784 146.32C109.2 144.688 107.952 144.928 106.56 146.56C105.12 148.264 103.128 151 101.832 152.296C101.208 152.968 100.704 153.424 100.104 153.88ZM115.608 143.8L114.216 144.4C115.032 145.504 115.872 147.016 116.448 148.288L117.888 147.64C117.312 146.488 116.208 144.712 115.608 143.8ZM118.704 142.6L117.36 143.224C118.152 144.28 119.016 145.768 119.664 147.016L121.056 146.344C120.48 145.24 119.328 143.44 118.704 142.6ZM124.055 144.064L124.271 146.176C126.887 145.624 132.983 145.024 135.575 144.76C133.367 146.056 131.087 149.104 131.087 152.848C131.087 158.224 136.127 160.576 140.591 160.744L141.263 158.776C137.375 158.608 132.983 157.12 132.983 152.44C132.983 149.608 135.071 145.936 138.503 144.832C139.727 144.496 141.815 144.448 143.207 144.472L143.183 142.552C141.575 142.6 139.343 142.744 136.727 142.96C132.287 143.344 127.775 143.776 126.215 143.944C125.735 143.992 124.967 144.04 124.055 144.064Z" fill="black"/>
<path d="M174 68L149 166H72" stroke="black"/>
<path d="M182.136 151.08V152.544H199.776V151.08H182.136ZM191.328 144.6V145.92H199.656V144.6H191.328ZM182.352 144.6V145.92H190.584V144.6H182.352ZM186.648 158.808V160.176H197.568V158.808H186.648ZM185.904 142.896V150.312H187.344V142.896H185.904ZM194.472 142.872V150.408H195.96V142.872H194.472ZM185.64 154.68V160.92H187.392V156.048H196.752V160.896H198.576V154.68H185.64ZM185.928 145.176C185.04 146.616 183.264 148.2 181.704 148.92C182.016 149.184 182.448 149.64 182.664 149.976C184.272 149.088 186.072 147.264 187.032 145.608L185.928 145.176ZM194.472 145.176C193.584 146.616 191.832 148.2 190.272 148.92C190.56 149.184 191.016 149.64 191.232 149.976C192.792 149.088 194.64 147.264 195.6 145.608L194.472 145.176ZM196.008 145.368L194.976 145.824C195.912 147.288 197.688 149.04 199.104 149.904C199.344 149.544 199.824 149.016 200.136 148.752C198.72 148.08 196.944 146.64 196.008 145.368ZM187.32 146.136L186.456 146.832C187.224 147.312 189.072 148.68 189.696 149.256L190.608 148.104C190.104 147.744 187.944 146.472 187.32 146.136ZM188.76 138.864V141.912H190.608V138.864H188.76ZM180.504 140.976V142.56H199.704V140.976H180.504ZM179.616 140.976V148.416C179.616 151.872 179.472 156.624 177.648 159.984C178.056 160.176 178.8 160.68 179.112 160.992C181.056 157.416 181.344 152.088 181.344 148.416V140.976H179.616ZM188.208 151.56C186.912 153.912 184.008 156.264 181.008 157.656C181.32 157.944 181.824 158.544 182.064 158.928C185.232 157.416 188.232 154.824 189.888 152.088L188.208 151.56ZM206.352 142.272L204.024 142.224C204.168 142.776 204.168 143.808 204.168 144.36C204.168 145.752 204.216 148.68 204.432 150.744C205.104 156.96 207.264 159.216 209.544 159.216C211.176 159.216 212.616 157.824 214.08 153.768L212.568 152.064C211.944 154.464 210.816 156.936 209.592 156.936C207.864 156.936 206.712 154.272 206.304 150.264C206.136 148.296 206.112 146.088 206.136 144.6C206.16 143.976 206.232 142.824 206.352 142.272ZM218.832 142.92L216.984 143.568C219.264 146.376 220.728 151.32 221.136 155.64L223.08 154.872C222.72 150.816 220.992 145.704 218.832 142.92ZM226.289 143.064L226.505 145.176C229.121 144.624 235.217 144.024 237.809 143.76C235.601 145.056 233.321 148.104 233.321 151.848C233.321 157.224 238.361 159.576 242.825 159.744L243.497 157.776C239.609 157.608 235.217 156.12 235.217 151.44C235.217 148.608 237.305 144.936 240.737 143.832C241.961 143.496 244.049 143.448 245.441 143.472L245.417 141.552C243.809 141.6 241.577 141.744 238.961 141.96C234.521 142.344 230.009 142.776 228.449 142.944C227.969 142.992 227.201 143.04 226.289 143.064Z" fill="black"/>
<path d="M276 67L251 165H174" stroke="black"/>
<path d="M179.144 238.784V240.272H187.64V238.784H179.144ZM178.136 236.864V243.2H179.912V236.864H178.136ZM171.968 238.088V243.104H173.672V238.088H171.968ZM170.84 256.256V257.84H187.28V256.256H170.84ZM168.248 242.36V243.968H189.824V242.36H168.248ZM172.472 248.864V250.256H185.72V248.864H172.472ZM169.76 244.832V258.968H171.464V244.832H169.76ZM186.608 244.832V258.968H188.36V244.832H186.608ZM178.136 244.736V255.656H179.72V244.736H178.136ZM173.408 245.768C174.152 246.656 174.896 247.88 175.232 248.696L176.552 248.072C176.216 247.28 175.424 246.104 174.656 245.264L173.408 245.768ZM183.2 245.12C182.816 246.008 182.048 247.328 181.448 248.144L182.624 248.624C183.248 247.832 183.992 246.704 184.664 245.624L183.2 245.12ZM177.968 249.512C176.696 251.336 174.224 253.184 171.968 254.048C172.328 254.336 172.784 254.864 173.024 255.248C175.256 254.216 177.776 252.08 179.12 249.944L177.968 249.512ZM179.984 249.536L178.784 250.04C180.152 252.056 182.672 254.144 184.856 255.152C185.096 254.792 185.576 254.24 185.936 253.928C183.752 253.112 181.232 251.312 179.984 249.536Z" fill="black"/>
<path d="M183.83 211.545V189.727H188.875V191.398H185.739V209.875H188.875V211.545H183.83ZM200.735 189.04L198.767 188.872C198.695 190 198.359 191.44 197.831 192.76C197.015 194.8 195.407 197.584 191.951 200.896L193.607 202.12C194.399 201.136 195.071 200.272 195.767 199.6C196.871 198.616 198.383 197.848 199.919 197.848C201.167 197.848 202.127 198.496 202.151 199.888C202.175 201.136 202.151 203.608 202.055 204.88H203.903C203.879 203.392 203.831 200.632 203.831 199.384C203.831 197.44 202.391 196.336 200.543 196.336C199.487 196.336 198.119 196.672 197.183 197.224C198.143 195.976 199.031 194.368 199.631 192.904C200.255 191.296 200.519 189.976 200.735 189.04ZM192.503 191.632V193.432C193.847 193.528 195.431 193.576 196.463 193.576C199.511 193.576 203.975 193.36 207.335 192.856V191.08C203.951 191.68 199.799 191.872 196.559 191.872C195.455 191.872 193.799 191.8 192.503 191.632ZM210.839 197.416L210.071 195.64C209.399 195.976 208.799 196.24 208.079 196.576C206.495 197.32 204.551 198.064 202.271 199.24C199.415 200.704 196.439 202.504 196.439 205.432C196.439 208.336 199.199 209.08 202.607 209.08C204.695 209.08 207.359 208.888 209.183 208.672L209.255 206.728C207.143 207.112 204.551 207.328 202.679 207.328C200.207 207.328 198.359 207.04 198.359 205.168C198.359 203.512 200.039 202.216 202.415 200.968C204.743 199.768 207.023 198.856 208.727 198.184C209.375 197.944 210.239 197.608 210.839 197.416ZM219.559 189.727V211.545H214.513V209.875H217.65V191.398H214.513V189.727H219.559Z" fill="black"/>
<path d="M236 165L211 263H134" stroke="black"/>
<path d="M297.992 150.664V161.92H299.84V150.664H297.992ZM292.4 146.704H305.408V149.32H292.4V146.704ZM292.4 142.576H305.408V145.168H292.4V142.576ZM290.648 140.968V150.928H307.232V140.968H290.648ZM288.128 154.504V156.232H309.944V154.504H288.128ZM327.896 142.312L326.096 140.728C325.832 141.16 325.208 141.856 324.728 142.336C323.12 143.968 319.472 146.848 317.648 148.36C315.488 150.184 315.224 151.216 317.48 153.112C319.736 154.96 323.36 158.08 325.064 159.808C325.64 160.408 326.216 160.984 326.72 161.56L328.424 160C325.88 157.432 321.632 154.024 319.448 152.224C317.888 150.928 317.912 150.568 319.352 149.32C321.128 147.832 324.584 145.12 326.24 143.68C326.624 143.344 327.368 142.696 327.896 142.312Z" fill="black"/>
<path d="M368 68L343 166H266" stroke="black"/>
</svg>
