<svg width="385" height="156" viewBox="0 0 385 156" fill="none" xmlns="http://www.w3.org/2000/svg">
<path d="M276.568 33.988C275.68 37.252 274.144 40.492 272.248 42.508C272.704 42.724 273.544 43.204 273.928 43.468C275.752 41.26 277.384 37.9 278.392 34.372L276.568 33.988ZM276.16 37.732L275.632 39.508H292.456V37.732H276.16ZM272.224 45.22V46.996H293.8V45.22H272.224ZM282.328 33.34V55.396H284.224V33.34H282.328ZM321.83 57.0455V35.2273H326.875V36.8977H323.739V55.375H326.875V57.0455H321.83ZM337.583 34.972L335.303 34.78C335.351 35.284 335.303 36.1 335.207 36.772C335.039 38.044 334.415 41.044 333.815 43.252C332.927 46.636 331.247 51.532 329.783 54.004L331.895 54.7C333.167 52.084 334.775 47.116 335.639 43.708C336.311 41.332 336.815 38.596 337.151 36.868C337.247 36.412 337.439 35.5 337.583 34.972ZM332.279 38.98C331.391 38.98 330.527 38.956 329.399 38.812L329.447 40.66C330.335 40.732 331.175 40.756 332.231 40.756C334.823 40.756 338.447 40.372 341.423 39.7V37.804C338.447 38.572 334.919 38.98 332.279 38.98ZM339.863 42.292V44.068C341.327 43.9 342.791 43.828 344.303 43.828C345.719 43.828 347.111 43.948 348.359 44.092L348.407 42.268C347.111 42.124 345.647 42.076 344.255 42.076C342.695 42.076 341.111 42.172 339.863 42.292ZM340.343 48.124L338.567 47.932C338.351 48.964 338.207 49.852 338.207 50.764C338.207 53.14 340.271 54.316 344.039 54.316C345.791 54.316 347.399 54.148 348.695 53.98L348.767 52.036C347.279 52.324 345.623 52.516 344.063 52.516C340.655 52.516 340.007 51.412 340.007 50.284C340.007 49.66 340.151 48.892 340.343 48.124ZM345.791 35.716L344.519 36.244C345.167 37.156 346.007 38.62 346.487 39.58L347.783 39.004C347.279 38.044 346.415 36.556 345.791 35.716ZM348.455 34.732L347.183 35.284C347.855 36.196 348.671 37.54 349.175 38.596L350.471 38.02C350.015 37.108 349.103 35.62 348.455 34.732ZM357.559 35.2273V57.0455H352.513V55.375H355.65V36.8977H352.513V35.2273H357.559Z" fill="black"/>
<path d="M84.8295 58.5455V36.7273H89.875V38.3977H86.7386V56.875H89.875V58.5455H84.8295ZM102.593 59.6023C100.854 59.6023 99.3175 59.3636 97.9822 58.8864C96.647 58.4148 95.5249 57.7188 94.6158 56.7983C93.7067 55.8778 93.0192 54.75 92.5533 53.4148C92.0874 52.0795 91.8544 50.5511 91.8544 48.8295C91.8544 47.1648 92.0902 45.6761 92.5618 44.3636C93.0391 43.0511 93.7294 41.9375 94.6328 41.0227C95.5419 40.1023 96.6442 39.4006 97.9396 38.9176C99.2408 38.4347 100.712 38.1932 102.354 38.1932C103.951 38.1932 105.349 38.4545 106.548 38.9773C107.752 39.4943 108.758 40.196 109.565 41.0824C110.377 41.9631 110.985 42.9545 111.388 44.0568C111.798 45.1591 112.002 46.2955 112.002 47.4659C112.002 48.2898 111.962 49.125 111.883 49.9716C111.803 50.8182 111.636 51.5966 111.38 52.3068C111.124 53.0114 110.729 53.5795 110.195 54.0114C109.667 54.4432 108.951 54.6591 108.048 54.6591C107.65 54.6591 107.212 54.5966 106.735 54.4716C106.258 54.3466 105.835 54.1392 105.465 53.8494C105.096 53.5597 104.877 53.1705 104.809 52.6818H104.707C104.57 53.0114 104.36 53.3239 104.076 53.6193C103.798 53.9148 103.431 54.1506 102.977 54.3267C102.528 54.5028 101.979 54.5795 101.332 54.5568C100.593 54.5284 99.9425 54.3636 99.38 54.0625C98.8175 53.7557 98.3459 53.3409 97.9652 52.8182C97.5902 52.2898 97.3061 51.679 97.1129 50.9858C96.9254 50.2869 96.8317 49.5341 96.8317 48.7273C96.8317 47.9602 96.9453 47.2585 97.1726 46.6222C97.3999 45.9858 97.7152 45.429 98.1186 44.9517C98.5277 44.4744 99.005 44.0937 99.5504 43.8097C100.102 43.5199 100.695 43.3409 101.332 43.2727C101.9 43.2159 102.417 43.2415 102.883 43.3494C103.349 43.4517 103.732 43.608 104.033 43.8182C104.335 44.0227 104.525 44.25 104.604 44.5H104.707V43.5455H106.513V51.25C106.513 51.7273 106.647 52.1477 106.914 52.5114C107.181 52.875 107.57 53.0568 108.082 53.0568C108.661 53.0568 109.104 52.858 109.411 52.4602C109.724 52.0625 109.937 51.4489 110.05 50.6193C110.17 49.7898 110.229 48.7273 110.229 47.4318C110.229 46.6705 110.124 45.9205 109.914 45.1818C109.71 44.4375 109.397 43.7415 108.977 43.0938C108.562 42.446 108.036 41.875 107.4 41.3807C106.763 40.8864 106.016 40.5 105.158 40.2216C104.306 39.9375 103.337 39.7955 102.252 39.7955C100.917 39.7955 99.7209 40.0028 98.6641 40.4176C97.6129 40.8267 96.718 41.4261 95.9794 42.2159C95.2464 43 94.6868 43.9545 94.3004 45.0795C93.9197 46.1989 93.7294 47.4716 93.7294 48.8977C93.7294 50.3466 93.9197 51.6335 94.3004 52.7585C94.6868 53.8835 95.255 54.8324 96.005 55.6051C96.7607 56.3778 97.6953 56.9631 98.8089 57.3608C99.9226 57.7642 101.207 57.9659 102.661 57.9659C103.286 57.9659 103.903 57.9063 104.511 57.7869C105.119 57.6676 105.656 57.5369 106.121 57.3949C106.587 57.2528 106.923 57.1477 107.127 57.0795L107.604 58.6477C107.252 58.7955 106.792 58.9432 106.224 59.0909C105.661 59.2386 105.059 59.3608 104.417 59.4574C103.781 59.554 103.173 59.6023 102.593 59.6023ZM101.604 52.8182C102.366 52.8182 102.982 52.6648 103.454 52.358C103.925 52.0511 104.269 51.5881 104.485 50.9688C104.701 50.3494 104.809 49.5682 104.809 48.625C104.809 47.6705 104.69 46.9261 104.451 46.392C104.212 45.858 103.86 45.483 103.394 45.267C102.928 45.0511 102.354 44.9432 101.673 44.9432C101.025 44.9432 100.471 45.1136 100.011 45.4545C99.5561 45.7898 99.2067 46.2386 98.9624 46.8011C98.7237 47.358 98.6044 47.9659 98.6044 48.625C98.6044 49.3523 98.701 50.0369 98.8942 50.679C99.0874 51.3153 99.4027 51.8324 99.8402 52.2301C100.278 52.6222 100.866 52.8182 101.604 52.8182ZM123.348 36.376L121.116 36.136C121.116 37.984 120.804 40.144 120.348 42.064C119.7 44.992 117.78 51.4 115.044 55.072L117.012 55.84C119.724 51.472 121.428 45.496 122.244 42.112C122.58 40.624 122.892 38.656 123.06 37.792C123.156 37.336 123.252 36.808 123.348 36.376ZM131.604 39.136L129.852 39.928C131.532 41.92 133.428 46.096 134.124 48.544L135.996 47.656C135.18 45.448 133.092 41.08 131.604 39.136ZM114.708 41.632L114.9 43.72C115.524 43.624 116.508 43.504 117.06 43.432C118.524 43.288 123.036 42.736 124.644 42.736C126.18 42.736 127.188 43.144 127.188 45.352C127.188 47.944 126.804 51.064 126.036 52.696C125.556 53.728 124.836 53.92 123.948 53.92C123.276 53.92 122.004 53.752 120.996 53.44L121.332 55.432C122.076 55.624 123.228 55.792 124.14 55.792C125.7 55.792 126.9 55.384 127.644 53.776C128.652 51.784 129.036 47.968 129.036 45.112C129.036 41.872 127.284 41.056 125.148 41.056C123.516 41.056 118.644 41.584 116.844 41.632C116.076 41.656 115.452 41.68 114.708 41.632ZM131.868 35.656L130.572 36.208C131.244 37.12 132.06 38.56 132.54 39.544L133.836 38.968C133.332 37.984 132.468 36.52 131.868 35.656ZM134.508 34.696L133.236 35.248C133.932 36.136 134.724 37.504 135.228 38.56L136.548 37.984C136.068 37.096 135.156 35.584 134.508 34.696ZM143.036 36.7273V58.5455H137.99V56.875H141.126V38.3977H137.99V36.7273H143.036Z" fill="black"/>
<path d="M0 67L385 67" stroke="black"/>
<path d="M216 0V155.5" stroke="black"/>
</svg>
