<svg width="385" height="166" viewBox="0 0 385 166" fill="none" xmlns="http://www.w3.org/2000/svg">
<path d="M315.904 36.424C318.232 39.136 322.48 41.992 326.08 43.6C326.392 43.096 326.824 42.448 327.232 42.016C323.488 40.6 319.312 37.84 316.696 34.816H314.896C312.952 37.504 308.92 40.528 304.84 42.28C305.224 42.688 305.68 43.336 305.896 43.744C309.88 41.896 313.84 38.968 315.904 36.424ZM310.216 44.944V46.336H321.712V44.944H310.216ZM314.992 39.064V42.328H316.84V39.064H314.992ZM306.424 55.024L306.664 56.728C309.424 56.464 313.384 56.08 317.152 55.696L317.128 54.064C313.168 54.448 309.088 54.808 306.424 55.024ZM316.096 49.24L314.56 49.72C316.576 53.68 320.488 56.008 325.768 56.944C326.008 56.464 326.488 55.744 326.872 55.36C321.76 54.64 317.872 52.624 316.096 49.24ZM324.208 48.856C322.648 50.056 320.008 51.664 318.064 52.6L319.216 53.584C321.184 52.648 323.656 51.256 325.552 49.912L324.208 48.856ZM310.216 41.464V42.928H321.064V48.472H310.216V49.936H322.864V41.464H310.216ZM309.136 41.464V55.432L310.912 55.24V41.464H309.136ZM329.104 48.88L330.88 50.704C331.24 50.176 331.792 49.408 332.272 48.784C333.52 47.296 335.488 44.656 336.616 43.264C337.456 42.256 337.912 42.064 338.92 43.192C340.048 44.416 341.872 46.72 343.432 48.496C345.088 50.368 347.248 52.864 349.048 54.568L350.608 52.84C348.448 50.92 346.048 48.4 344.608 46.792C343.072 45.16 341.224 42.784 339.784 41.32C338.2 39.688 336.952 39.928 335.56 41.56C334.12 43.264 332.128 46 330.832 47.296C330.208 47.968 329.704 48.424 329.104 48.88ZM344.608 38.8L343.216 39.4C344.032 40.504 344.872 42.016 345.448 43.288L346.888 42.64C346.312 41.488 345.208 39.712 344.608 38.8ZM347.704 37.6L346.36 38.224C347.152 39.28 348.016 40.768 348.664 42.016L350.056 41.344C349.48 40.24 348.328 38.44 347.704 37.6ZM362.608 36.136L360.328 35.944C360.376 36.448 360.328 37.264 360.232 37.936C360.064 39.184 359.44 42.208 358.864 44.416C357.952 47.8 356.272 52.672 354.832 55.168L356.92 55.864C358.192 53.248 359.8 48.28 360.664 44.872C361.336 42.472 361.84 39.76 362.2 38.032C362.296 37.576 362.464 36.664 362.608 36.136ZM357.304 40.144C356.416 40.144 355.552 40.096 354.424 39.952L354.472 41.824C355.36 41.896 356.2 41.92 357.256 41.92C359.848 41.92 363.472 41.512 366.448 40.84V38.968C363.472 39.712 359.944 40.144 357.304 40.144ZM364.888 43.432V45.232C366.352 45.064 367.84 44.968 369.328 44.968C370.744 44.968 372.136 45.112 373.384 45.256L373.432 43.432C372.136 43.288 370.672 43.24 369.28 43.24C367.744 43.24 366.136 43.312 364.888 43.432ZM365.368 49.264L363.592 49.096C363.376 50.104 363.232 51.016 363.232 51.928C363.232 54.304 365.296 55.456 369.064 55.456C370.816 55.456 372.424 55.312 373.72 55.12L373.792 53.2C372.304 53.488 370.672 53.656 369.088 53.656C365.68 53.656 365.032 52.552 365.032 51.424C365.032 50.8 365.176 50.056 365.368 49.264Z" fill="black"/>
<path d="M87.856 36.832V56.848H89.632V36.832H87.856ZM83.2 41.872V43.576H93.856V41.872H83.2ZM87.928 42.544C86.896 45.592 84.64 49.456 82.672 51.424C82.984 51.88 83.44 52.624 83.632 53.128C85.696 50.872 87.952 46.552 89.104 43.096L87.928 42.544ZM92.224 35.008C90.16 35.968 86.392 36.784 83.152 37.288C83.368 37.672 83.608 38.272 83.704 38.68C87.064 38.224 90.976 37.408 93.568 36.352L92.224 35.008ZM89.536 44.968L88.552 45.832C89.512 46.72 91.864 49.192 92.656 50.248L93.76 48.88C93.136 48.232 90.328 45.592 89.536 44.968ZM97.336 35.344C96.52 41.272 94.84 49.336 93.352 54.376L95.104 54.76C96.592 49.744 98.344 41.824 99.352 35.704L97.336 35.344ZM91.288 54.016L91.72 55.888C94.84 55.528 99.256 54.976 103.456 54.424L103.408 52.744C98.896 53.272 94.216 53.752 91.288 54.016ZM99.592 47.128C101.224 50.272 102.784 54.4 103.264 56.92L105.136 56.32C104.608 53.752 102.976 49.696 101.272 46.6L99.592 47.128ZM116.176 36.376L113.944 36.136C113.944 37.984 113.632 40.144 113.176 42.064C112.528 44.992 110.608 51.4 107.872 55.072L109.84 55.84C112.552 51.472 114.256 45.496 115.072 42.112C115.408 40.624 115.72 38.656 115.888 37.792C115.984 37.336 116.08 36.808 116.176 36.376ZM124.432 39.136L122.68 39.928C124.36 41.92 126.256 46.096 126.952 48.544L128.824 47.656C128.008 45.448 125.92 41.08 124.432 39.136ZM107.536 41.632L107.728 43.72C108.352 43.624 109.336 43.504 109.888 43.432C111.352 43.288 115.864 42.736 117.472 42.736C119.008 42.736 120.016 43.144 120.016 45.352C120.016 47.944 119.632 51.064 118.864 52.696C118.384 53.728 117.664 53.92 116.776 53.92C116.104 53.92 114.832 53.752 113.824 53.44L114.16 55.432C114.904 55.624 116.056 55.792 116.968 55.792C118.528 55.792 119.728 55.384 120.472 53.776C121.48 51.784 121.864 47.968 121.864 45.112C121.864 41.872 120.112 41.056 117.976 41.056C116.344 41.056 111.472 41.584 109.672 41.632C108.904 41.656 108.28 41.68 107.536 41.632ZM124.696 35.656L123.4 36.208C124.072 37.12 124.888 38.56 125.368 39.544L126.664 38.968C126.16 37.984 125.296 36.52 124.696 35.656ZM127.336 34.696L126.064 35.248C126.76 36.136 127.552 37.504 128.056 38.56L129.376 37.984C128.896 37.096 127.984 35.584 127.336 34.696Z" fill="black"/>
<path d="M0 67L385 67" stroke="black"/>
<path d="M144 0V155.5" stroke="black"/>
<path d="M246.83 109.545V87.7273H251.875V89.3977H248.739V107.875H251.875V109.545H246.83ZM263.735 87.04L261.767 86.872C261.695 88 261.359 89.44 260.831 90.76C260.015 92.8 258.407 95.584 254.951 98.896L256.607 100.12C257.399 99.136 258.071 98.272 258.767 97.6C259.871 96.616 261.383 95.848 262.919 95.848C264.167 95.848 265.127 96.496 265.151 97.888C265.175 99.136 265.151 101.608 265.055 102.88H266.903C266.879 101.392 266.831 98.632 266.831 97.384C266.831 95.44 265.391 94.336 263.543 94.336C262.487 94.336 261.119 94.672 260.183 95.224C261.143 93.976 262.031 92.368 262.631 90.904C263.255 89.296 263.519 87.976 263.735 87.04ZM255.503 89.632V91.432C256.847 91.528 258.431 91.576 259.463 91.576C262.511 91.576 266.975 91.36 270.335 90.856V89.08C266.951 89.68 262.799 89.872 259.559 89.872C258.455 89.872 256.799 89.8 255.503 89.632ZM273.839 95.416L273.071 93.64C272.399 93.976 271.799 94.24 271.079 94.576C269.495 95.32 267.551 96.064 265.271 97.24C262.415 98.704 259.439 100.504 259.439 103.432C259.439 106.336 262.199 107.08 265.607 107.08C267.695 107.08 270.359 106.888 272.183 106.672L272.255 104.728C270.143 105.112 267.551 105.328 265.679 105.328C263.207 105.328 261.359 105.04 261.359 103.168C261.359 101.512 263.039 100.216 265.415 98.968C267.743 97.768 270.023 96.856 271.727 96.184C272.375 95.944 273.239 95.608 273.839 95.416ZM282.559 87.7273V109.545H277.513V107.875H280.65V89.3977H277.513V87.7273H282.559Z" fill="black"/>
<path d="M295 67.5L270 165.5H193" stroke="black"/>
<path d="M199.83 163.545V141.727H204.875V143.398H201.739V161.875H204.875V163.545H199.83ZM216.999 141.016L215.007 140.944C215.007 141.256 214.983 141.688 214.935 142.12C214.719 144.184 214.239 148.072 214.239 151.36C214.239 154.408 214.887 157.816 215.583 159.952L217.335 159.424C216.591 157.168 215.919 154.288 215.919 151.168C215.919 147.88 216.327 144.088 216.735 142.072C216.807 141.736 216.903 141.304 216.999 141.016ZM213.135 143.968C212.103 143.968 210.015 143.824 209.175 143.68L209.223 145.48C210.207 145.528 212.079 145.624 213.111 145.624C216.687 145.624 221.415 145.264 224.871 144.664L224.847 142.888C221.535 143.632 217.359 143.968 213.135 143.968ZM223.143 146.8L221.223 146.32C221.199 146.704 221.079 147.352 220.983 147.712C219.879 151.6 217.911 154.192 215.775 156.064C214.239 157.408 212.679 158.08 211.479 158.08C210.591 158.08 210.111 157.6 210.111 156.616C210.111 154.408 212.271 151.768 214.983 150.568C216.207 150.016 217.983 149.44 219.999 149.44C223.575 149.44 225.543 151.48 225.543 153.808C225.543 156.904 222.855 159.136 218.535 159.616L219.567 161.224C225.135 160.336 227.415 157.336 227.415 153.904C227.415 150.544 224.559 147.904 220.023 147.904C218.463 147.904 216.519 148.264 214.911 148.888C211.359 150.256 208.311 153.64 208.311 156.928C208.311 158.968 209.559 159.928 211.143 159.928C212.847 159.928 214.767 159.04 216.303 157.864C218.823 155.92 221.223 152.584 222.639 148.144C222.783 147.76 222.999 147.112 223.143 146.8ZM253.071 158.176L252.759 156.136C251.535 157.408 250.263 158.104 249.135 158.104C248.271 158.104 247.863 157.456 247.863 156.64C247.863 154.216 248.775 150.088 248.775 147.688C248.775 145.744 247.671 144.472 245.415 144.472C242.463 144.472 238.479 147.928 236.991 149.56L236.967 151.936C239.223 149.2 242.703 146.224 244.959 146.224C246.183 146.224 246.879 146.824 246.879 148.216C246.879 150.544 245.991 154.48 245.991 157.168C245.991 159.136 247.047 160.192 248.655 160.192C250.287 160.192 251.775 159.472 253.071 158.176ZM236.943 146.704L236.751 147.352L236.655 148.6C235.719 150.184 232.479 154.576 230.991 156.448L232.191 158.08C233.703 155.992 235.935 152.752 237.039 151.048L237.759 147.76C238.167 147.088 238.815 146.056 239.223 145.432L238.527 144.616C237.423 144.976 234.423 145.336 233.151 145.408C232.551 145.456 232.095 145.456 231.567 145.432L231.783 147.424C233.559 147.136 236.151 146.824 236.943 146.704ZM236.703 142.744C236.703 143.632 236.127 151.24 236.079 153.352C236.055 155.992 236.031 157.192 236.031 159.52C236.031 159.904 236.007 160.48 235.959 160.936H238.023C237.999 160.48 237.927 159.88 237.903 159.472C237.807 157.336 237.807 155.872 237.807 153.688C237.807 149.464 238.527 142.6 238.863 141.04L236.607 140.968C236.727 141.568 236.703 142.192 236.703 142.744ZM259.559 141.727V163.545H254.513V161.875H257.65V143.398H254.513V141.727H259.559Z" fill="black"/>
</svg>
