<svg width="385" height="156" viewBox="0 0 385 156" fill="none" xmlns="http://www.w3.org/2000/svg">
<path d="M282.568 34.612V36.22H286.816V49.804H282.568V51.436H288.496V34.612H282.568ZM282.736 39.604V41.188H287.896V39.604H282.736ZM282.736 44.668V46.228H287.896V44.668H282.736ZM281.752 34.612V53.452H283.432V34.612H281.752ZM291.712 34.468V36.076H300.52V39.604H291.712V41.26H302.272V34.468H291.712ZM291.664 44.716V46.396H302.992V44.716H291.664ZM290.68 34.468V53.788H292.408V34.468H290.68ZM288.304 53.404L288.808 55.132C291.184 54.652 294.376 54.052 297.4 53.404L297.256 51.844C293.944 52.444 290.56 53.044 288.304 53.404ZM296.128 40.54C296.368 48.676 298.12 55.3 301.264 55.324C302.704 55.324 303.328 54.364 303.568 50.98C303.112 50.812 302.512 50.476 302.128 50.116C302.056 52.492 301.864 53.596 301.384 53.62C299.656 53.62 297.952 48.004 297.904 40.54H296.128ZM309.352 36.772L307.024 36.724C307.168 37.276 307.168 38.308 307.168 38.86C307.168 40.252 307.216 43.18 307.432 45.244C308.104 51.46 310.264 53.716 312.544 53.716C314.176 53.716 315.616 52.324 317.08 48.268L315.568 46.564C314.944 48.964 313.816 51.436 312.592 51.436C310.864 51.436 309.712 48.772 309.304 44.764C309.136 42.796 309.112 40.588 309.136 39.1C309.16 38.476 309.232 37.324 309.352 36.772ZM321.832 37.42L319.984 38.068C322.264 40.876 323.728 45.82 324.136 50.14L326.08 49.372C325.72 45.316 323.992 40.204 321.832 37.42Z" fill="black"/>
<path d="M87.856 36.832V56.848H89.632V36.832H87.856ZM83.2 41.872V43.576H93.856V41.872H83.2ZM87.928 42.544C86.896 45.592 84.64 49.456 82.672 51.424C82.984 51.88 83.44 52.624 83.632 53.128C85.696 50.872 87.952 46.552 89.104 43.096L87.928 42.544ZM92.224 35.008C90.16 35.968 86.392 36.784 83.152 37.288C83.368 37.672 83.608 38.272 83.704 38.68C87.064 38.224 90.976 37.408 93.568 36.352L92.224 35.008ZM89.536 44.968L88.552 45.832C89.512 46.72 91.864 49.192 92.656 50.248L93.76 48.88C93.136 48.232 90.328 45.592 89.536 44.968ZM97.336 35.344C96.52 41.272 94.84 49.336 93.352 54.376L95.104 54.76C96.592 49.744 98.344 41.824 99.352 35.704L97.336 35.344ZM91.288 54.016L91.72 55.888C94.84 55.528 99.256 54.976 103.456 54.424L103.408 52.744C98.896 53.272 94.216 53.752 91.288 54.016ZM99.592 47.128C101.224 50.272 102.784 54.4 103.264 56.92L105.136 56.32C104.608 53.752 102.976 49.696 101.272 46.6L99.592 47.128ZM116.176 36.376L113.944 36.136C113.944 37.984 113.632 40.144 113.176 42.064C112.528 44.992 110.608 51.4 107.872 55.072L109.84 55.84C112.552 51.472 114.256 45.496 115.072 42.112C115.408 40.624 115.72 38.656 115.888 37.792C115.984 37.336 116.08 36.808 116.176 36.376ZM124.432 39.136L122.68 39.928C124.36 41.92 126.256 46.096 126.952 48.544L128.824 47.656C128.008 45.448 125.92 41.08 124.432 39.136ZM107.536 41.632L107.728 43.72C108.352 43.624 109.336 43.504 109.888 43.432C111.352 43.288 115.864 42.736 117.472 42.736C119.008 42.736 120.016 43.144 120.016 45.352C120.016 47.944 119.632 51.064 118.864 52.696C118.384 53.728 117.664 53.92 116.776 53.92C116.104 53.92 114.832 53.752 113.824 53.44L114.16 55.432C114.904 55.624 116.056 55.792 116.968 55.792C118.528 55.792 119.728 55.384 120.472 53.776C121.48 51.784 121.864 47.968 121.864 45.112C121.864 41.872 120.112 41.056 117.976 41.056C116.344 41.056 111.472 41.584 109.672 41.632C108.904 41.656 108.28 41.68 107.536 41.632ZM124.696 35.656L123.4 36.208C124.072 37.12 124.888 38.56 125.368 39.544L126.664 38.968C126.16 37.984 125.296 36.52 124.696 35.656ZM127.336 34.696L126.064 35.248C126.76 36.136 127.552 37.504 128.056 38.56L129.376 37.984C128.896 37.096 127.984 35.584 127.336 34.696Z" fill="black"/>
<path d="M0 67L385 67" stroke="black"/>
<path d="M216 0V155.5" stroke="black"/>
</svg>
