<svg width="623" height="212" viewBox="0 0 623 212" fill="none" xmlns="http://www.w3.org/2000/svg">
<path d="M101.83 114.545V92.7273H106.875V94.3977H103.739V112.875H106.875V114.545H101.83ZM119.593 115.602C117.854 115.602 116.317 115.364 114.982 114.886C113.647 114.415 112.525 113.719 111.616 112.798C110.707 111.878 110.019 110.75 109.553 109.415C109.087 108.08 108.854 106.551 108.854 104.83C108.854 103.165 109.09 101.676 109.562 100.364C110.039 99.0511 110.729 97.9375 111.633 97.0227C112.542 96.1023 113.644 95.4006 114.94 94.9176C116.241 94.4347 117.712 94.1932 119.354 94.1932C120.951 94.1932 122.349 94.4545 123.548 94.9773C124.752 95.4943 125.758 96.196 126.565 97.0824C127.377 97.9631 127.985 98.9545 128.388 100.057C128.798 101.159 129.002 102.295 129.002 103.466C129.002 104.29 128.962 105.125 128.883 105.972C128.803 106.818 128.636 107.597 128.38 108.307C128.124 109.011 127.729 109.58 127.195 110.011C126.667 110.443 125.951 110.659 125.048 110.659C124.65 110.659 124.212 110.597 123.735 110.472C123.258 110.347 122.835 110.139 122.465 109.849C122.096 109.56 121.877 109.17 121.809 108.682H121.707C121.57 109.011 121.36 109.324 121.076 109.619C120.798 109.915 120.431 110.151 119.977 110.327C119.528 110.503 118.979 110.58 118.332 110.557C117.593 110.528 116.942 110.364 116.38 110.062C115.817 109.756 115.346 109.341 114.965 108.818C114.59 108.29 114.306 107.679 114.113 106.986C113.925 106.287 113.832 105.534 113.832 104.727C113.832 103.96 113.945 103.259 114.173 102.622C114.4 101.986 114.715 101.429 115.119 100.952C115.528 100.474 116.005 100.094 116.55 99.8097C117.102 99.5199 117.695 99.3409 118.332 99.2727C118.9 99.2159 119.417 99.2415 119.883 99.3494C120.349 99.4517 120.732 99.608 121.033 99.8182C121.335 100.023 121.525 100.25 121.604 100.5H121.707V99.5455H123.513V107.25C123.513 107.727 123.647 108.148 123.914 108.511C124.181 108.875 124.57 109.057 125.082 109.057C125.661 109.057 126.104 108.858 126.411 108.46C126.724 108.062 126.937 107.449 127.05 106.619C127.17 105.79 127.229 104.727 127.229 103.432C127.229 102.67 127.124 101.92 126.914 101.182C126.71 100.437 126.397 99.7415 125.977 99.0938C125.562 98.446 125.036 97.875 124.4 97.3807C123.763 96.8864 123.016 96.5 122.158 96.2216C121.306 95.9375 120.337 95.7955 119.252 95.7955C117.917 95.7955 116.721 96.0028 115.664 96.4176C114.613 96.8267 113.718 97.4261 112.979 98.2159C112.246 99 111.687 99.9545 111.3 101.08C110.92 102.199 110.729 103.472 110.729 104.898C110.729 106.347 110.92 107.634 111.3 108.759C111.687 109.884 112.255 110.832 113.005 111.605C113.761 112.378 114.695 112.963 115.809 113.361C116.923 113.764 118.207 113.966 119.661 113.966C120.286 113.966 120.903 113.906 121.511 113.787C122.119 113.668 122.656 113.537 123.121 113.395C123.587 113.253 123.923 113.148 124.127 113.08L124.604 114.648C124.252 114.795 123.792 114.943 123.224 115.091C122.661 115.239 122.059 115.361 121.417 115.457C120.781 115.554 120.173 115.602 119.593 115.602ZM118.604 108.818C119.366 108.818 119.982 108.665 120.454 108.358C120.925 108.051 121.269 107.588 121.485 106.969C121.701 106.349 121.809 105.568 121.809 104.625C121.809 103.67 121.69 102.926 121.451 102.392C121.212 101.858 120.86 101.483 120.394 101.267C119.928 101.051 119.354 100.943 118.673 100.943C118.025 100.943 117.471 101.114 117.011 101.455C116.556 101.79 116.207 102.239 115.962 102.801C115.724 103.358 115.604 103.966 115.604 104.625C115.604 105.352 115.701 106.037 115.894 106.679C116.087 107.315 116.403 107.832 116.84 108.23C117.278 108.622 117.866 108.818 118.604 108.818ZM140.348 92.376L138.116 92.136C138.116 93.984 137.804 96.144 137.348 98.064C136.7 100.992 134.78 107.4 132.044 111.072L134.012 111.84C136.724 107.472 138.428 101.496 139.244 98.112C139.58 96.624 139.892 94.656 140.06 93.792C140.156 93.336 140.252 92.808 140.348 92.376ZM148.604 95.136L146.852 95.928C148.532 97.92 150.428 102.096 151.124 104.544L152.996 103.656C152.18 101.448 150.092 97.08 148.604 95.136ZM131.708 97.632L131.9 99.72C132.524 99.624 133.508 99.504 134.06 99.432C135.524 99.288 140.036 98.736 141.644 98.736C143.18 98.736 144.188 99.144 144.188 101.352C144.188 103.944 143.804 107.064 143.036 108.696C142.556 109.728 141.836 109.92 140.948 109.92C140.276 109.92 139.004 109.752 137.996 109.44L138.332 111.432C139.076 111.624 140.228 111.792 141.14 111.792C142.7 111.792 143.9 111.384 144.644 109.776C145.652 107.784 146.036 103.968 146.036 101.112C146.036 97.872 144.284 97.056 142.148 97.056C140.516 97.056 135.644 97.584 133.844 97.632C133.076 97.656 132.452 97.68 131.708 97.632ZM148.868 91.656L147.572 92.208C148.244 93.12 149.06 94.56 149.54 95.544L150.836 94.968C150.332 93.984 149.468 92.52 148.868 91.656ZM151.508 90.696L150.236 91.248C150.932 92.136 151.724 93.504 152.228 94.56L153.548 93.984C153.068 93.096 152.156 91.584 151.508 90.696ZM160.036 92.7273V114.545H154.99V112.875H158.126V94.3977H154.99V92.7273H160.036Z" fill="black"/>
<path d="M69 123L622.5 123" stroke="black"/>
<path d="M213 56V211.5" stroke="black"/>
<path d="M282.344 94.8L281.144 93.648C280.808 93.744 279.944 93.816 279.488 93.816C278.048 93.816 266.84 93.816 265.688 93.816C264.8 93.816 263.816 93.72 262.976 93.6V95.76C263.912 95.688 264.8 95.64 265.688 95.64C266.84 95.64 277.688 95.64 279.368 95.64C278.6 97.128 276.344 99.72 274.112 100.992L275.72 102.264C278.456 100.368 280.736 97.272 281.696 95.64C281.864 95.376 282.152 95.016 282.344 94.8ZM272.744 97.944H270.584C270.68 98.592 270.68 99.12 270.68 99.696C270.68 103.704 270.152 107.112 266.456 109.392C265.784 109.848 264.944 110.256 264.296 110.472L266.048 111.912C272.168 108.84 272.744 104.448 272.744 97.944ZM302.221 93.528L300.037 92.784C299.917 93.288 299.701 94.08 299.533 94.56C298.717 96.912 297.517 99.576 295.549 102.12C293.077 105.264 290.005 108.12 285.541 110.256L287.173 111.744C291.709 109.392 294.829 106.224 297.133 103.296C299.101 100.8 300.541 97.68 301.453 95.304C301.645 94.8 301.981 93.984 302.221 93.528ZM289.549 96.36L288.277 97.872C290.917 99.48 294.037 101.856 295.765 103.296C298.165 105.312 300.253 107.208 302.245 109.512L303.757 107.856C301.861 105.792 299.485 103.704 297.085 101.736C295.261 100.272 291.925 97.872 289.549 96.36ZM325.405 92.808H323.149C323.221 93.384 323.293 94.08 323.293 94.896C323.293 95.736 323.293 97.752 323.293 98.688C323.293 103.2 322.981 105.168 321.277 107.136C319.789 108.84 317.749 109.776 315.541 110.352L317.125 112.008C318.877 111.408 321.277 110.352 322.813 108.48C324.565 106.44 325.333 104.544 325.333 98.76C325.333 97.872 325.333 95.832 325.333 94.896C325.333 94.08 325.357 93.384 325.405 92.808ZM314.269 93H312.085C312.157 93.456 312.181 94.296 312.181 94.704C312.181 95.424 312.181 101.688 312.181 102.72C312.181 103.416 312.133 104.184 312.085 104.568H314.269C314.221 104.136 314.197 103.344 314.197 102.72C314.197 101.712 314.197 95.424 314.197 94.704C314.197 94.152 314.221 93.456 314.269 93ZM342.973 92.136H340.741C340.837 92.688 340.885 93.576 340.885 94.128C340.837 101.712 338.869 105.768 335.869 108.48C335.149 109.152 334.189 109.824 333.421 110.232L335.173 111.648C339.901 108.36 342.541 103.872 342.853 94.08C342.877 93.504 342.925 92.688 342.973 92.136ZM351.325 97.128L349.957 96.432C349.549 96.504 349.093 96.552 348.445 96.552H336.589C335.653 96.552 334.669 96.504 333.829 96.432V98.448C334.693 98.376 335.653 98.352 336.613 98.352H349.261C349.261 100.92 348.949 106.824 348.037 108.672C347.773 109.248 347.317 109.464 346.645 109.464C345.613 109.464 344.365 109.344 343.069 109.176L343.309 111.168C344.557 111.264 345.949 111.336 347.149 111.336C348.469 111.336 349.237 110.904 349.717 109.872C350.797 107.568 351.109 100.608 351.181 98.28C351.205 97.968 351.253 97.536 351.325 97.128ZM365.557 91.584C365.389 94.776 365.389 106.32 355.597 111.312C356.149 111.72 356.749 112.272 357.061 112.728C366.997 107.328 367.357 95.352 367.549 91.584H365.557ZM367.477 92.064L365.749 92.232C365.917 94.44 366.589 107.856 376.765 112.728C377.053 112.224 377.605 111.624 378.133 111.216C368.245 106.68 367.549 93.936 367.477 92.064ZM380.677 95.208L380.893 97.32C383.485 96.768 389.605 96.168 392.173 95.904C389.989 97.2 387.709 100.272 387.709 103.992C387.709 109.368 392.749 111.72 397.189 111.888L397.885 109.92C393.997 109.776 389.605 108.264 389.605 103.584C389.605 100.752 391.693 97.08 395.125 95.976C396.349 95.64 398.437 95.592 399.829 95.616L399.805 93.696C398.197 93.744 395.965 93.888 393.325 94.104C388.909 94.488 384.373 94.92 382.837 95.088C382.357 95.136 381.589 95.184 380.677 95.208ZM396.349 98.544L395.149 99.072C395.869 100.08 396.541 101.304 397.093 102.456L398.341 101.904C397.813 100.824 396.901 99.336 396.349 98.544ZM398.965 97.536L397.789 98.088C398.533 99.096 399.253 100.296 399.829 101.448L401.053 100.848C400.501 99.792 399.565 98.328 398.965 97.536ZM417.853 91.992H415.645C415.693 92.208 415.765 92.88 415.813 93.528C415.885 94.848 415.909 99.624 415.909 100.68L417.733 101.616C417.709 99.696 417.661 95.064 417.733 93.504C417.733 93.216 417.805 92.28 417.853 91.992ZM405.085 95.352L405.133 97.2C408.757 96.936 413.893 96.768 418.021 96.768C421.549 96.768 423.709 96.816 425.053 96.888L425.077 95.112C423.949 95.088 420.973 95.088 418.045 95.088C414.349 95.088 408.349 95.304 405.085 95.352ZM417.685 102.312L416.365 101.64C416.749 104.208 415.789 105.456 414.301 105.456C412.981 105.456 411.853 104.592 411.853 103.08C411.853 101.52 413.029 100.536 414.301 100.536C415.597 100.536 416.653 101.448 416.653 103.608C416.653 107.568 414.109 109.704 409.741 110.736L411.349 112.296C416.917 110.64 418.501 107.04 418.501 103.776C418.501 101.016 417.085 98.952 414.301 98.952C412.021 98.952 410.053 100.728 410.053 103.104C410.053 105.72 411.997 107.136 414.013 107.136C416.197 107.136 417.685 105.528 417.685 102.312Z" fill="black"/>
<path d="M11.856 4.832V24.848H13.632V4.832H11.856ZM7.2 9.872V11.576H17.856V9.872H7.2ZM11.928 10.544C10.896 13.592 8.64 17.456 6.672 19.424C6.984 19.88 7.44 20.624 7.632 21.128C9.696 18.872 11.952 14.552 13.104 11.096L11.928 10.544ZM16.224 3.008C14.16 3.968 10.392 4.784 7.152 5.288C7.368 5.672 7.608 6.272 7.704 6.68C11.064 6.224 14.976 5.408 17.568 4.352L16.224 3.008ZM13.536 12.968L12.552 13.832C13.512 14.72 15.864 17.192 16.656 18.248L17.76 16.88C17.136 16.232 14.328 13.592 13.536 12.968ZM21.336 3.344C20.52 9.272 18.84 17.336 17.352 22.376L19.104 22.76C20.592 17.744 22.344 9.824 23.352 3.704L21.336 3.344ZM15.288 22.016L15.72 23.888C18.84 23.528 23.256 22.976 27.456 22.424L27.408 20.744C22.896 21.272 18.216 21.752 15.288 22.016ZM23.592 15.128C25.224 18.272 26.784 22.4 27.264 24.92L29.136 24.32C28.608 21.752 26.976 17.696 25.272 14.6L23.592 15.128Z" fill="black"/>
<path d="M61.552 41.816L61.576 43.64C62.968 43.736 64.216 43.784 65.608 43.784C68.416 43.784 71.344 43.592 73.888 43.16V41.312C71.464 41.816 68.512 42.032 65.632 42.032C64.216 42.032 62.92 41.96 61.552 41.816ZM69.952 37.52H67.792C67.864 37.952 67.888 38.576 67.888 39.008C67.888 39.848 67.912 41.36 67.912 43.016C67.912 46.184 68.224 50.672 68.224 52.4C68.224 54.008 67.648 55.016 65.632 55.016C63.88 55.016 62.704 54.368 62.704 53.12C62.704 51.968 63.952 51.176 65.752 51.176C68.8 51.176 71.224 52.808 73.744 55.16L74.776 53.576C72.76 51.752 69.952 49.712 65.92 49.712C62.752 49.712 60.976 51.296 60.976 53.312C60.976 55.472 62.728 56.768 65.944 56.768C69.184 56.768 70.096 54.848 70.096 52.88C70.096 50.408 69.736 46.664 69.736 42.968C69.736 41.552 69.76 39.848 69.808 38.96C69.832 38.504 69.88 38 69.952 37.52ZM58.12 37.688L56.008 37.496C55.984 38.024 55.936 38.648 55.84 39.224C55.552 41.192 54.736 45.776 54.736 49.304C54.736 52.544 55.192 55.184 55.648 56.912L57.352 56.768C57.328 56.528 57.304 56.168 57.28 55.928C57.256 55.664 57.304 55.184 57.376 54.848C57.616 53.672 58.504 51.224 59.104 49.544L58.12 48.776C57.712 49.76 57.112 51.224 56.728 52.328C56.56 51.152 56.488 50.144 56.488 48.968C56.488 46.28 57.208 41.528 57.688 39.296C57.784 38.864 57.976 38.072 58.12 37.688Z" fill="black"/>
<path d="M0 29H39.2847L69 123" stroke="black" stroke-dasharray="4 4"/>
</svg>
