<svg width="385" height="156" viewBox="0 0 385 156" fill="none" xmlns="http://www.w3.org/2000/svg">
<path d="M271.568 34.612V36.22H275.816V49.804H271.568V51.436H277.496V34.612H271.568ZM271.736 39.604V41.188H276.896V39.604H271.736ZM271.736 44.668V46.228H276.896V44.668H271.736ZM270.752 34.612V53.452H272.432V34.612H270.752ZM280.712 34.468V36.076H289.52V39.604H280.712V41.26H291.272V34.468H280.712ZM280.664 44.716V46.396H291.992V44.716H280.664ZM279.68 34.468V53.788H281.408V34.468H279.68ZM277.304 53.404L277.808 55.132C280.184 54.652 283.376 54.052 286.4 53.404L286.256 51.844C282.944 52.444 279.56 53.044 277.304 53.404ZM285.128 40.54C285.368 48.676 287.12 55.3 290.264 55.324C291.704 55.324 292.328 54.364 292.568 50.98C292.112 50.812 291.512 50.476 291.128 50.116C291.056 52.492 290.864 53.596 290.384 53.62C288.656 53.62 286.952 48.004 286.904 40.54H285.128ZM298.352 36.772L296.024 36.724C296.168 37.276 296.168 38.308 296.168 38.86C296.168 40.252 296.216 43.18 296.432 45.244C297.104 51.46 299.264 53.716 301.544 53.716C303.176 53.716 304.616 52.324 306.08 48.268L304.568 46.564C303.944 48.964 302.816 51.436 301.592 51.436C299.864 51.436 298.712 48.772 298.304 44.764C298.136 42.796 298.112 40.588 298.136 39.1C298.16 38.476 298.232 37.324 298.352 36.772ZM310.832 37.42L308.984 38.068C311.264 40.876 312.728 45.82 313.136 50.14L315.08 49.372C314.72 45.316 312.992 40.204 310.832 37.42ZM318.145 37.708L318.361 39.82C320.953 39.268 327.073 38.668 329.641 38.404C327.457 39.7 325.177 42.772 325.177 46.492C325.177 51.868 330.217 54.22 334.657 54.388L335.353 52.42C331.465 52.276 327.073 50.764 327.073 46.084C327.073 43.252 329.161 39.58 332.593 38.476C333.817 38.14 335.905 38.092 337.297 38.116L337.273 36.196C335.665 36.244 333.433 36.388 330.793 36.604C326.377 36.988 321.841 37.42 320.305 37.588C319.825 37.636 319.057 37.684 318.145 37.708ZM333.817 41.044L332.617 41.572C333.337 42.58 334.009 43.804 334.561 44.956L335.809 44.404C335.281 43.324 334.369 41.836 333.817 41.044ZM336.433 40.036L335.257 40.588C336.001 41.596 336.721 42.796 337.297 43.948L338.521 43.348C337.969 42.292 337.033 40.828 336.433 40.036ZM355.321 34.492H353.113C353.161 34.708 353.233 35.38 353.281 36.028C353.353 37.348 353.377 42.124 353.377 43.18L355.201 44.116C355.177 42.196 355.129 37.564 355.201 36.004C355.201 35.716 355.273 34.78 355.321 34.492ZM342.553 37.852L342.601 39.7C346.225 39.436 351.361 39.268 355.489 39.268C359.017 39.268 361.177 39.316 362.521 39.388L362.545 37.612C361.417 37.588 358.441 37.588 355.513 37.588C351.817 37.588 345.817 37.804 342.553 37.852ZM355.153 44.812L353.833 44.14C354.217 46.708 353.257 47.956 351.769 47.956C350.449 47.956 349.321 47.092 349.321 45.58C349.321 44.02 350.497 43.036 351.769 43.036C353.065 43.036 354.121 43.948 354.121 46.108C354.121 50.068 351.577 52.204 347.209 53.236L348.817 54.796C354.385 53.14 355.969 49.54 355.969 46.276C355.969 43.516 354.553 41.452 351.769 41.452C349.489 41.452 347.521 43.228 347.521 45.604C347.521 48.22 349.465 49.636 351.481 49.636C353.665 49.636 355.153 48.028 355.153 44.812Z" fill="black"/>
<path d="M87.856 36.832V56.848H89.632V36.832H87.856ZM83.2 41.872V43.576H93.856V41.872H83.2ZM87.928 42.544C86.896 45.592 84.64 49.456 82.672 51.424C82.984 51.88 83.44 52.624 83.632 53.128C85.696 50.872 87.952 46.552 89.104 43.096L87.928 42.544ZM92.224 35.008C90.16 35.968 86.392 36.784 83.152 37.288C83.368 37.672 83.608 38.272 83.704 38.68C87.064 38.224 90.976 37.408 93.568 36.352L92.224 35.008ZM89.536 44.968L88.552 45.832C89.512 46.72 91.864 49.192 92.656 50.248L93.76 48.88C93.136 48.232 90.328 45.592 89.536 44.968ZM97.336 35.344C96.52 41.272 94.84 49.336 93.352 54.376L95.104 54.76C96.592 49.744 98.344 41.824 99.352 35.704L97.336 35.344ZM91.288 54.016L91.72 55.888C94.84 55.528 99.256 54.976 103.456 54.424L103.408 52.744C98.896 53.272 94.216 53.752 91.288 54.016ZM99.592 47.128C101.224 50.272 102.784 54.4 103.264 56.92L105.136 56.32C104.608 53.752 102.976 49.696 101.272 46.6L99.592 47.128ZM116.176 36.376L113.944 36.136C113.944 37.984 113.632 40.144 113.176 42.064C112.528 44.992 110.608 51.4 107.872 55.072L109.84 55.84C112.552 51.472 114.256 45.496 115.072 42.112C115.408 40.624 115.72 38.656 115.888 37.792C115.984 37.336 116.08 36.808 116.176 36.376ZM124.432 39.136L122.68 39.928C124.36 41.92 126.256 46.096 126.952 48.544L128.824 47.656C128.008 45.448 125.92 41.08 124.432 39.136ZM107.536 41.632L107.728 43.72C108.352 43.624 109.336 43.504 109.888 43.432C111.352 43.288 115.864 42.736 117.472 42.736C119.008 42.736 120.016 43.144 120.016 45.352C120.016 47.944 119.632 51.064 118.864 52.696C118.384 53.728 117.664 53.92 116.776 53.92C116.104 53.92 114.832 53.752 113.824 53.44L114.16 55.432C114.904 55.624 116.056 55.792 116.968 55.792C118.528 55.792 119.728 55.384 120.472 53.776C121.48 51.784 121.864 47.968 121.864 45.112C121.864 41.872 120.112 41.056 117.976 41.056C116.344 41.056 111.472 41.584 109.672 41.632C108.904 41.656 108.28 41.68 107.536 41.632ZM124.696 35.656L123.4 36.208C124.072 37.12 124.888 38.56 125.368 39.544L126.664 38.968C126.16 37.984 125.296 36.52 124.696 35.656ZM127.336 34.696L126.064 35.248C126.76 36.136 127.552 37.504 128.056 38.56L129.376 37.984C128.896 37.096 127.984 35.584 127.336 34.696Z" fill="black"/>
<path d="M0 67L385 67" stroke="black"/>
<path d="M216 0V155.5" stroke="black"/>
</svg>
