<svg width="611" height="184" viewBox="0 0 611 184" fill="none" xmlns="http://www.w3.org/2000/svg">
<path d="M318.576 42.58V46.804H320.184V44.044H330.048V46.804H331.728V42.58H318.576ZM326.256 45.628V52.876C326.256 54.628 326.64 55.156 328.296 55.156C328.608 55.156 329.952 55.156 330.288 55.156C331.728 55.156 332.16 54.316 332.304 51.052C331.848 50.932 331.128 50.644 330.792 50.356C330.72 53.14 330.624 53.524 330.12 53.524C329.832 53.524 328.752 53.524 328.512 53.524C328.008 53.524 327.936 53.452 327.936 52.852V45.628H326.256ZM322.104 45.628C321.936 50.14 321.336 52.66 317.496 54.052C317.856 54.388 318.36 55.06 318.552 55.468C322.824 53.788 323.592 50.764 323.808 45.628H322.104ZM318.672 35.524V37.036H331.632V35.524H318.672ZM319.44 39.268V40.804H330.936V39.268H319.44ZM324.144 33.34V40.06H325.92V33.34H324.144ZM310.944 40.612V42.052H317.424V40.612H310.944ZM311.064 34.204V35.644H317.328V34.204H311.064ZM310.944 43.828V45.268H317.424V43.828H310.944ZM309.912 37.348V38.836H318.096V37.348H309.912ZM311.784 47.068V48.556H315.912V52.564H311.784V54.052H317.424V47.068H311.784ZM310.896 47.068V55.18H312.432V47.068H310.896ZM346.728 34.468H344.688C344.76 34.78 344.784 35.5 344.784 35.908C344.784 37.588 344.784 40.108 344.784 42.268C344.784 44.38 345.024 48.988 345.024 50.836C345.024 52.516 343.848 52.924 342.456 52.924C340.08 52.924 339.144 52.108 339.144 50.98C339.144 49.876 340.368 48.988 342.672 48.988C346.944 48.988 350.496 51.388 352.656 53.38L353.76 51.676C351.912 50.164 347.952 47.428 342.888 47.428C339.432 47.428 337.344 48.892 337.344 51.076C337.344 53.404 339.24 54.628 342.696 54.628C345.816 54.628 346.92 52.924 346.92 51.244C346.92 49.636 346.56 45.436 346.56 42.268C346.56 40.252 346.56 37.036 346.608 36.076C346.632 35.356 346.68 34.876 346.728 34.468ZM337.56 37.06L337.584 38.836C339.096 39.028 342.048 39.244 343.704 39.244C346.92 39.244 350.352 38.932 353.064 38.62V36.868C349.944 37.372 346.728 37.588 343.68 37.588C342.096 37.588 339.096 37.348 337.56 37.06ZM337.44 42.172L337.464 43.972C339.168 44.164 341.808 44.284 343.464 44.284C347.064 44.284 349.992 44.116 353.256 43.708V41.908C350.136 42.364 346.944 42.604 343.464 42.604C341.88 42.604 339.144 42.436 337.44 42.172ZM369.552 36.508C369.816 37.252 370.152 38.356 370.68 39.724C371.472 41.908 372.792 44.284 373.8 45.82C372.936 45.724 371.16 45.58 369.816 45.46L369.672 47.044C371.4 47.164 374.328 47.428 375.48 47.716L376.44 46.348C376.08 45.964 375.72 45.556 375.408 45.076C374.376 43.684 373.152 41.452 372.408 39.388C371.856 37.828 371.232 35.764 371.016 34.372L368.952 34.612C369.192 35.26 369.408 35.98 369.552 36.508ZM360.768 38.38L360.816 40.276C365.064 40.636 368.88 40.612 371.928 40.252C373.68 40.036 375.96 39.652 377.664 39.172L377.448 37.276C375.576 37.924 373.2 38.356 371.304 38.572C368.568 38.86 364.776 38.836 360.768 38.38ZM364.488 46.012L362.616 45.58C361.92 46.996 361.44 48.244 361.44 49.588C361.44 52.852 364.32 54.484 368.88 54.508C371.568 54.532 373.584 54.268 375.096 54.004L375.168 52.084C373.512 52.444 371.424 52.684 369 52.684C365.424 52.636 363.336 51.652 363.336 49.348C363.336 48.22 363.768 47.188 364.488 46.012ZM398.736 34.996H396.696C396.768 35.428 396.84 36.268 396.84 36.82C396.84 38.14 396.84 39.82 396.816 41.164C396.792 42.868 396.696 44.956 396.552 45.868C396.456 46.42 396.216 46.516 395.616 46.516C395.064 46.516 394.056 46.396 393.216 46.204L393.192 47.884C393.816 48.004 395.472 48.22 396.36 48.22C397.44 48.22 397.992 47.908 398.208 46.828C398.448 45.58 398.52 42.988 398.568 41.14C398.616 39.916 398.616 38.236 398.64 36.748C398.64 36.22 398.688 35.404 398.736 34.996ZM389.256 35.764H387.144C387.264 36.484 387.288 37.06 387.288 37.78C387.288 38.884 387.264 46.804 387.312 48.82C387.408 52.636 387.936 53.932 393.48 53.932C395.928 53.932 398.856 53.692 400.464 53.524L400.536 51.508C398.976 51.796 396 52.06 393.384 52.06C389.232 52.06 389.208 51.148 389.112 48.556C389.064 46.9 389.136 40.3 389.16 37.708C389.16 36.964 389.184 36.316 389.256 35.764ZM382.08 41.5L382.272 43.468C382.944 43.372 383.976 43.228 384.696 43.132C387.744 42.772 397.392 41.764 401.232 41.692C401.832 41.692 402.744 41.668 403.104 41.692V39.796C402.552 39.844 401.856 39.892 401.232 39.916C396.312 40.18 387.168 41.14 384.576 41.356C383.712 41.452 382.824 41.5 382.08 41.5ZM413.016 34.684L412.536 36.532C414.384 37.012 419.568 38.068 421.872 38.38L422.328 36.556C420.192 36.34 415.08 35.356 413.016 34.684ZM412.488 39.076L410.472 38.812C410.328 41.308 409.728 46.348 409.248 48.532L411.048 48.964C411.192 48.58 411.408 48.196 411.768 47.788C413.448 45.748 416.04 44.572 419.184 44.572C421.632 44.572 423.432 45.94 423.432 47.836C423.432 51.124 419.736 53.308 412.152 52.396L412.728 54.34C421.632 55.084 425.448 52.18 425.448 47.908C425.448 45.076 423 42.868 419.328 42.868C416.448 42.868 413.808 43.804 411.504 45.82C411.744 44.26 412.176 40.708 412.488 39.076ZM452.376 51.676L452.064 49.636C450.84 50.908 449.568 51.604 448.44 51.604C447.576 51.604 447.168 50.956 447.168 50.14C447.168 47.716 448.08 43.588 448.08 41.188C448.08 39.244 446.976 37.972 444.72 37.972C441.768 37.972 437.784 41.428 436.296 43.06L436.272 45.436C438.528 42.7 442.008 39.724 444.264 39.724C445.488 39.724 446.184 40.324 446.184 41.716C446.184 44.044 445.296 47.98 445.296 50.668C445.296 52.636 446.352 53.692 447.96 53.692C449.592 53.692 451.08 52.972 452.376 51.676ZM436.248 40.204L436.056 40.852L435.96 42.1C435.024 43.684 431.784 48.076 430.296 49.948L431.496 51.58C433.008 49.492 435.24 46.252 436.344 44.548L437.064 41.26C437.472 40.588 438.12 39.556 438.528 38.932L437.832 38.116C436.728 38.476 433.728 38.836 432.456 38.908C431.856 38.956 431.4 38.956 430.872 38.932L431.088 40.924C432.864 40.636 435.456 40.324 436.248 40.204ZM436.008 36.244C436.008 37.132 435.432 44.74 435.384 46.852C435.36 49.492 435.336 50.692 435.336 53.02C435.336 53.404 435.312 53.98 435.264 54.436H437.328C437.304 53.98 437.232 53.38 437.208 52.972C437.112 50.836 437.112 49.372 437.112 47.188C437.112 42.964 437.832 36.1 438.168 34.54L435.912 34.468C436.032 35.068 436.008 35.692 436.008 36.244ZM463.608 34.636L461.328 34.444C461.376 34.948 461.328 35.764 461.232 36.436C461.064 37.684 460.44 40.708 459.864 42.916C458.952 46.3 457.272 51.172 455.832 53.668L457.92 54.364C459.192 51.748 460.8 46.78 461.664 43.372C462.336 40.972 462.84 38.26 463.2 36.532C463.296 36.076 463.464 35.164 463.608 34.636ZM458.304 38.644C457.416 38.644 456.552 38.596 455.424 38.452L455.472 40.324C456.36 40.396 457.2 40.42 458.256 40.42C460.848 40.42 464.472 40.012 467.448 39.34V37.468C464.472 38.212 460.944 38.644 458.304 38.644ZM465.888 41.932V43.732C467.352 43.564 468.84 43.468 470.328 43.468C471.744 43.468 473.136 43.612 474.384 43.756L474.432 41.932C473.136 41.788 471.672 41.74 470.28 41.74C468.744 41.74 467.136 41.812 465.888 41.932ZM466.368 47.764L464.592 47.596C464.376 48.604 464.232 49.516 464.232 50.428C464.232 52.804 466.296 53.956 470.064 53.956C471.816 53.956 473.424 53.812 474.72 53.62L474.792 51.7C473.304 51.988 471.672 52.156 470.088 52.156C466.68 52.156 466.032 51.052 466.032 49.924C466.032 49.3 466.176 48.556 466.368 47.764ZM493.896 35.812L492.096 34.228C491.832 34.66 491.208 35.356 490.728 35.836C489.12 37.468 485.472 40.348 483.648 41.86C481.488 43.684 481.224 44.716 483.48 46.612C485.736 48.46 489.36 51.58 491.064 53.308C491.64 53.908 492.216 54.484 492.72 55.06L494.424 53.5C491.88 50.932 487.632 47.524 485.448 45.724C483.888 44.428 483.912 44.068 485.352 42.82C487.128 41.332 490.584 38.62 492.24 37.18C492.624 36.844 493.368 36.196 493.896 35.812ZM503.304 38.38L503.448 40.18C504.336 40.204 505.368 40.228 506.256 40.228C509.184 40.252 512.328 39.724 514.68 39.076L514.632 37.3C511.872 38.212 508.848 38.524 506.256 38.524C505.224 38.524 504.192 38.476 503.304 38.38ZM511.824 34.468L509.712 34.252C509.64 35.932 509.112 38.044 508.584 39.556C507.6 42.388 505.368 46.66 503.232 49.156L505.08 50.116C507.072 47.428 509.28 43.06 510.432 39.604C511.008 37.9 511.512 35.644 511.824 34.468ZM517.488 41.884H515.592C515.688 44.524 515.952 48.82 515.952 50.644C515.952 51.94 515.28 52.996 513.288 52.996C511.416 52.996 510.48 52.228 510.48 51.124C510.48 50.02 511.68 49.204 513.456 49.204C516.984 49.204 519.744 51.34 521.592 53.02L522.6 51.388C520.632 49.684 517.536 47.668 513.504 47.668C510.816 47.668 508.728 49.06 508.728 51.268C508.728 53.668 510.864 54.724 513.504 54.724C516.48 54.724 517.704 53.164 517.704 51.244C517.704 49.66 517.488 46.012 517.44 44.452C517.416 43.588 517.416 42.868 517.488 41.884ZM522.288 42.508L523.368 40.924C522.216 40.06 519.504 38.5 517.752 37.756L516.792 39.196C518.376 39.94 520.992 41.404 522.288 42.508ZM535.488 34.78L533.28 34.564C533.28 36.412 532.944 38.572 532.512 40.468C531.864 43.42 529.944 49.828 527.208 53.476L529.152 54.268C531.864 49.876 533.592 43.9 534.408 40.54C534.72 39.052 535.056 37.084 535.2 36.22C535.296 35.74 535.392 35.236 535.488 34.78ZM543.768 37.348L542.016 38.14C543.696 40.108 545.568 44.356 546.288 46.828L548.136 45.94C547.344 43.708 545.256 39.292 543.768 37.348ZM526.848 40.06L527.064 42.124C527.664 42.028 528.672 41.908 529.224 41.836C530.688 41.692 535.176 41.164 536.784 41.164C538.32 41.164 539.328 41.572 539.328 43.756C539.328 46.348 538.968 49.492 538.2 51.1C537.696 52.156 536.976 52.348 536.088 52.348C535.416 52.348 534.168 52.156 533.16 51.844L533.472 53.86C534.24 54.028 535.368 54.196 536.304 54.196C537.84 54.196 539.04 53.812 539.808 52.204C540.792 50.212 541.176 46.396 541.176 43.54C541.176 40.276 539.424 39.46 537.288 39.46C535.656 39.46 530.784 40.012 529.008 40.06C528.24 40.084 527.616 40.084 526.848 40.06ZM552.84 43.924L553.656 45.916C555.192 45.292 560.448 43.108 563.4 43.108C565.872 43.108 567.48 44.62 567.48 46.66C567.48 50.572 562.92 52.06 557.712 52.204L558.504 54.052C564.96 53.668 569.424 51.316 569.424 46.684C569.424 43.42 566.952 41.38 563.544 41.38C560.736 41.38 556.776 42.82 555.072 43.348C554.328 43.588 553.536 43.804 552.84 43.924ZM583.608 34.636L581.328 34.444C581.376 34.948 581.328 35.764 581.232 36.436C581.064 37.684 580.44 40.708 579.864 42.916C578.952 46.3 577.272 51.172 575.832 53.668L577.92 54.364C579.192 51.748 580.8 46.78 581.664 43.372C582.336 40.972 582.84 38.26 583.2 36.532C583.296 36.076 583.464 35.164 583.608 34.636ZM578.304 38.644C577.416 38.644 576.552 38.596 575.424 38.452L575.472 40.324C576.36 40.396 577.2 40.42 578.256 40.42C580.848 40.42 584.472 40.012 587.448 39.34V37.468C584.472 38.212 580.944 38.644 578.304 38.644ZM585.888 41.932V43.732C587.352 43.564 588.84 43.468 590.328 43.468C591.744 43.468 593.136 43.612 594.384 43.756L594.432 41.932C593.136 41.788 591.672 41.74 590.28 41.74C588.744 41.74 587.136 41.812 585.888 41.932ZM586.368 47.764L584.592 47.596C584.376 48.604 584.232 49.516 584.232 50.428C584.232 52.804 586.296 53.956 590.064 53.956C591.816 53.956 593.424 53.812 594.72 53.62L594.792 51.7C593.304 51.988 591.672 52.156 590.088 52.156C586.68 52.156 586.032 51.052 586.032 49.924C586.032 49.3 586.176 48.556 586.368 47.764Z" fill="black"/>
<path d="M84.8295 58.5455V36.7273H89.875V38.3977H86.7386V56.875H89.875V58.5455H84.8295ZM102.593 59.6023C100.854 59.6023 99.3175 59.3636 97.9822 58.8864C96.647 58.4148 95.5249 57.7188 94.6158 56.7983C93.7067 55.8778 93.0192 54.75 92.5533 53.4148C92.0874 52.0795 91.8544 50.5511 91.8544 48.8295C91.8544 47.1648 92.0902 45.6761 92.5618 44.3636C93.0391 43.0511 93.7294 41.9375 94.6328 41.0227C95.5419 40.1023 96.6442 39.4006 97.9396 38.9176C99.2408 38.4347 100.712 38.1932 102.354 38.1932C103.951 38.1932 105.349 38.4545 106.548 38.9773C107.752 39.4943 108.758 40.196 109.565 41.0824C110.377 41.9631 110.985 42.9545 111.388 44.0568C111.798 45.1591 112.002 46.2955 112.002 47.4659C112.002 48.2898 111.962 49.125 111.883 49.9716C111.803 50.8182 111.636 51.5966 111.38 52.3068C111.124 53.0114 110.729 53.5795 110.195 54.0114C109.667 54.4432 108.951 54.6591 108.048 54.6591C107.65 54.6591 107.212 54.5966 106.735 54.4716C106.258 54.3466 105.835 54.1392 105.465 53.8494C105.096 53.5597 104.877 53.1705 104.809 52.6818H104.707C104.57 53.0114 104.36 53.3239 104.076 53.6193C103.798 53.9148 103.431 54.1506 102.977 54.3267C102.528 54.5028 101.979 54.5795 101.332 54.5568C100.593 54.5284 99.9425 54.3636 99.38 54.0625C98.8175 53.7557 98.3459 53.3409 97.9652 52.8182C97.5902 52.2898 97.3061 51.679 97.1129 50.9858C96.9254 50.2869 96.8317 49.5341 96.8317 48.7273C96.8317 47.9602 96.9453 47.2585 97.1726 46.6222C97.3999 45.9858 97.7152 45.429 98.1186 44.9517C98.5277 44.4744 99.005 44.0937 99.5504 43.8097C100.102 43.5199 100.695 43.3409 101.332 43.2727C101.9 43.2159 102.417 43.2415 102.883 43.3494C103.349 43.4517 103.732 43.608 104.033 43.8182C104.335 44.0227 104.525 44.25 104.604 44.5H104.707V43.5455H106.513V51.25C106.513 51.7273 106.647 52.1477 106.914 52.5114C107.181 52.875 107.57 53.0568 108.082 53.0568C108.661 53.0568 109.104 52.858 109.411 52.4602C109.724 52.0625 109.937 51.4489 110.05 50.6193C110.17 49.7898 110.229 48.7273 110.229 47.4318C110.229 46.6705 110.124 45.9205 109.914 45.1818C109.71 44.4375 109.397 43.7415 108.977 43.0938C108.562 42.446 108.036 41.875 107.4 41.3807C106.763 40.8864 106.016 40.5 105.158 40.2216C104.306 39.9375 103.337 39.7955 102.252 39.7955C100.917 39.7955 99.7209 40.0028 98.6641 40.4176C97.6129 40.8267 96.718 41.4261 95.9794 42.2159C95.2464 43 94.6868 43.9545 94.3004 45.0795C93.9197 46.1989 93.7294 47.4716 93.7294 48.8977C93.7294 50.3466 93.9197 51.6335 94.3004 52.7585C94.6868 53.8835 95.255 54.8324 96.005 55.6051C96.7607 56.3778 97.6953 56.9631 98.8089 57.3608C99.9226 57.7642 101.207 57.9659 102.661 57.9659C103.286 57.9659 103.903 57.9063 104.511 57.7869C105.119 57.6676 105.656 57.5369 106.121 57.3949C106.587 57.2528 106.923 57.1477 107.127 57.0795L107.604 58.6477C107.252 58.7955 106.792 58.9432 106.224 59.0909C105.661 59.2386 105.059 59.3608 104.417 59.4574C103.781 59.554 103.173 59.6023 102.593 59.6023ZM101.604 52.8182C102.366 52.8182 102.982 52.6648 103.454 52.358C103.925 52.0511 104.269 51.5881 104.485 50.9688C104.701 50.3494 104.809 49.5682 104.809 48.625C104.809 47.6705 104.69 46.9261 104.451 46.392C104.212 45.858 103.86 45.483 103.394 45.267C102.928 45.0511 102.354 44.9432 101.673 44.9432C101.025 44.9432 100.471 45.1136 100.011 45.4545C99.5561 45.7898 99.2067 46.2386 98.9624 46.8011C98.7237 47.358 98.6044 47.9659 98.6044 48.625C98.6044 49.3523 98.701 50.0369 98.8942 50.679C99.0874 51.3153 99.4027 51.8324 99.8402 52.2301C100.278 52.6222 100.866 52.8182 101.604 52.8182ZM123.348 36.376L121.116 36.136C121.116 37.984 120.804 40.144 120.348 42.064C119.7 44.992 117.78 51.4 115.044 55.072L117.012 55.84C119.724 51.472 121.428 45.496 122.244 42.112C122.58 40.624 122.892 38.656 123.06 37.792C123.156 37.336 123.252 36.808 123.348 36.376ZM131.604 39.136L129.852 39.928C131.532 41.92 133.428 46.096 134.124 48.544L135.996 47.656C135.18 45.448 133.092 41.08 131.604 39.136ZM114.708 41.632L114.9 43.72C115.524 43.624 116.508 43.504 117.06 43.432C118.524 43.288 123.036 42.736 124.644 42.736C126.18 42.736 127.188 43.144 127.188 45.352C127.188 47.944 126.804 51.064 126.036 52.696C125.556 53.728 124.836 53.92 123.948 53.92C123.276 53.92 122.004 53.752 120.996 53.44L121.332 55.432C122.076 55.624 123.228 55.792 124.14 55.792C125.7 55.792 126.9 55.384 127.644 53.776C128.652 51.784 129.036 47.968 129.036 45.112C129.036 41.872 127.284 41.056 125.148 41.056C123.516 41.056 118.644 41.584 116.844 41.632C116.076 41.656 115.452 41.68 114.708 41.632ZM131.868 35.656L130.572 36.208C131.244 37.12 132.06 38.56 132.54 39.544L133.836 38.968C133.332 37.984 132.468 36.52 131.868 35.656ZM134.508 34.696L133.236 35.248C133.932 36.136 134.724 37.504 135.228 38.56L136.548 37.984C136.068 37.096 135.156 35.584 134.508 34.696ZM143.036 36.7273V58.5455H137.99V56.875H141.126V38.3977H137.99V36.7273H143.036Z" fill="black"/>
<path d="M0 67H611" stroke="black"/>
<path d="M191 0V155.5" stroke="black"/>
<path d="M267.04 92.04L265.072 91.872C265 93 264.664 94.44 264.136 95.76C263.32 97.8 261.712 100.584 258.256 103.896L259.912 105.12C260.704 104.136 261.376 103.272 262.072 102.6C263.176 101.616 264.688 100.848 266.224 100.848C267.472 100.848 268.432 101.496 268.456 102.888C268.48 104.136 268.456 106.608 268.36 107.88H270.208C270.184 106.392 270.136 103.632 270.136 102.384C270.136 100.44 268.696 99.336 266.848 99.336C265.792 99.336 264.424 99.672 263.488 100.224C264.448 98.976 265.336 97.368 265.936 95.904C266.56 94.296 266.824 92.976 267.04 92.04ZM258.808 94.632V96.432C260.152 96.528 261.736 96.576 262.768 96.576C265.816 96.576 270.28 96.36 273.64 95.856V94.08C270.256 94.68 266.104 94.872 262.864 94.872C261.76 94.872 260.104 94.8 258.808 94.632ZM277.144 100.416L276.376 98.64C275.704 98.976 275.104 99.24 274.384 99.576C272.8 100.32 270.856 101.064 268.576 102.24C265.72 103.704 262.744 105.504 262.744 108.432C262.744 111.336 265.504 112.08 268.912 112.08C271 112.08 273.664 111.888 275.488 111.672L275.56 109.728C273.448 110.112 270.856 110.328 268.984 110.328C266.512 110.328 264.664 110.04 264.664 108.168C264.664 106.512 266.344 105.216 268.72 103.968C271.048 102.768 273.328 101.856 275.032 101.184C275.68 100.944 276.544 100.608 277.144 100.416Z" fill="black"/>
<path d="M296 67.5L271 165.5H216.5" stroke="black"/>
<path d="M230.536 144.904V146.728H251.488V144.904H230.536ZM235.336 155.608V157.432H246.52V155.608H235.336ZM240.016 139.864V161.92H241.912V139.864H240.016ZM239.464 145.504C237.544 150.112 233.728 154.576 229.72 156.664C230.128 157.024 230.728 157.696 231.016 158.152C235.168 155.728 238.936 151.144 241.072 146.056L239.464 145.504ZM242.512 145.576L240.904 146.128C243.016 151.168 246.712 155.752 250.96 158.104C251.248 157.6 251.872 156.88 252.328 156.496C248.176 154.504 244.408 150.136 242.512 145.576Z" fill="black"/>
</svg>
