<svg width="385" height="156" viewBox="0 0 385 156" fill="none" xmlns="http://www.w3.org/2000/svg">
<path d="M302.576 42.58V46.804H304.184V44.044H314.048V46.804H315.728V42.58H302.576ZM310.256 45.628V52.876C310.256 54.628 310.64 55.156 312.296 55.156C312.608 55.156 313.952 55.156 314.288 55.156C315.728 55.156 316.16 54.316 316.304 51.052C315.848 50.932 315.128 50.644 314.792 50.356C314.72 53.14 314.624 53.524 314.12 53.524C313.832 53.524 312.752 53.524 312.512 53.524C312.008 53.524 311.936 53.452 311.936 52.852V45.628H310.256ZM306.104 45.628C305.936 50.14 305.336 52.66 301.496 54.052C301.856 54.388 302.36 55.06 302.552 55.468C306.824 53.788 307.592 50.764 307.808 45.628H306.104ZM302.672 35.524V37.036H315.632V35.524H302.672ZM303.44 39.268V40.804H314.936V39.268H303.44ZM308.144 33.34V40.06H309.92V33.34H308.144ZM294.944 40.612V42.052H301.424V40.612H294.944ZM295.064 34.204V35.644H301.328V34.204H295.064ZM294.944 43.828V45.268H301.424V43.828H294.944ZM293.912 37.348V38.836H302.096V37.348H293.912ZM295.784 47.068V48.556H299.912V52.564H295.784V54.052H301.424V47.068H295.784ZM294.896 47.068V55.18H296.432V47.068H294.896ZM325.928 34.492H323.816C323.936 34.996 323.984 35.812 323.984 36.748C324.008 38.02 324.008 41.812 324.008 43.132L325.76 44.092C325.76 42.46 325.736 37.948 325.76 36.748C325.76 35.884 325.832 34.996 325.928 34.492ZM334.328 36.916L333.08 38.164C334.424 39.1 336.608 41.188 337.784 42.7L339.128 41.332C338.024 39.988 335.744 37.852 334.328 36.916ZM319.208 37.66L319.28 39.436C320.696 39.628 322.064 39.676 323.12 39.676C325.088 39.676 327.92 39.364 330.368 38.812V36.964C327.944 37.636 325.28 37.996 323 37.996C321.8 37.996 320.624 37.9 319.208 37.66ZM325.16 48.484L323.36 49.108C323.312 49.876 323.264 50.74 323.264 51.604C323.264 53.38 323.96 54.532 328.784 54.532C330.368 54.532 332.696 54.316 333.752 54.052C335.912 53.452 336.776 52.42 336.872 50.164C336.896 49.156 336.872 48.532 336.872 47.572L334.808 46.924C334.928 47.884 334.952 48.7 334.952 49.636C334.952 51.22 334.208 51.94 332.96 52.324C332.096 52.564 330.248 52.732 328.904 52.732C325.4 52.732 325.064 52.228 325.064 50.884C325.064 50.164 325.112 48.988 325.16 48.484ZM326.384 45.316C326.384 43.396 325.28 42.004 323.36 42.004C320.984 42.004 319.424 44.26 319.424 46.708C319.424 49.516 321.152 50.5 322.52 50.5C325.544 50.5 326.384 47.476 326.384 45.316ZM322.712 48.724C321.824 48.724 321.032 47.956 321.032 46.612C321.032 44.812 322.064 43.54 323.24 43.54C324.08 43.54 324.632 44.26 324.632 45.412C324.632 47.02 324.152 48.724 322.712 48.724Z" fill="black"/>
<path d="M84.8295 58.5455V36.7273H89.875V38.3977H86.7386V56.875H89.875V58.5455H84.8295ZM102.593 59.6023C100.854 59.6023 99.3175 59.3636 97.9822 58.8864C96.647 58.4148 95.5249 57.7188 94.6158 56.7983C93.7067 55.8778 93.0192 54.75 92.5533 53.4148C92.0874 52.0795 91.8544 50.5511 91.8544 48.8295C91.8544 47.1648 92.0902 45.6761 92.5618 44.3636C93.0391 43.0511 93.7294 41.9375 94.6328 41.0227C95.5419 40.1023 96.6442 39.4006 97.9396 38.9176C99.2408 38.4347 100.712 38.1932 102.354 38.1932C103.951 38.1932 105.349 38.4545 106.548 38.9773C107.752 39.4943 108.758 40.196 109.565 41.0824C110.377 41.9631 110.985 42.9545 111.388 44.0568C111.798 45.1591 112.002 46.2955 112.002 47.4659C112.002 48.2898 111.962 49.125 111.883 49.9716C111.803 50.8182 111.636 51.5966 111.38 52.3068C111.124 53.0114 110.729 53.5795 110.195 54.0114C109.667 54.4432 108.951 54.6591 108.048 54.6591C107.65 54.6591 107.212 54.5966 106.735 54.4716C106.258 54.3466 105.835 54.1392 105.465 53.8494C105.096 53.5597 104.877 53.1705 104.809 52.6818H104.707C104.57 53.0114 104.36 53.3239 104.076 53.6193C103.798 53.9148 103.431 54.1506 102.977 54.3267C102.528 54.5028 101.979 54.5795 101.332 54.5568C100.593 54.5284 99.9425 54.3636 99.38 54.0625C98.8175 53.7557 98.3459 53.3409 97.9652 52.8182C97.5902 52.2898 97.3061 51.679 97.1129 50.9858C96.9254 50.2869 96.8317 49.5341 96.8317 48.7273C96.8317 47.9602 96.9453 47.2585 97.1726 46.6222C97.3999 45.9858 97.7152 45.429 98.1186 44.9517C98.5277 44.4744 99.005 44.0937 99.5504 43.8097C100.102 43.5199 100.695 43.3409 101.332 43.2727C101.9 43.2159 102.417 43.2415 102.883 43.3494C103.349 43.4517 103.732 43.608 104.033 43.8182C104.335 44.0227 104.525 44.25 104.604 44.5H104.707V43.5455H106.513V51.25C106.513 51.7273 106.647 52.1477 106.914 52.5114C107.181 52.875 107.57 53.0568 108.082 53.0568C108.661 53.0568 109.104 52.858 109.411 52.4602C109.724 52.0625 109.937 51.4489 110.05 50.6193C110.17 49.7898 110.229 48.7273 110.229 47.4318C110.229 46.6705 110.124 45.9205 109.914 45.1818C109.71 44.4375 109.397 43.7415 108.977 43.0938C108.562 42.446 108.036 41.875 107.4 41.3807C106.763 40.8864 106.016 40.5 105.158 40.2216C104.306 39.9375 103.337 39.7955 102.252 39.7955C100.917 39.7955 99.7209 40.0028 98.6641 40.4176C97.6129 40.8267 96.718 41.4261 95.9794 42.2159C95.2464 43 94.6868 43.9545 94.3004 45.0795C93.9197 46.1989 93.7294 47.4716 93.7294 48.8977C93.7294 50.3466 93.9197 51.6335 94.3004 52.7585C94.6868 53.8835 95.255 54.8324 96.005 55.6051C96.7607 56.3778 97.6953 56.9631 98.8089 57.3608C99.9226 57.7642 101.207 57.9659 102.661 57.9659C103.286 57.9659 103.903 57.9063 104.511 57.7869C105.119 57.6676 105.656 57.5369 106.121 57.3949C106.587 57.2528 106.923 57.1477 107.127 57.0795L107.604 58.6477C107.252 58.7955 106.792 58.9432 106.224 59.0909C105.661 59.2386 105.059 59.3608 104.417 59.4574C103.781 59.554 103.173 59.6023 102.593 59.6023ZM101.604 52.8182C102.366 52.8182 102.982 52.6648 103.454 52.358C103.925 52.0511 104.269 51.5881 104.485 50.9688C104.701 50.3494 104.809 49.5682 104.809 48.625C104.809 47.6705 104.69 46.9261 104.451 46.392C104.212 45.858 103.86 45.483 103.394 45.267C102.928 45.0511 102.354 44.9432 101.673 44.9432C101.025 44.9432 100.471 45.1136 100.011 45.4545C99.5561 45.7898 99.2067 46.2386 98.9624 46.8011C98.7237 47.358 98.6044 47.9659 98.6044 48.625C98.6044 49.3523 98.701 50.0369 98.8942 50.679C99.0874 51.3153 99.4027 51.8324 99.8402 52.2301C100.278 52.6222 100.866 52.8182 101.604 52.8182ZM123.348 36.376L121.116 36.136C121.116 37.984 120.804 40.144 120.348 42.064C119.7 44.992 117.78 51.4 115.044 55.072L117.012 55.84C119.724 51.472 121.428 45.496 122.244 42.112C122.58 40.624 122.892 38.656 123.06 37.792C123.156 37.336 123.252 36.808 123.348 36.376ZM131.604 39.136L129.852 39.928C131.532 41.92 133.428 46.096 134.124 48.544L135.996 47.656C135.18 45.448 133.092 41.08 131.604 39.136ZM114.708 41.632L114.9 43.72C115.524 43.624 116.508 43.504 117.06 43.432C118.524 43.288 123.036 42.736 124.644 42.736C126.18 42.736 127.188 43.144 127.188 45.352C127.188 47.944 126.804 51.064 126.036 52.696C125.556 53.728 124.836 53.92 123.948 53.92C123.276 53.92 122.004 53.752 120.996 53.44L121.332 55.432C122.076 55.624 123.228 55.792 124.14 55.792C125.7 55.792 126.9 55.384 127.644 53.776C128.652 51.784 129.036 47.968 129.036 45.112C129.036 41.872 127.284 41.056 125.148 41.056C123.516 41.056 118.644 41.584 116.844 41.632C116.076 41.656 115.452 41.68 114.708 41.632ZM131.868 35.656L130.572 36.208C131.244 37.12 132.06 38.56 132.54 39.544L133.836 38.968C133.332 37.984 132.468 36.52 131.868 35.656ZM134.508 34.696L133.236 35.248C133.932 36.136 134.724 37.504 135.228 38.56L136.548 37.984C136.068 37.096 135.156 35.584 134.508 34.696ZM143.036 36.7273V58.5455H137.99V56.875H141.126V38.3977H137.99V36.7273H143.036Z" fill="black"/>
<path d="M0 67L385 67" stroke="black"/>
<path d="M216 0V155.5" stroke="black"/>
</svg>
