<?xml version="1.0" encoding="UTF-8"?>
<svg width="1200pt" height="1200pt" version="1.1" viewBox="0 0 1200 1200" xmlns="http://www.w3.org/2000/svg">
 <g>
  <path d="m529.2 729.96h-228c-46.449 0-89.375-24.781-112.6-65.012-23.223-40.227-23.223-89.789 0-130.02 23.227-40.227 66.152-65.008 112.6-65.008h208.2c29.125-0.003906 57.812 7.0586 83.602 20.582 25.793 13.523 47.918 33.102 64.48 57.055l35.16 51c4.4805 7.0547 4.9727 15.934 1.293 23.438-3.6797 7.5039-11 12.555-19.32 13.332-8.3242 0.77734-16.449-2.832-21.453-9.5273l-35.16-50.879c-24.52-35.512-64.848-56.797-108-57h-208.8c-29.301 0-56.379 15.633-71.031 41.008-14.652 25.379-14.652 56.645 0 82.02 14.652 25.379 41.73 41.012 71.031 41.012h228c8.5742 0 16.5 4.5742 20.785 12 4.2891 7.4258 4.2891 16.574 0 24-4.2852 7.4258-12.211 12-20.785 12z"/>
  <path d="m898.8 729.96h-208.2c-29.125 0-57.812-7.0625-83.602-20.586-25.793-13.52-47.918-33.102-64.48-57.055l-35.16-51c-3.9062-5.2266-5.5156-11.812-4.4609-18.25 1.0547-6.4375 4.6875-12.168 10.055-15.875 5.3711-3.7031 12.016-5.0625 18.406-3.7656 6.3945 1.3008 11.98 5.1445 15.48 10.648l35.16 50.879v0.003907c24.52 35.512 64.848 56.797 108 57h208.8c29.301 0 56.379-15.633 71.031-41.012 14.652-25.375 14.652-56.641 0-82.02-14.652-25.375-41.73-41.008-71.031-41.008h-228c-8.5742 0-16.5-4.5781-20.785-12-4.2891-7.4258-4.2891-16.578 0-24 4.2852-7.4258 12.211-12 20.785-12h228c46.449 0 89.375 24.781 112.6 65.008 23.223 40.23 23.223 89.793 0 130.02-23.227 40.23-66.152 65.012-112.6 65.012z"/>
 </g>
</svg>
