<svg width="88" height="93" viewBox="0 0 88 93" fill="none" xmlns="http://www.w3.org/2000/svg">
<path d="M64.29 15.855C54.105 40.845 35.94 59.535 11.79 70.56C13.47 72.03 15.99 75.18 17.04 76.86C41.505 64.575 60.405 45.045 71.64 17.85L64.29 15.855ZM15.57 43.155C34.26 50.82 56.625 63.84 67.44 73.815L72.165 67.62C61.035 57.645 38.355 45.255 19.77 37.905L15.57 43.155ZM14.52 18.48C18.615 24.15 22.71 31.815 24.075 36.96L30.48 34.02C29.01 28.98 24.705 21.42 20.505 15.855L14.52 18.48ZM34.575 14.805C38.145 21 41.4 29.295 42.24 34.65L48.855 32.13C47.91 26.88 44.55 18.69 40.875 12.6L34.575 14.805ZM0.240001 0.734996V92.19H8.115V8.295H78.885V92.19H87.075V0.734996H0.240001ZM4.65 79.485V87.045H82.35V79.485H4.65Z" fill="#FFBE2D"/>
</svg>
